<?xml version="1.0" standalone="no"?>
<!DOCTYPE svg PUBLIC "-//W3C//DTD SVG 1.1//EN" "http://www.w3.org/Graphics/SVG/1.1/DTD/svg11.dtd" >
<svg xmlns="http://www.w3.org/2000/svg" xmlns:xlink="http://www.w3.org/1999/xlink" version="1.1">
<metadata>
Created by FontForge 20161003 at Tue Mar  7 15:30:14 2017
 By www-data
Copyright (c) Mark Simonson, 2005. All rights reserved.This font is ONLY licensed for use when accessed from the Extensis WebINK font service. Any other use of this font file is illegal under United States and international copyright laws. Please respect the rights of the people who design and license fonts.
</metadata>
<defs>
<font id="hneggppdfobmfeppgkglpfhnnicafonh" horiz-adv-x="579" >
  <font-face 
    font-family="ielaolbpchndjkb"
    font-weight="700"
    font-stretch="normal"
    units-per-em="1000"
    panose-1="2 0 5 6 3 0 0 2 0 4"
    ascent="790"
    descent="-210"
    x-height="483"
    cap-height="667"
    bbox="-172 -288 1147 909"
    underline-thickness="20"
    underline-position="-133"
    unicode-range="U+000D-FB04"
  />
<missing-glyph horiz-adv-x="483" 
d="M66 -90v842h351v-842h-351zM385 722h-288v-782h288v782z" />
    <glyph glyph-name="f_f_j" unicode="ffj" horiz-adv-x="907" 
d="M418 0v372h-80v111h80v26q0 39 12 70.5t34 53t51.5 33t65.5 11.5q27 0 51 -5.5t41 -14.5l-26 -92q-17 12 -41 12q-27 0 -43.5 -17.5t-16.5 -50.5v-26h98v-111h-98v-372h-128zM781 535q-31 0 -53.5 22t-22.5 54t22.5 53.5t53.5 21.5q32 0 54 -21.5t22 -53.5t-22 -54
t-54 -22zM673 -196q-23 0 -40 2t-30.5 6t-25.5 10.5t-25 15.5l35 95q14 -12 28.5 -18.5t36.5 -6.5q29 0 47.5 19t18.5 60v496h127v-496q0 -83 -42.5 -133t-129.5 -50zM91 0v372h-80v111h80v26q0 78 45 123t118 45q35 0 69 -10t57 -35l-48 -75q-20 20 -53 20q-26 0 -43 -17
t-17 -51v-26h98v-111h-98v-372h-128z" />
    <glyph glyph-name="f_j" unicode="fj" horiz-adv-x="580" 
d="M91 0v372h-80v111h80v26q0 39 12 70.5t34 53t51.5 33t65.5 11.5q27 0 51 -5.5t41 -14.5l-26 -92q-17 12 -41 12q-27 0 -43.5 -17.5t-16.5 -50.5v-26h98v-111h-98v-372h-128zM453 535q-31 0 -53.5 22t-22.5 54t22.5 53.5t53.5 21.5q32 0 54 -21.5t22 -53.5t-22 -54
t-54 -22zM345 -196q-23 0 -40 2t-30.5 6t-25.5 10.5t-25 15.5l35 95q14 -12 28.5 -18.5t36.5 -6.5q29 0 47.5 19t18.5 60v496h127v-496q0 -83 -42.5 -133t-129.5 -50z" />
    <glyph glyph-name="f_f" unicode="ff" horiz-adv-x="655" 
d="M91 0v372h-80v111h80v26q0 78 45 123t118 45q35 0 69 -10t57 -35l-48 -75q-20 20 -53 20q-26 0 -43 -17t-17 -51v-26h98v-111h-98v-372h-128zM418 0v372h-80v111h80v26q0 78 45 123t118 45q35 0 69 -10t57 -35l-48 -75q-20 20 -53 20q-26 0 -43 -17t-17 -51v-26h98v-111
h-98v-372h-128z" />
    <glyph glyph-name="fi" unicode="fi" horiz-adv-x="580" 
d="M91 0v372h-80v111h80v26q0 39 12 70.5t34 53t51.5 33t65.5 11.5q27 0 51 -5.5t41 -14.5l-26 -92q-17 12 -41 12q-27 0 -43.5 -17.5t-16.5 -50.5v-26h98v-111h-98v-372h-128zM453 535q-31 0 -53.5 22t-22.5 54t22.5 53.5t53.5 21.5q32 0 54 -21.5t22 -53.5t-22 -54
t-54 -22zM390 0v483h127v-483h-127z" />
    <glyph glyph-name="fl" unicode="fl" horiz-adv-x="580" 
d="M91 0v372h-80v111h80v26q0 39 12 70.5t34 53t51.5 33t65.5 11.5q27 0 51 -5.5t41 -14.5l-26 -92q-17 12 -41 12q-27 0 -43.5 -17.5t-16.5 -50.5v-26h98v-111h-98v-372h-128zM390 0v667h127v-667h-127z" />
    <glyph glyph-name="f_f_i" unicode="ffi" horiz-adv-x="907" 
d="M418 0v372h-80v111h80v26q0 39 12 70.5t34 53t51.5 33t65.5 11.5q27 0 51 -5.5t41 -14.5l-26 -92q-17 12 -41 12q-27 0 -43.5 -17.5t-16.5 -50.5v-26h98v-111h-98v-372h-128zM781 535q-31 0 -53.5 22t-22.5 54t22.5 53.5t53.5 21.5q32 0 54 -21.5t22 -53.5t-22 -54
t-54 -22zM718 0v483h127v-483h-127zM91 0v372h-80v111h80v26q0 78 45 123t118 45q35 0 69 -10t57 -35l-48 -75q-20 20 -53 20q-26 0 -43 -17t-17 -51v-26h98v-111h-98v-372h-128z" />
    <glyph glyph-name="f_f_l" unicode="ffl" horiz-adv-x="907" 
d="M418 0v372h-80v111h80v26q0 39 12 70.5t34 53t51.5 33t65.5 11.5q27 0 51 -5.5t41 -14.5l-26 -92q-17 12 -41 12q-27 0 -43.5 -17.5t-16.5 -50.5v-26h98v-111h-98v-372h-128zM718 0v667h127v-667h-127zM91 0v372h-80v111h80v26q0 78 45 123t118 45q35 0 69 -10t57 -35
l-48 -75q-20 20 -53 20q-26 0 -43 -17t-17 -51v-26h98v-111h-98v-372h-128z" />
    <glyph glyph-name="f_b" unicode="fb" horiz-adv-x="912" 
d="M91 0v372h-80v111h80v26q0 39 12 70.5t34 53t51.5 33t65.5 11.5q27 0 51 -5.5t41 -14.5l-26 -92q-17 12 -41 12q-27 0 -43.5 -17.5t-16.5 -50.5v-26h98v-111h-98v-372h-128zM517 155q16 -23 47 -38.5t62 -15.5q56 0 89.5 38.5t33.5 101.5t-33.5 102t-89.5 39
q-31 0 -62 -16t-47 -40v-171zM390 0v667h127v-246q29 37 67.5 55.5t81.5 18.5q46 0 85.5 -17.5t68 -50.5t44.5 -80t16 -106q0 -60 -16.5 -107.5t-45 -79.5t-67.5 -49t-85 -17q-44 0 -82 19t-67 55v-62h-127z" />
    <glyph glyph-name="f_h" unicode="fh" horiz-adv-x="907" 
d="M91 0v372h-80v111h80v26q0 39 12 70.5t34 53t51.5 33t65.5 11.5q27 0 51 -5.5t41 -14.5l-26 -92q-17 12 -41 12q-27 0 -43.5 -17.5t-16.5 -50.5v-26h98v-111h-98v-372h-128zM717 0v294q0 50 -24.5 69t-65.5 19q-37 0 -65 -17.5t-45 -39.5v-325h-127v667h127v-247
q23 28 66.5 51.5t103.5 23.5q80 0 118.5 -40.5t38.5 -111.5v-343h-127z" />
    <glyph glyph-name="f_k" unicode="fk" horiz-adv-x="863" 
d="M91 0v372h-80v111h80v26q0 39 12 70.5t34 53t51.5 33t65.5 11.5q27 0 51 -5.5t41 -14.5l-26 -92q-17 12 -41 12q-27 0 -43.5 -17.5t-16.5 -50.5v-26h98v-111h-98v-372h-128zM703 0l-128 186l-58 -62v-124h-127v667h127v-399l183 215h156l-191 -219l197 -264h-159z" />
    <glyph glyph-name=".notdef" horiz-adv-x="483" 
d="M66 -90v842h351v-842h-351zM385 722h-288v-782h288v782z" />
    <glyph glyph-name=".null" horiz-adv-x="0" 
 />
    <glyph glyph-name=".null" horiz-adv-x="0" 
 />
    <glyph glyph-name="nonmarkingreturn" unicode="&#xd;" horiz-adv-x="0" 
 />
    <glyph glyph-name="space" unicode=" " horiz-adv-x="256" 
d="M0 0z" />
    <glyph glyph-name="exclam" unicode="!" horiz-adv-x="256" 
d="M72 217l-21 450h153l-20 -450h-112zM128 -10q-17 0 -31.5 6.5t-25 17.5t-17 25.5t-6.5 30.5q0 33 23.5 57t56.5 24t57 -24t24 -57q0 -16 -6.5 -30.5t-17.5 -25.5t-26 -17.5t-31 -6.5z" />
    <glyph glyph-name="quotedbl" unicode="&#x22;" horiz-adv-x="406" 
d="M85 375q-12 60 -21 109q-4 21 -7.5 41.5t-6.5 37.5t-4.5 29t-1.5 16q0 29 20 49t49 20q28 0 48.5 -20t20.5 -49q0 -4 -2 -16t-5 -29t-6.5 -37.5t-7.5 -41.5q-9 -49 -20 -109h-56zM266 375q-12 60 -21 109q-4 21 -7.5 41.5t-6.5 37.5t-4.5 29t-1.5 16q0 29 20 49t49 20
t48.5 -20t19.5 -49q0 -4 -2 -16t-5 -29t-6.5 -37.5t-7.5 -41.5q-9 -49 -20 -109h-55z" />
    <glyph glyph-name="numbersign" unicode="#" horiz-adv-x="618" 
d="M244 0l58 169h-95l-57 -169h-94l57 169h-96l26 81h98l54 166h-98l25 80h101l56 171h94l-56 -171h94l56 171h95l-58 -171h97l-24 -80h-100l-55 -166h101l-25 -81h-103l-56 -169h-95zM383 416h-94l-54 -166h93z" />
    <glyph glyph-name="dollar" unicode="$" horiz-adv-x="614" 
d="M266 -10q-79 7 -137 34.5t-99 69.5l77 108q28 -29 68 -53t91 -33v158q-39 10 -77 23t-69 35.5t-50 56.5t-19 85q0 38 14.5 72t42.5 61t67.5 45t90.5 23v93h95v-95q61 -7 111.5 -29.5t91.5 -59.5l-79 -104q-27 25 -58.5 41t-65.5 24v-141q39 -10 77.5 -23.5t70 -36t51 -57
t19.5 -85.5q0 -42 -13.5 -78t-40.5 -63.5t-68 -45.5t-96 -24v-91h-95v90zM435 186q0 25 -21 39t-53 25v-134q37 8 55.5 27.5t18.5 42.5zM196 486q0 -22 19 -35t51 -22v122q-34 -5 -52 -22t-18 -43z" />
    <glyph glyph-name="percent" unicode="%" horiz-adv-x="757" 
d="M195 345q-38 0 -69.5 12.5t-53.5 34.5t-34 52t-12 65t12 66t34 53.5t53.5 35.5t69.5 13q39 0 70 -13t53.5 -35.5t34.5 -53.5t12 -66t-12 -65t-34.5 -52t-53.5 -34.5t-70 -12.5zM130 0l426 667h76l-427 -667h-75zM562 -12q-38 0 -69.5 12.5t-53.5 35t-34 52.5t-12 65
t12 66t34 53.5t53.5 35.5t69.5 13t69.5 -13t54 -35.5t34.5 -53.5t12 -66t-12 -65t-34.5 -52.5t-54 -35t-69.5 -12.5zM195 423q35 0 57 23.5t22 62.5q0 42 -22 65.5t-57 23.5q-34 0 -56.5 -23.5t-22.5 -65.5q0 -39 22.5 -62.5t56.5 -23.5zM562 66q35 0 57.5 23t22.5 64
q0 42 -22.5 65.5t-57.5 23.5t-57 -23.5t-22 -65.5q0 -41 22 -64t57 -23z" />
    <glyph glyph-name="ampersand" unicode="&#x26;" horiz-adv-x="646" 
d="M476 0q-21 20 -50 50q-38 -29 -83 -45.5t-99 -16.5q-46 0 -86 12t-70 36t-47 60.5t-17 84.5q0 38 11.5 67.5t31.5 52.5t45.5 40.5t54.5 31.5q-20 37 -32 73.5t-12 70.5t14 63t39.5 50.5t60.5 34t77 12.5q35 0 67 -9.5t56 -27.5t38 -44.5t14 -59.5q0 -38 -14 -66
t-37 -49.5t-52.5 -37.5t-60.5 -30q15 -20 30 -38.5t28 -33.5q14 -18 28 -34.5t28 -33.5q21 32 36.5 66t24.5 63l102 -47q-18 -40 -41 -81.5t-52 -79.5q30 -32 62 -65.5t67 -68.5h-162zM262 88q26 0 50 9t46 25q-23 25 -42.5 47.5t-31.5 37.5q-17 20 -33.5 42.5t-33.5 45.5
q-26 -19 -42 -43t-16 -59q0 -24 8.5 -43.5t22.5 -33t32.5 -21t39.5 -7.5zM250 514q0 -20 8 -43t21 -47q42 20 71 44t29 61q0 26 -17 41t-42 15q-29 0 -49.5 -20t-20.5 -51z" />
    <glyph glyph-name="quotesingle" unicode="'" horiz-adv-x="225" 
d="M85 375q-12 60 -21 109q-4 21 -7.5 41.5t-6.5 37.5t-4.5 29t-1.5 16q0 29 20 49t49 20q28 0 48.5 -20t20.5 -49q0 -4 -2 -16t-5 -29t-6.5 -37.5t-7.5 -41.5q-9 -49 -20 -109h-56z" />
    <glyph glyph-name="parenleft" unicode="(" horiz-adv-x="297" 
d="M199 -199q-36 41 -65.5 92.5t-50 109t-31.5 119t-11 121.5t11 121.5t31.5 119t50 109t65.5 92.5l80 -60q-25 -46 -44 -90t-31.5 -90.5t-19 -96t-6.5 -105.5t6.5 -105.5t19 -95.5t31.5 -90t44 -89z" />
    <glyph glyph-name="parenright" unicode=")" horiz-adv-x="297" 
d="M17 -137q26 45 45 89t32 90t19 95.5t6 105.5t-6 105.5t-19 96t-32 90.5t-45 90l80 60q37 -41 66.5 -92.5t50.5 -109t32 -119t11 -121.5t-11 -121.5t-32 -119t-50.5 -109t-66.5 -92.5z" />
    <glyph glyph-name="asterisk" unicode="*" horiz-adv-x="351" 
d="M144 366l5 110l-93 -59l-31 54l97 50l-97 50l31 55l93 -59l-5 110h63l-5 -110l92 59l32 -55l-97 -50l97 -50l-32 -54l-92 59l5 -110h-63z" />
    <glyph glyph-name="plus" unicode="+" horiz-adv-x="504" 
d="M296 298v-203h-87v203h-180v79h180v195h87v-195h179v-79h-179z" />
    <glyph glyph-name="comma" unicode="," horiz-adv-x="256" 
d="M215 49q0 -57 -28.5 -105t-74.5 -81l-55 45q12 6 24.5 16.5t23 23.5t18.5 27t11 27q-2 -1 -8 -2t-11 -1q-29 0 -48.5 20t-19.5 52q0 33 23 56.5t55 23.5q18 0 34 -7t28.5 -20t20 -32t7.5 -43z" />
    <glyph glyph-name="hyphen" unicode="-" horiz-adv-x="300" 
d="M30 188v108h240v-108h-240z" />
    <glyph glyph-name="period" unicode="." horiz-adv-x="256" 
d="M128 -11q-33 0 -57 24t-24 57t24 57t57 24t57 -24t24 -57t-24 -57t-57 -24z" />
    <glyph glyph-name="slash" unicode="/" horiz-adv-x="329" 
d="M0 -20l237 707h92l-237 -707h-92z" />
    <glyph glyph-name="zero" unicode="0" horiz-adv-x="620" 
d="M310 -12q-72 0 -124 29.5t-85.5 78.5t-50 110.5t-16.5 126.5q0 64 16.5 126t50 110.5t85.5 78t124 29.5q71 0 123 -29.5t86 -78t50.5 -110.5t16.5 -126q0 -65 -16.5 -126.5t-50.5 -110.5t-86 -78.5t-123 -29.5zM310 114q36 0 60.5 17t40.5 46.5t23 69.5t7 86t-7 86
t-23 69t-40.5 46t-60.5 17t-61 -17t-41 -46t-23 -69t-7 -86t7 -86t23 -69.5t41 -46.5t61 -17z" />
    <glyph glyph-name="one" unicode="1" horiz-adv-x="411" 
d="M203 0v484l-111 -113l-81 85l210 211h124v-667h-142z" />
    <glyph glyph-name="two" unicode="2" horiz-adv-x="600" 
d="M47 0v111q102 76 170 129t108.5 92.5t57.5 70t17 61.5q0 22 -9 38t-24 27t-34.5 16.5t-40.5 5.5q-57 0 -101 -21t-78 -56l-81 94q49 57 118 83t139 26q53 0 99.5 -14.5t81 -42t54.5 -67t20 -89.5q0 -43 -17.5 -83.5t-51 -81.5t-83.5 -84t-115 -90h272v-125h-502z" />
    <glyph glyph-name="three" unicode="3" horiz-adv-x="587" 
d="M283 -12q-93 0 -159.5 31t-103.5 76l74 95q35 -36 85 -56t99 -20q61 0 93.5 23.5t32.5 61.5q0 40 -32 58.5t-102 18.5h-23.5t-24.5 -0.5t-21.5 -1t-13.5 -0.5v128q4 0 14.5 -0.5t22.5 -0.5h24.5h21.5q56 0 89.5 17t33.5 54q0 40 -35.5 59.5t-88.5 19.5q-97 0 -169 -69
l-71 89q41 46 104 76t151 30q58 0 105 -12.5t79.5 -36t50 -57t17.5 -75.5q0 -32 -12.5 -57.5t-33 -45t-46.5 -32t-54 -17.5q25 -3 53 -14t50.5 -31t37.5 -49t15 -66q0 -43 -18.5 -79t-53 -62t-83 -40.5t-108.5 -14.5z" />
    <glyph glyph-name="four" unicode="4" horiz-adv-x="597" 
d="M344 0v138h-319v112l265 417h196v-404h86v-125h-86v-138h-142zM344 541l-180 -278h180v278z" />
    <glyph glyph-name="five" unicode="5" horiz-adv-x="608" 
d="M306 -12q-88 0 -151 26.5t-106 73.5l79 99q34 -35 79 -54t98 -19q60 0 92 29t32 70q0 45 -31.5 72t-88.5 27q-42 0 -76 -12.5t-64 -41.5l-99 26v383h458v-125h-316v-163q24 24 62.5 40t84.5 16q42 0 81 -15t68.5 -42.5t47 -67.5t17.5 -91q0 -53 -19 -96t-54 -73
t-84.5 -46t-109.5 -16z" />
    <glyph glyph-name="six" unicode="6" horiz-adv-x="608" 
d="M322 -12q-76 0 -130.5 27.5t-89.5 74t-51.5 109t-16.5 133.5q0 76 21 139t60.5 109t97.5 71.5t132 25.5q61 0 111 -19t86 -50l-64 -109q-27 26 -57.5 39t-75.5 13q-37 0 -67.5 -14.5t-52.5 -40t-34.5 -60t-12.5 -74.5q0 -9 1 -14q12 17 29.5 32.5t40 27.5t48.5 19t53 7
q45 0 86 -14t72.5 -41.5t50 -68t18.5 -93.5q0 -49 -18.5 -91t-52 -72.5t-80.5 -48t-104 -17.5zM314 114q29 0 51 8.5t37 22.5t23 31.5t8 35.5q0 26 -10.5 45t-27.5 31t-39.5 18t-46.5 6q-38 0 -72 -16.5t-58 -46.5q2 -24 10.5 -48t24.5 -43.5t40.5 -31.5t59.5 -12z" />
    <glyph glyph-name="seven" unicode="7" horiz-adv-x="545" 
d="M121 0l239 542h-336v125h501v-99l-248 -568h-156z" />
    <glyph glyph-name="eight" unicode="8" horiz-adv-x="606" 
d="M303 -12q-53 0 -101 11.5t-85.5 34.5t-59.5 57.5t-22 81.5q0 30 11 57t30.5 48.5t45.5 38t56 27.5q-28 10 -52 24t-42 33t-28 44t-10 56q0 47 22.5 80.5t59.5 54.5t82.5 31t92.5 10q46 0 92 -10t82.5 -31t59.5 -54.5t23 -80.5q0 -31 -10.5 -56t-28.5 -44t-42 -33t-52 -24
q30 -11 56 -27.5t45.5 -38t31 -48.5t11.5 -57q0 -47 -22 -81.5t-59.5 -57.5t-86 -34.5t-100.5 -11.5zM303 400q15 2 34.5 7.5t37 15.5t29 23.5t11.5 32.5q0 36 -31.5 56t-80.5 20q-50 0 -81.5 -20t-31.5 -56q0 -19 12 -32.5t29 -23.5t37 -15.5t35 -7.5zM303 110q25 0 48 6
t39.5 16.5t26.5 25.5t10 33q0 21 -13.5 36.5t-33 26.5t-41 17.5t-36.5 8.5q-16 -2 -37 -8.5t-40.5 -17.5t-33 -26.5t-13.5 -36.5q0 -37 35.5 -59t88.5 -22z" />
    <glyph glyph-name="nine" unicode="9" horiz-adv-x="608" 
d="M263 -11q-61 0 -111 18.5t-85 50.5l63 109q27 -26 57.5 -39t75.5 -13q41 0 72.5 16t52.5 42t31.5 60t10.5 70v15q-12 -17 -30 -32.5t-40.5 -27.5t-48.5 -19t-53 -7q-45 0 -86.5 14t-73 41.5t-50 68t-18.5 93.5q0 49 18.5 90.5t52.5 72.5t81 48.5t104 17.5q76 0 130 -27.5
t89 -74.5t51.5 -109.5t16.5 -133.5q0 -75 -20.5 -138.5t-60.5 -109t-97.5 -71t-131.5 -25.5zM298 354q38 0 72.5 16.5t58.5 45.5q-2 24 -10.5 48t-24.5 43.5t-41 32t-60 12.5q-29 0 -51 -9t-37 -23t-22.5 -31.5t-7.5 -34.5q0 -26 10.5 -45t27.5 -31t39.5 -18t45.5 -6z" />
    <glyph glyph-name="colon" unicode=":" horiz-adv-x="251" 
d="M128 328q-33 0 -57 24t-24 57t24 57t57 24t57 -24t24 -57t-24 -57t-57 -24zM128 -11q-33 0 -57 24t-24 57t24 57t57 24t57 -24t24 -57t-24 -57t-57 -24z" />
    <glyph glyph-name="semicolon" unicode=";" horiz-adv-x="256" 
d="M128 328q-17 0 -31.5 6.5t-25.5 18t-17.5 26t-6.5 30.5q0 33 24 57t57 24t57 -24t24 -57q0 -16 -6.5 -30.5t-17.5 -26t-26 -18t-31 -6.5zM215 51q0 -57 -28.5 -105t-74.5 -81l-55 45q12 7 24.5 17.5t23 23.5t18.5 27t11 27q-2 -1 -8 -2.5t-11 -1.5q-29 0 -48.5 20.5
t-19.5 52.5q0 33 23 56t55 23q18 0 34 -7t28.5 -20t20 -32t7.5 -43z" />
    <glyph glyph-name="less" unicode="&#x3c;" horiz-adv-x="504" 
d="M29 289v91l446 200v-94l-355 -152l355 -150v-94z" />
    <glyph glyph-name="equal" unicode="=" horiz-adv-x="504" 
d="M29 388v80h446v-80h-446zM29 201v78h446v-78h-446z" />
    <glyph glyph-name="greater" unicode="&#x3e;" horiz-adv-x="504" 
d="M29 90v94l355 150l-355 152v94l446 -200v-91z" />
    <glyph glyph-name="question" unicode="?" horiz-adv-x="456" 
d="M178 204q-33 36 -33 88q0 30 11 51.5t27 38.5t35 30t35 25.5t27 26t11 30.5q0 23 -18 40t-60 17q-38 0 -69 -17t-54 -45l-81 91q40 47 97 72t122 25q48 0 86.5 -11.5t65.5 -32.5t41.5 -50t14.5 -64q0 -37 -12.5 -63t-31 -45.5t-40 -35t-40 -30t-31 -30.5t-12.5 -37
q0 -12 5 -23.5t13 -18.5zM226 -11q-33 0 -57 24t-24 57t24 57t57 24t57 -24t24 -57t-24 -57t-57 -24z" />
    <glyph glyph-name="at" unicode="@" horiz-adv-x="783" 
d="M352 -70q-68 0 -126 24t-100.5 66.5t-66.5 100t-24 123.5q0 80 33 151.5t87.5 125.5t126.5 85.5t150 31.5q72 0 130 -24.5t99 -66.5t63.5 -97.5t22.5 -117.5q0 -63 -18.5 -109.5t-47.5 -77t-64 -45.5t-68 -15q-45 0 -68.5 22.5t-28.5 51.5l-1 6q-26 -37 -64.5 -58.5
t-79.5 -21.5q-36 0 -65 12.5t-49 35t-30.5 53.5t-10.5 67q0 50 19 94.5t50.5 78t72 53t84.5 19.5q45 0 77 -19t48 -48l11 53h113l-51 -244q-1 -5 -2 -12t-1 -12q0 -23 10.5 -34t26.5 -11q15 0 31.5 9t30.5 28.5t23 50t9 73.5q0 59 -19.5 108t-55.5 84.5t-87 55t-114 19.5
q-71 0 -135 -29t-113 -77.5t-77.5 -112.5t-28.5 -134q0 -59 21.5 -109.5t59 -88t89 -59t112.5 -21.5q51 0 96.5 14.5t86.5 40.5l21 -30q-47 -30 -99.5 -46.5t-108.5 -16.5zM351 175q40 0 67 21t44 44l25 117q-8 17 -28 34t-53 17q-30 0 -55.5 -12.5t-43.5 -32.5t-28.5 -46.5
t-10.5 -53.5q0 -39 22.5 -63.5t60.5 -24.5z" />
    <glyph glyph-name="A" unicode="A" horiz-adv-x="684" 
d="M526 0l-41 113h-286l-42 -113h-162l258 667h178l257 -667h-162zM342 525l-104 -287h208z" />
    <glyph glyph-name="B" unicode="B" horiz-adv-x="663" 
d="M66 0v667h351q48 0 84 -14t60 -37.5t36 -54.5t12 -64q0 -32 -9 -58t-25 -45.5t-36.5 -32t-44.5 -17.5q27 -4 50 -18.5t40.5 -36t27.5 -50t10 -59.5q0 -38 -12.5 -70.5t-37 -57t-60.5 -38.5t-84 -14h-362zM386 400q36 0 57 20t21 52t-21 52.5t-57 20.5h-178v-145h178z
M391 123q41 0 63.5 20.5t22.5 56.5q0 32 -22 55t-64 23h-183v-155h183z" />
    <glyph glyph-name="C" unicode="C" horiz-adv-x="687" 
d="M389 -12q-75 0 -140 25t-112.5 70.5t-75 109t-27.5 140.5t27.5 140.5t75 109t112.5 70.5t140 25q55 0 99 -14t78 -36.5t59 -52t43 -60.5l-122 -60q-21 41 -63 69t-94 28q-45 0 -83.5 -16.5t-66.5 -46t-43.5 -69.5t-15.5 -87t15.5 -87.5t43.5 -69.5t66.5 -45.5t83.5 -16.5
q52 0 94 27.5t63 69.5l122 -59q-18 -31 -43 -60.5t-59 -52.5t-78 -37t-99 -14z" />
    <glyph glyph-name="D" unicode="D" horiz-adv-x="718" 
d="M66 0v667h263q78 0 143.5 -24t112 -67.5t72.5 -105.5t26 -137t-26 -136.5t-72.5 -105t-112 -67.5t-143.5 -24h-263zM329 125q49 0 88 16.5t66 45t41 66.5t14 80q0 44 -13.5 82.5t-39.5 66.5t-65.5 44t-90.5 16h-121v-417h121z" />
    <glyph glyph-name="E" unicode="E" horiz-adv-x="583" 
d="M66 0v667h472v-125h-330v-141h323v-125h-323v-151h330v-125h-472z" />
    <glyph glyph-name="F" unicode="F" horiz-adv-x="571" 
d="M66 0v667h472v-125h-330v-141h323v-125h-323v-276h-142z" />
    <glyph glyph-name="G" unicode="G" horiz-adv-x="720" 
d="M389 -13q-73 0 -137.5 24.5t-113 69.5t-76.5 109t-28 143t28 143t76.5 109t113 69t137.5 24q52 0 94.5 -12t76.5 -32.5t60 -47.5t45 -57l-118 -64q-23 35 -63.5 61t-94.5 26q-45 0 -83.5 -16.5t-66.5 -46t-43.5 -69.5t-15.5 -87t15.5 -87.5t43.5 -69.5t66.5 -45.5
t83.5 -16.5t83.5 16t58.5 35v80h-176v124h318v-256q-51 -57 -122 -91.5t-162 -34.5z" />
    <glyph glyph-name="H" unicode="H" horiz-adv-x="731" 
d="M523 0v280h-315v-280h-142v667h142v-262h315v262h143v-667h-143z" />
    <glyph glyph-name="I" unicode="I" horiz-adv-x="274" 
d="M66 0v667h142v-667h-142z" />
    <glyph glyph-name="J" unicode="J" horiz-adv-x="486" 
d="M185 -12q-51 0 -97 15t-82 50l62 109q20 -19 45.5 -33.5t60.5 -14.5q48 0 76 29t28 78v446h142v-448q0 -59 -17.5 -102.5t-48.5 -72t-74.5 -42.5t-94.5 -14z" />
    <glyph glyph-name="K" unicode="K" horiz-adv-x="636" 
d="M462 0l-202 267l-52 -62v-205h-142v667h142v-298l236 298h175l-265 -313l283 -354h-175z" />
    <glyph glyph-name="L" unicode="L" horiz-adv-x="523" 
d="M66 0v667h142v-542h282v-125h-424z" />
    <glyph glyph-name="M" unicode="M" horiz-adv-x="855" 
d="M646 0v467l-188 -467h-62l-188 467v-467h-142v667h199l162 -403l162 403h200v-667h-143z" />
    <glyph glyph-name="N" unicode="N" horiz-adv-x="729" 
d="M526 0l-318 435v-435h-142v667h146l309 -419v419h142v-667h-137z" />
    <glyph glyph-name="O" unicode="O" horiz-adv-x="765" 
d="M382 -12q-75 0 -139 25.5t-110.5 71.5t-72.5 109.5t-26 138.5t26 138.5t72.5 109.5t110.5 71.5t139 25.5q76 0 140 -25.5t110.5 -71.5t72.5 -109.5t26 -138.5t-26 -138.5t-72.5 -109.5t-110.5 -71.5t-140 -25.5zM382 114q46 0 83.5 17t64 46t41 69t14.5 87t-14.5 87
t-41 69.5t-64 46t-83.5 16.5t-83.5 -16.5t-63.5 -46t-40.5 -69.5t-14.5 -87t14.5 -87t40.5 -69t63.5 -46t83.5 -17z" />
    <glyph glyph-name="P" unicode="P" horiz-adv-x="624" 
d="M66 0v667h312q54 0 96 -17t70.5 -46.5t43 -68.5t14.5 -83t-15 -83t-43.5 -68t-70 -46.5t-95.5 -17.5h-170v-237h-142zM359 362q42 0 70 24t28 66t-28 66t-70 24h-151v-180h151z" />
    <glyph glyph-name="Q" unicode="Q" horiz-adv-x="765" 
d="M382 -12q-75 0 -139 25.5t-110.5 71.5t-72.5 109.5t-26 138.5t26 138.5t72.5 109.5t110.5 71.5t139 25.5q76 0 140 -25.5t110.5 -71.5t72.5 -109.5t26 -138.5q0 -71 -22.5 -131t-64.5 -105l49 -57l-99 -81l-54 62q-35 -16 -74.5 -24.5t-83.5 -8.5zM382 114q35 0 70 11
l-73 86l98 81l74 -87q34 56 34 128q0 47 -14.5 87t-41 69.5t-64 46t-83.5 16.5t-83.5 -16.5t-63.5 -46t-40.5 -69.5t-14.5 -87t14.5 -87t40.5 -69t63.5 -46t83.5 -17z" />
    <glyph glyph-name="R" unicode="R" horiz-adv-x="643" 
d="M443 0l-131 237h-104v-237h-142v667h312q52 0 93.5 -16t70.5 -45t44.5 -68.5t15.5 -85.5q0 -44 -12.5 -78t-33.5 -58.5t-47 -40t-53 -21.5l150 -254h-163zM357 362q43 0 71.5 24t28.5 66t-28.5 66t-71.5 24h-149v-180h149z" />
    <glyph glyph-name="S" unicode="S" horiz-adv-x="600" 
d="M303 -12q-97 0 -166 29t-116 77l77 108q35 -37 89 -63.5t123 -26.5q59 0 87.5 22.5t28.5 51.5t-28.5 44.5t-71 26.5t-92.5 23t-92.5 34t-71 59.5t-28.5 100.5q0 42 17.5 78.5t50 64.5t79.5 44t106 16q159 0 260 -93l-79 -104q-41 38 -92 55.5t-102 17.5
q-46 0 -70.5 -18.5t-24.5 -48.5q0 -26 28.5 -40.5t71 -25t92 -23t92 -35t71 -60.5t28.5 -100q0 -46 -16.5 -85t-49.5 -67.5t-83.5 -45t-117.5 -16.5z" />
    <glyph glyph-name="T" unicode="T" horiz-adv-x="582" 
d="M220 0v542h-195v125h532v-125h-194v-542h-143z" />
    <glyph glyph-name="U" unicode="U" horiz-adv-x="733" 
d="M367 -12q-76 0 -132.5 20.5t-94 57t-56 87.5t-18.5 113v401h144v-396q0 -70 39.5 -113.5t117.5 -43.5t117 43.5t39 113.5v396h145v-400q0 -62 -18.5 -113.5t-56 -88.5t-94 -57t-132.5 -20z" />
    <glyph glyph-name="V" unicode="V" horiz-adv-x="684" 
d="M253 0l-258 667h162l185 -513l184 513h162l-257 -667h-178z" />
    <glyph glyph-name="W" unicode="W" horiz-adv-x="918" 
d="M576 0l-117 458l-116 -458h-151l-191 667h159l117 -482l127 482h111l126 -482l116 482h160l-190 -667h-151z" />
    <glyph glyph-name="X" unicode="X" horiz-adv-x="668" 
d="M501 0l-167 244l-168 -244h-169l242 342l-227 325h169l153 -228l151 228h171l-227 -324l242 -343h-170z" />
    <glyph glyph-name="Y" unicode="Y" horiz-adv-x="645" 
d="M252 0v273l-257 394h162l166 -268l164 268h162l-255 -394v-273h-142z" />
    <glyph glyph-name="Z" unicode="Z" horiz-adv-x="592" 
d="M42 0v115l315 427h-315v125h501v-114l-315 -428h322v-125h-508z" />
    <glyph glyph-name="bracketleft" unicode="[" horiz-adv-x="280" 
d="M47 -190v868h216v-85h-125v-698h125v-85h-216z" />
    <glyph glyph-name="backslash" unicode="\" horiz-adv-x="329" 
d="M0 687h92l237 -707h-92z" />
    <glyph glyph-name="bracketright" unicode="]" horiz-adv-x="280" 
d="M17 -190v85h125v698h-125v85h216v-868h-216z" />
    <glyph glyph-name="asciicircum" unicode="^" horiz-adv-x="441" 
d="M328 333l-108 247l-107 -247h-94l156 334h93l154 -334h-94z" />
    <glyph glyph-name="underscore" unicode="_" horiz-adv-x="564" 
d="M-3 -125v85h570v-85h-570z" />
    <glyph glyph-name="grave" unicode="`" horiz-adv-x="251" 
d="M162 556l-162 144h116l135 -144h-89z" />
    <glyph glyph-name="a" unicode="a" horiz-adv-x="543" 
d="M353 0v50q-25 -29 -65 -45.5t-88 -16.5q-29 0 -59 10t-54 29.5t-39.5 49.5t-15.5 71q0 42 15.5 72t39.5 48.5t54 27t59 8.5q48 0 88.5 -15t64.5 -44v65q0 37 -29 59t-77 22q-80 0 -141 -57l-48 85q45 39 99.5 57.5t111.5 18.5q41 0 79 -9t67.5 -30.5t47 -56.5t17.5 -87
v-312h-127zM251 74q31 0 58.5 10.5t43.5 31.5v60q-16 21 -43.5 31.5t-58.5 10.5q-38 0 -64.5 -19t-26.5 -54q0 -34 26.5 -52.5t64.5 -18.5z" />
    <glyph glyph-name="b" unicode="b" horiz-adv-x="586" 
d="M190 155q16 -23 47 -38.5t62 -15.5q56 0 89.5 38.5t33.5 101.5t-33.5 102t-89.5 39q-31 0 -62 -16t-47 -40v-171zM63 0v667h127v-246q29 37 67.5 55.5t81.5 18.5q46 0 85.5 -17.5t68 -50.5t44.5 -80t16 -106q0 -60 -16.5 -107.5t-45 -79.5t-67.5 -49t-85 -17
q-44 0 -82 19t-67 55v-62h-127z" />
    <glyph glyph-name="c" unicode="c" horiz-adv-x="499" 
d="M288 -12q-56 0 -103 18.5t-81 52.5t-53 80.5t-19 102.5q0 55 19 101.5t53 80.5t81 52.5t103 18.5q74 0 120.5 -27t70.5 -60l-83 -78q-35 52 -102 52q-58 0 -94.5 -38.5t-36.5 -101.5t36.5 -102t94.5 -39q33 0 59 14t43 38l83 -77q-24 -34 -70.5 -61t-120.5 -27z" />
    <glyph glyph-name="d" unicode="d" horiz-adv-x="586" 
d="M395 0v62q-29 -36 -67 -55t-82 -19q-46 0 -85 17t-67.5 49t-45 79.5t-16.5 107.5q0 59 16 106t44.5 80t68 50.5t85.5 17.5q43 0 81.5 -18.5t67.5 -55.5v246h128v-667h-128zM285 101q32 0 63 15.5t47 39.5v171q-16 24 -47 39.5t-63 15.5q-54 0 -88 -39t-34 -102
q0 -31 9 -57t25 -44.5t38.5 -28.5t49.5 -10z" />
    <glyph glyph-name="e" unicode="e" horiz-adv-x="553" 
d="M290 -12q-55 0 -102.5 18t-82 51t-54 80t-19.5 105q0 52 18.5 98.5t51.5 80.5t79 54t101 20q54 0 98.5 -19.5t76.5 -54.5t49.5 -84t17.5 -108v-28h-359q6 -46 41.5 -79t97.5 -33q15 0 33 3.5t35.5 9.5t33 15t27.5 20l56 -82q-36 -33 -89 -50t-110 -17zM401 287
q-1 17 -8 36t-21 34.5t-36.5 26t-53.5 10.5q-30 0 -51.5 -10t-35.5 -25.5t-22 -34.5t-10 -37h238z" />
    <glyph glyph-name="f" unicode="f" horiz-adv-x="327" 
d="M91 0v372h-80v111h80v26q0 78 45 123t118 45q35 0 69 -10t57 -35l-48 -75q-20 20 -53 20q-26 0 -43 -17t-17 -51v-26h98v-111h-98v-372h-128z" />
    <glyph glyph-name="g" unicode="g" horiz-adv-x="585" 
d="M261 -196q-63 0 -112.5 16t-95.5 56l57 92q29 -32 67 -46t84 -14q23 0 46.5 5.5t43 19.5t31.5 37.5t12 59.5v49q-29 -36 -66.5 -56t-82.5 -20t-84 16t-67.5 47t-45 77t-16.5 106q0 59 16 105t44.5 77.5t67.5 47.5t85 16q44 0 82 -18.5t67 -55.5v62h128v-450
q0 -69 -24 -113.5t-62 -70t-84 -35.5t-91 -10zM285 116q32 0 62.5 16t46.5 39v156q-16 24 -46.5 39.5t-62.5 15.5q-54 0 -88 -35t-34 -98t34 -98t88 -35z" />
    <glyph glyph-name="h" unicode="h" horiz-adv-x="580" 
d="M390 0v294q0 50 -24.5 69t-65.5 19q-37 0 -65 -17.5t-45 -39.5v-325h-127v667h127v-247q23 28 66.5 51.5t103.5 23.5q80 0 118.5 -40.5t38.5 -111.5v-343h-127z" />
    <glyph glyph-name="i" unicode="i" horiz-adv-x="253" 
d="M126 535q-31 0 -53.5 22t-22.5 54t22.5 53.5t53.5 21.5q32 0 54 -21.5t22 -53.5t-22 -54t-54 -22zM63 0v483h127v-483h-127z" />
    <glyph glyph-name="j" unicode="j" horiz-adv-x="253" 
d="M126 535q-31 0 -53.5 22t-22.5 54t22.5 53.5t53.5 21.5q32 0 54 -21.5t22 -53.5t-22 -54t-54 -22zM18 -196q-23 0 -40 2t-30.5 6t-25.5 10.5t-25 15.5l35 95q14 -12 28.5 -18.5t36.5 -6.5q29 0 47.5 19t18.5 60v496h127v-496q0 -83 -42.5 -133t-129.5 -50z" />
    <glyph glyph-name="k" unicode="k" horiz-adv-x="535" 
d="M376 0l-128 186l-58 -62v-124h-127v667h127v-399l183 215h156l-191 -219l197 -264h-159z" />
    <glyph glyph-name="l" unicode="l" horiz-adv-x="253" 
d="M63 0v667h127v-667h-127z" />
    <glyph glyph-name="m" unicode="m" horiz-adv-x="852" 
d="M662 0v305q0 34 -16.5 55.5t-55.5 21.5q-34 0 -60 -18t-40 -38v-326h-128v305q0 34 -16.5 55.5t-55.5 21.5q-33 0 -59.5 -18.5t-40.5 -38.5v-325h-127v483h127v-63q7 11 22.5 24t36.5 24.5t46 19t53 7.5q54 0 87 -23t47 -65q10 16 27 32t38.5 28.5t47 20t53.5 7.5
q67 0 104.5 -35.5t37.5 -110.5v-349h-128z" />
    <glyph glyph-name="n" unicode="n" 
d="M389 0v292q0 51 -24 70.5t-65 19.5q-38 0 -66 -17.5t-44 -39.5v-325h-127v483h127v-63q23 28 66 51.5t103 23.5q80 0 118.5 -41.5t38.5 -112.5v-341h-127z" />
    <glyph glyph-name="o" unicode="o" horiz-adv-x="574" 
d="M287 -12q-60 0 -107 20.5t-80 55t-50.5 80.5t-17.5 98q0 51 17.5 97t50.5 80.5t80 55t107 20.5t107.5 -20.5t80.5 -55t50.5 -80.5t17.5 -97q0 -52 -17.5 -98t-50.5 -80.5t-80.5 -55t-107.5 -20.5zM287 101q30 0 53 11.5t38.5 30.5t24 44.5t8.5 54.5q0 28 -8.5 53.5
t-24 44.5t-38.5 30.5t-53 11.5t-52.5 -11.5t-38.5 -30.5t-24 -44.5t-8 -53.5q0 -29 8 -54.5t24 -44.5t38.5 -30.5t52.5 -11.5z" />
    <glyph glyph-name="p" unicode="p" horiz-adv-x="583" 
d="M339 -12q-43 0 -81.5 18t-67.5 56v-246h-127v667h127v-61q28 35 66 54t83 19q46 0 85.5 -17t68 -49t44.5 -79.5t16 -107.5t-16 -107.5t-44.5 -80t-68 -49.5t-85.5 -17zM299 101q55 0 88.5 39t33.5 102t-33.5 101.5t-88.5 38.5q-31 0 -62 -16t-47 -39v-171q16 -23 47 -39
t62 -16z" />
    <glyph glyph-name="q" unicode="q" horiz-adv-x="583" 
d="M284 101q31 0 62 16t47 39v171q-16 23 -47 39t-62 16q-27 0 -49.5 -10t-38.5 -28.5t-25 -44.5t-9 -57q0 -63 34 -102t88 -39zM244 -12q-47 0 -86 17t-67.5 49.5t-44.5 80t-16 107.5t16 107.5t44.5 79.5t67.5 49t86 17q45 0 83 -19t66 -54v61h128v-667h-128v246
q-29 -38 -67.5 -56t-81.5 -18z" />
    <glyph glyph-name="r" unicode="r" horiz-adv-x="360" 
d="M63 0v483h127v-66q26 32 67.5 55t86.5 23v-124q-14 3 -35 3q-16 0 -33.5 -4t-34 -11.5t-30 -17.5t-21.5 -22v-319h-127z" />
    <glyph glyph-name="s" unicode="s" horiz-adv-x="477" 
d="M237 -12q-63 0 -120.5 20t-95.5 55l55 89q13 -12 32.5 -24t42 -21.5t46 -15t46.5 -5.5q42 0 61.5 14.5t19.5 37.5q0 20 -21.5 30t-53 16.5t-69 14.5t-69 24t-53 44t-21.5 76q0 30 13 57.5t38.5 48.5t62 33.5t84.5 12.5q62 0 110.5 -18.5t84.5 -47.5l-51 -87
q-22 23 -60 39.5t-83 16.5q-35 0 -55.5 -14t-20.5 -34q0 -18 21 -27t53 -15.5t69 -15t69 -25.5t53 -46t21 -78q0 -33 -14 -61.5t-40.5 -49t-65.5 -32.5t-89 -12z" />
    <glyph glyph-name="t" unicode="t" horiz-adv-x="338" 
d="M225 -12q-67 0 -102 33.5t-35 98.5v252h-80v111h80v132h128v-132h98v-111h-98v-218q0 -23 11.5 -38t32.5 -15q14 0 26.5 4.5t17.5 9.5l27 -96q-14 -13 -40 -22t-66 -9z" />
    <glyph glyph-name="u" unicode="u" 
d="M389 0v61q-25 -28 -67.5 -50.5t-102.5 -22.5q-80 0 -118 40.5t-38 111.5v343h127v-293q0 -50 24 -69.5t65 -19.5q37 0 65 17t45 38v327h127v-483h-127z" />
    <glyph glyph-name="v" unicode="v" horiz-adv-x="513" 
d="M188 0l-194 483h136l126 -336l126 336h137l-194 -483h-137z" />
    <glyph glyph-name="w" unicode="w" horiz-adv-x="769" 
d="M487 0l-102 329l-102 -329h-136l-147 483h132l90 -325l106 325h113l106 -325l90 325h132l-147 -483h-135z" />
    <glyph glyph-name="x" unicode="x" horiz-adv-x="504" 
d="M362 0l-110 163l-111 -163h-141l171 248l-161 235h142l100 -149l99 149h142l-162 -235l173 -248h-142z" />
    <glyph glyph-name="y" unicode="y" horiz-adv-x="513" 
d="M65 -75q8 -4 19.5 -6t20.5 -2q25 0 41.5 7.5t25.5 27.5l18 41l-196 490h136l126 -336l126 336h137l-227 -562q-27 -68 -74 -92t-109 -25q-11 0 -31 2t-32 5z" />
    <glyph glyph-name="z" unicode="z" horiz-adv-x="479" 
d="M42 0v95l218 277h-218v111h390v-92l-221 -280h225v-111h-394z" />
    <glyph glyph-name="braceleft" unicode="{" horiz-adv-x="288" 
d="M210 -190q-30 0 -58 11t-49.5 31.5t-34.5 50t-13 66.5v172q0 28 -13 47.5t-39 19.5v72q26 0 39 19.5t13 47.5v171q0 37 13 66.5t34.5 50.5t49.5 32t58 11h61v-85h-61q-26 0 -44 -20t-18 -54v-185q0 -32 -10.5 -55.5t-35.5 -34.5q25 -11 35.5 -34.5t10.5 -55.5v-184
q0 -34 18 -54.5t44 -20.5h61v-85h-61z" />
    <glyph glyph-name="bar" unicode="|" horiz-adv-x="216" 
d="M66 -20v707h85v-707h-85z" />
    <glyph glyph-name="braceright" unicode="}" horiz-adv-x="288" 
d="M17 -105h61q26 0 44.5 20.5t18.5 54.5v184q0 32 10.5 55.5t35.5 34.5q-25 11 -35.5 34.5t-10.5 55.5v185q0 34 -18.5 54t-44.5 20h-61v85h61q30 0 58 -11t49.5 -32t34.5 -50.5t13 -66.5v-171q0 -28 13 -47.5t39 -19.5v-72q-26 0 -39 -19.5t-13 -47.5v-172
q0 -37 -13 -66.5t-34.5 -50t-49.5 -31.5t-58 -11h-61v85z" />
    <glyph glyph-name="asciitilde" unicode="~" horiz-adv-x="510" 
d="M484 657q-4 -45 -11.5 -89t-24 -78.5t-44 -56t-69.5 -21.5q-33 0 -53 13t-33 32.5t-20.5 42.5t-14.5 42.5t-15.5 32.5t-23.5 13t-25.5 -15.5t-18 -40.5t-11.5 -56.5t-7 -63.5l-87 10q4 45 12 88.5t24.5 78t43.5 56t69 21.5q32 0 52.5 -13t33.5 -33t20.5 -42.5t14.5 -42.5
t15.5 -33t23.5 -13t26 15.5t18.5 40.5t11.5 57t7 65z" />
    <glyph glyph-name="nonbreakingspace" unicode="&#xa0;" horiz-adv-x="256" 
 />
    <glyph glyph-name="exclamdown" unicode="&#xa1;" horiz-adv-x="256" 
d="M71 265h113l21 -449h-154zM47 414q0 16 6.5 30.5t17 25.5t25 17.5t31.5 6.5q16 0 31 -6.5t26 -17.5t17.5 -25.5t6.5 -30.5q0 -33 -24 -57.5t-57 -24.5t-56.5 24.5t-23.5 57.5z" />
    <glyph glyph-name="cent" unicode="&#xa2;" horiz-adv-x="499" 
d="M241 -8q-47 7 -85 28.5t-66 54t-43 75t-15 92.5q0 49 15 91.5t43 75t66 54t85 28.5v74h92v-73q54 -8 90 -32t56 -52l-83 -78q-25 36 -63 46v-270q20 6 35.5 18t27.5 29l83 -77q-20 -29 -56 -53t-90 -32v-91h-92v92zM163 242q0 -48 21 -82t57 -49v261q-36 -15 -57 -48.5
t-21 -81.5z" />
    <glyph glyph-name="sterling" unicode="&#xa3;" horiz-adv-x="550" 
d="M23 350h68q-19 26 -32.5 54.5t-13.5 65.5q0 48 21 86t55.5 65t78 41.5t88.5 14.5q83 0 141.5 -29.5t90.5 -91.5l-113 -66q-13 32 -40 51.5t-62 19.5q-45 0 -75 -25.5t-30 -68.5q0 -38 16 -64t33 -53h144v-81h-113q0 -5 0.5 -9.5t0.5 -9.5q0 -35 -18.5 -64.5t-45.5 -46.5
q11 4 24.5 5.5t24.5 1.5q22 0 38 -5t30 -11.5t28.5 -11.5t33.5 -5q32 0 54 11.5t32 25.5l56 -113q-20 -21 -56 -35.5t-91 -14.5q-33 0 -56.5 7t-43.5 15t-39 15t-42 7q-26 0 -56 -10.5t-60 -27.5l-48 97q47 23 78 55t31 70q0 14 -3.5 27.5t-8.5 26.5h-120v81z" />
    <glyph glyph-name="currency" unicode="&#xa4;" horiz-adv-x="623" 
d="M311 86q-41 0 -75 9t-63 26l-73 -74l-76 74l73 73q-40 62 -40 139t40 139l-74 75l76 74l76 -76q28 16 62 25t74 9t73.5 -9t62.5 -25l76 76l76 -75l-73 -73q20 -30 30.5 -66t10.5 -74q0 -79 -42 -141l74 -71l-76 -74l-75 73q-59 -34 -137 -34zM311 200q31 0 55 10.5t40 29
t24.5 42.5t8.5 51t-8.5 51t-24.5 42t-40 28.5t-55 10.5q-30 0 -54 -10.5t-40 -28.5t-24.5 -42t-8.5 -51t8.5 -51t24.5 -42.5t40 -29t54 -10.5z" />
    <glyph glyph-name="yen" unicode="&#xa5;" horiz-adv-x="645" 
d="M252 0v115h-228v78h228v80h-228v79h176l-205 315h162l166 -268l164 268h162l-204 -315h178v-79h-229v-80h229v-78h-229v-115h-142z" />
    <glyph glyph-name="brokenbar" unicode="&#xa6;" horiz-adv-x="216" 
d="M66 -20v316h85v-316h-85zM66 371v316h85v-316h-85z" />
    <glyph glyph-name="section" unicode="&#xa7;" horiz-adv-x="484" 
d="M446 326q0 -42 -21 -75t-62 -53q36 -16 59.5 -44.5t23.5 -78.5q0 -37 -15.5 -66t-43.5 -49t-66.5 -30.5t-83.5 -10.5q-75 0 -127 23.5t-87 55.5l53 80q12 -12 29.5 -25t38.5 -23t44.5 -16.5t48.5 -6.5q39 0 63 14.5t24 43.5q0 24 -21.5 36t-53 20.5t-69 17t-69 25
t-53 43.5t-21.5 74q0 25 9 45.5t23 36.5t31.5 26.5t34.5 16.5q-48 18 -73 49.5t-25 76.5q0 31 14.5 57.5t40.5 46t62.5 30.5t80.5 11q74 0 120.5 -21t73.5 -47l-50 -75q-26 26 -63.5 40t-75.5 14q-37 0 -58.5 -14t-21.5 -40q0 -21 21 -31.5t53 -18t69 -15.5t69 -24t53 -44
t21 -75zM321 302q0 16 -7 28t-18.5 20.5t-26.5 14t-31 9.5q-46 -11 -62 -29.5t-16 -44.5q0 -18 9 -29.5t23.5 -20t33 -13.5t37.5 -9q29 13 43.5 30.5t14.5 43.5z" />
    <glyph glyph-name="dieresis" unicode="&#xa8;" horiz-adv-x="295" 
d="M321 611q0 -29 -20 -48.5t-48 -19.5t-48 19.5t-20 48.5q0 28 20 47.5t48 19.5t48 -19.5t20 -47.5zM109 611q0 -29 -19.5 -48.5t-47.5 -19.5q-29 0 -48.5 19.5t-19.5 48.5q0 28 19.5 47.5t48.5 19.5q28 0 47.5 -19.5t19.5 -47.5z" />
    <glyph glyph-name="copyright" unicode="&#xa9;" horiz-adv-x="778" 
d="M734 334q0 -71 -27 -134t-74 -110t-109.5 -74t-134.5 -27q-71 0 -134 27t-110 74t-74 110t-27 134q0 72 27 134.5t74 109.5t110 74t134 27q72 0 134.5 -27t109.5 -74t74 -109.5t27 -134.5zM698 334q0 64 -24.5 120t-66.5 98t-98 66.5t-120 24.5q-63 0 -119.5 -24.5
t-98.5 -66.5t-66.5 -98t-24.5 -120q0 -63 24.5 -119.5t66.5 -98.5t98.5 -66.5t119.5 -24.5q64 0 120 24.5t98 66.5t66.5 98.5t24.5 119.5zM543 191q-27 -32 -64.5 -50t-84.5 -18q-43 0 -81 16t-66 44.5t-44.5 67t-16.5 84.5t16.5 84.5t44.5 66.5t66 43.5t81 15.5
q47 0 84.5 -17.5t63.5 -48.5l-31 -31q-20 26 -51 41.5t-66 15.5q-33 0 -62.5 -12.5t-51.5 -35t-35 -53.5t-13 -69q0 -37 13 -68.5t35 -54.5t51.5 -36t62.5 -13q36 0 67 16t51 42z" />
    <glyph glyph-name="ordfeminine" unicode="&#xaa;" horiz-adv-x="385" 
d="M243 326v32q-14 -15 -39 -27.5t-63 -12.5q-20 0 -39.5 6.5t-35.5 19.5t-25.5 32.5t-9.5 45.5t9.5 45t25.5 31.5t35.5 18.5t39.5 6q38 0 63 -11.5t39 -26.5v40q0 25 -19 39.5t-50 14.5q-23 0 -47.5 -10.5t-44.5 -30.5l-35 60q30 26 67.5 38t75.5 12q28 0 54 -6t46 -20
t32.5 -38.5t12.5 -60.5v-197h-92zM179 375q19 0 36.5 7.5t27.5 21.5v36q-10 13 -27.5 20t-36.5 7q-23 0 -40 -11.5t-17 -33.5q0 -23 17 -35t40 -12z" />
    <glyph glyph-name="guillemotleft" unicode="&#xab;" horiz-adv-x="527" 
d="M380 63l-160 180l160 177h117l-160 -177l160 -180h-117zM190 63l-160 180l160 177h117l-160 -177l160 -180h-117z" />
    <glyph glyph-name="logicalnot" unicode="&#xac;" horiz-adv-x="515" 
d="M475 201h-81v187h-365v80h446v-267z" />
    <glyph glyph-name="uni00AD" unicode="&#xad;" horiz-adv-x="300" 
d="M30 188v108h240v-108h-240z" />
    <glyph glyph-name="registered" unicode="&#xae;" horiz-adv-x="494" 
d="M459 465q0 -44 -16.5 -82.5t-45 -67.5t-67.5 -45.5t-83 -16.5t-82.5 16.5t-67.5 45.5t-45.5 67.5t-16.5 82.5t16.5 83t45.5 67.5t67.5 45t82.5 16.5t83 -16.5t67.5 -45t45 -67.5t16.5 -83zM427 465q0 37 -14 70t-38.5 57.5t-57.5 38.5t-70 14q-38 0 -70.5 -14t-57 -38.5
t-38.5 -57.5t-14 -70t14 -70t38.5 -57.5t57 -38.5t70.5 -14q37 0 70 14t57.5 38.5t38.5 57.5t14 70zM305 343l-63 96h-42v-96h-34v243h99q31 0 55 -20t24 -54q0 -20 -7.5 -34t-18 -22.5t-21 -12t-15.5 -3.5l65 -97h-42zM309 512q0 20 -14 32t-30 12h-65v-86h65q16 0 30 11.5
t14 30.5z" />
    <glyph glyph-name="macron" unicode="&#xaf;" horiz-adv-x="363" 
d="M0 562v72h363v-72h-363z" />
    <glyph glyph-name="degree" unicode="&#xb0;" horiz-adv-x="311" 
d="M290 541q0 -28 -10.5 -52.5t-29 -42.5t-43 -28.5t-52.5 -10.5t-52.5 10.5t-43 28.5t-29 42.5t-10.5 52.5t10.5 53t29 43.5t43 29t52.5 10.5t52.5 -10.5t43 -29t29 -43.5t10.5 -53zM221 541q0 28 -19.5 47.5t-46.5 19.5q-28 0 -46.5 -19.5t-18.5 -47.5q0 -27 18.5 -46
t46.5 -19q27 0 46.5 19t19.5 46z" />
    <glyph glyph-name="plusminus" unicode="&#xb1;" horiz-adv-x="504" 
d="M296 326v-204h-87v204h-180v78h180v197h87v-197h179v-78h-179zM29 0v78h446v-78h-446z" />
    <glyph glyph-name="twosuperior" unicode="&#xb2;" horiz-adv-x="397" 
d="M46 421v70q65 45 107 76.5t66 54.5t33.5 39.5t9.5 33.5q0 28 -19.5 41.5t-48.5 13.5q-35 0 -64.5 -15.5t-44.5 -34.5l-50 61q32 35 75.5 50.5t85.5 15.5q34 0 63.5 -8t51.5 -24t34 -39.5t12 -53.5q0 -49 -42.5 -96t-129.5 -108h175v-77h-314z" />
    <glyph glyph-name="threesuperior" unicode="&#xb3;" horiz-adv-x="397" 
d="M363 532q0 -53 -45.5 -85.5t-120.5 -32.5q-58 0 -100 18t-65 45l47 63q23 -25 54.5 -37t60.5 -12q35 0 54 13t19 34q0 29 -25 39t-63 10h-27t-18 -1v76q7 -1 19.5 -1h24.5q40 0 61 9.5t21 35.5q0 23 -20.5 33.5t-52.5 10.5q-61 0 -105 -44l-45 57q26 28 65 46t95 18
q77 0 118 -30t41 -79q0 -37 -27 -61t-62 -30q15 -1 32 -7.5t31.5 -18.5t23.5 -29.5t9 -39.5z" />
    <glyph glyph-name="acute" unicode="&#xb4;" horiz-adv-x="251" 
d="M89 556h-89l134 144h117z" />
    <glyph glyph-name="mu" unicode="&#xb5;" horiz-adv-x="593" 
d="M190 -184h-127v667h127v-293q0 -49 24 -69.5t66 -20.5q36 0 64 17.5t45 38.5v327h127v-338q0 -21 11 -32.5t29 -11.5q9 0 19 2l9 -108q-11 -3 -27.5 -5t-31.5 -2q-104 0 -130 86q-21 -37 -56 -61.5t-79 -24.5q-27 0 -44.5 8.5t-25.5 19.5v-200z" />
    <glyph glyph-name="paragraph" unicode="&#xb6;" horiz-adv-x="449" 
d="M340 -100v705h-78v-705h-63v423q-36 0 -67 13.5t-54.5 37t-37 54.5t-13.5 67t13.5 67t37 54.5t54.5 37t67 13.5h204v-767h-63z" />
    <glyph glyph-name="periodcentered" unicode="&#xb7;" horiz-adv-x="256" 
d="M209 244q0 -16 -6.5 -30.5t-17.5 -25.5t-26 -17.5t-31 -6.5q-17 0 -31.5 6.5t-25.5 17.5t-17.5 25.5t-6.5 30.5q0 33 24 57t57 24t57 -24t24 -57z" />
    <glyph glyph-name="cedilla" unicode="&#xb8;" horiz-adv-x="221" 
d="M110 -196q-36 0 -65 9.5t-45 22.5l25 51q38 -29 81 -29q20 0 36 8t16 25q0 26 -29 26q-10 0 -18 -4t-14 -10l-46 26l30 82h63l-26 -62q17 10 36 10q28 0 47.5 -19t19.5 -51q0 -40 -33 -62.5t-78 -22.5z" />
    <glyph glyph-name="onesuperior" unicode="&#xb9;" horiz-adv-x="286" 
d="M129 421v277l-68 -69l-54 58l136 134h83v-400h-97z" />
    <glyph glyph-name="ordmasculine" unicode="&#xba;" horiz-adv-x="405" 
d="M202 318q-40 0 -71.5 13.5t-54 36t-34.5 52.5t-12 63t12 63t34.5 52.5t54 36t71.5 13.5t72.5 -13.5t54.5 -36t34 -52.5t12 -63t-12 -63t-34 -52.5t-54.5 -36t-72.5 -13.5zM202 392q37 0 57.5 24.5t20.5 66.5t-20.5 65.5t-57.5 23.5t-57 -23.5t-20 -65.5t20 -66.5
t57 -24.5z" />
    <glyph glyph-name="guillemotright" unicode="&#xbb;" horiz-adv-x="527" 
d="M147 63h-117l160 180l-160 177h117l160 -177zM337 63h-117l160 180l-160 177h117l160 -177z" />
    <glyph glyph-name="onequarter" unicode="&#xbc;" horiz-adv-x="833" 
d="M129 267v277l-68 -69l-54 58l136 134h83v-400h-97zM755 86v-86h-95v86h-196v65l158 249h133v-239h53v-75h-53zM660 319l-101 -158h101v158zM214 0h-76l426 667h77z" />
    <glyph glyph-name="onehalf" unicode="&#xbd;" horiz-adv-x="867" 
d="M129 267v277l-68 -69l-54 58l136 134h83v-400h-97zM515 0v70q65 45 107 76.5t66 54.5t33.5 39.5t9.5 33.5q0 28 -19.5 41.5t-48.5 13.5q-35 0 -64.5 -15.5t-44.5 -34.5l-50 61q32 35 75.5 50.5t85.5 15.5q34 0 63.5 -8t51.5 -24t34 -39.5t12 -53.5q0 -49 -42.5 -96
t-129.5 -108h175v-77h-314zM214 0h-76l426 667h77z" />
    <glyph glyph-name="threequarters" unicode="&#xbe;" horiz-adv-x="921" 
d="M843 86v-86h-95v86h-196v65l158 249h133v-239h53v-75h-53zM748 319l-101 -158h101v158zM301 0h-76l426 667h77zM363 378q0 -53 -45.5 -85.5t-120.5 -32.5q-58 0 -100 18t-65 45l47 63q23 -25 54.5 -37t60.5 -12q35 0 54 13t19 34q0 29 -25 39t-63 10h-27t-18 -1v76
q7 -1 19.5 -1h24.5q40 0 61 9.5t21 35.5q0 23 -20.5 33.5t-52.5 10.5q-61 0 -105 -44l-45 57q26 28 65 46t95 18q77 0 118 -30t41 -79q0 -37 -27 -61t-62 -30q15 -1 32 -7.5t31.5 -18.5t23.5 -29.5t9 -39.5z" />
    <glyph glyph-name="questiondown" unicode="&#xbf;" horiz-adv-x="398" 
d="M277 277q34 -34 34 -88q0 -29 -11 -51t-27 -38.5t-35.5 -30t-35.5 -26t-27 -26t-11 -30.5q0 -23 18.5 -39.5t60.5 -16.5q38 0 69 16.5t54 44.5l81 -91q-41 -47 -97.5 -71.5t-122.5 -24.5q-48 0 -86.5 11.5t-65.5 32.5t-41.5 50t-14.5 64q0 36 12.5 62.5t31 46t40.5 35
t40.5 30t31 30.5t12.5 37q0 12 -5.5 23.5t-13.5 18.5zM230 494q33 0 57 -24t24 -57t-24 -57t-57 -24t-57 24t-24 57t24 57t57 24z" />
    <glyph glyph-name="Agrave" unicode="&#xc0;" horiz-adv-x="684" 
d="M526 0l-41 113h-286l-42 -113h-162l258 667h178l257 -667h-162zM342 525l-104 -287h208zM317 723l-162 144h116l135 -144h-89z" />
    <glyph glyph-name="Aacute" unicode="&#xc1;" horiz-adv-x="684" 
d="M526 0l-41 113h-286l-42 -113h-162l258 667h178l257 -667h-162zM342 525l-104 -287h208zM368 723h-89l134 144h117z" />
    <glyph glyph-name="Acircumflex" unicode="&#xc2;" horiz-adv-x="684" 
d="M415 723l-73 89l-71 -89h-78l92 144h114l94 -144h-78zM526 0l-41 113h-286l-42 -113h-162l258 667h178l257 -667h-162zM342 525l-104 -287h208z" />
    <glyph glyph-name="Atilde" unicode="&#xc3;" horiz-adv-x="684" 
d="M526 0l-41 113h-286l-42 -113h-162l258 667h178l257 -667h-162zM342 525l-104 -287h208zM399 721q-26 0 -42 10.5t-28 23.5t-22.5 23.5t-24.5 10.5q-15 0 -25.5 -15t-10.5 -47h-67q0 64 27.5 99t80.5 35q25 0 40.5 -10.5t27.5 -23t23 -23t25 -10.5q15 0 25.5 14.5
t10.5 46.5h67q0 -64 -27 -99t-80 -35z" />
    <glyph glyph-name="Adieresis" unicode="&#xc4;" horiz-adv-x="684" 
d="M516 778q0 -29 -20 -48.5t-48 -19.5t-48 19.5t-20 48.5q0 28 20 47.5t48 19.5t48 -19.5t20 -47.5zM304 778q0 -29 -19.5 -48.5t-47.5 -19.5q-29 0 -48.5 19.5t-19.5 48.5q0 28 19.5 47.5t48.5 19.5q28 0 47.5 -19.5t19.5 -47.5zM526 0l-41 113h-286l-42 -113h-162
l258 667h178l257 -667h-162zM342 525l-104 -287h208z" />
    <glyph glyph-name="Aring" unicode="&#xc5;" horiz-adv-x="684" 
d="M526 0l-41 113h-286l-42 -113h-162l258 667h178l257 -667h-162zM342 525l-104 -287h208zM343 688q-21 0 -40.5 8t-33.5 22.5t-22.5 33.5t-8.5 41q0 21 8.5 40.5t22.5 34t33.5 23t40.5 8.5q22 0 41 -8.5t33 -23t22 -34t8 -40.5q0 -22 -8 -41t-22 -33.5t-33 -22.5t-41 -8z
M343 746q20 0 33 14t13 33q0 20 -13 33.5t-33 13.5q-19 0 -33 -13.5t-14 -33.5q0 -19 14 -33t33 -14z" />
    <glyph glyph-name="AE" unicode="&#xc6;" horiz-adv-x="968" 
d="M454 0v113h-235l-66 -113h-162l406 667h529v-125h-329v-141h322v-125h-322v-151h329v-125h-472zM454 525l-167 -287h167v287z" />
    <glyph glyph-name="Ccedilla" unicode="&#xc7;" horiz-adv-x="687" 
d="M383 -192q-36 0 -65 9.5t-45 22.5l25 51q38 -29 81 -29q20 0 36 8t16 25q0 26 -29 26q-18 0 -32 -14l-46 26l21 58q-67 7 -124 34.5t-98.5 72t-65 104.5t-23.5 131q0 77 27.5 140.5t75 109t112.5 70.5t140 25q55 0 99 -14t78 -36.5t59 -52t43 -60.5l-122 -60
q-21 41 -63 69t-94 28q-45 0 -83.5 -16.5t-66.5 -46t-43.5 -69.5t-15.5 -87t15.5 -87.5t43.5 -69.5t66.5 -45.5t83.5 -16.5q52 0 94 27.5t63 69.5l122 -59q-17 -30 -41 -58.5t-56 -51t-73 -37t-92 -16.5l-15 -36q17 10 36 10q28 0 47.5 -19t19.5 -51q0 -40 -33 -62.5
t-78 -22.5z" />
    <glyph glyph-name="Egrave" unicode="&#xc8;" horiz-adv-x="583" 
d="M66 0v667h472v-125h-330v-141h323v-125h-323v-151h330v-125h-472zM275 723l-162 144h116l135 -144h-89z" />
    <glyph glyph-name="Eacute" unicode="&#xc9;" horiz-adv-x="583" 
d="M327 723h-89l134 144h117zM66 0v667h472v-125h-330v-141h323v-125h-323v-151h330v-125h-472z" />
    <glyph glyph-name="Ecircumflex" unicode="&#xca;" horiz-adv-x="583" 
d="M374 723l-73 89l-71 -89h-78l92 144h114l94 -144h-78zM66 0v667h472v-125h-330v-141h323v-125h-323v-151h330v-125h-472z" />
    <glyph glyph-name="Edieresis" unicode="&#xcb;" horiz-adv-x="583" 
d="M476 778q0 -29 -20 -48.5t-48 -19.5t-48 19.5t-20 48.5q0 28 20 47.5t48 19.5t48 -19.5t20 -47.5zM264 778q0 -29 -19.5 -48.5t-47.5 -19.5q-29 0 -48.5 19.5t-19.5 48.5q0 28 19.5 47.5t48.5 19.5q28 0 47.5 -19.5t19.5 -47.5zM66 0v667h472v-125h-330v-141h323v-125
h-323v-151h330v-125h-472z" />
    <glyph glyph-name="Igrave" unicode="&#xcc;" horiz-adv-x="274" 
d="M66 0v667h142v-667h-142zM113 723l-162 144h116l135 -144h-89z" />
    <glyph glyph-name="Iacute" unicode="&#xcd;" horiz-adv-x="274" 
d="M66 0v667h142v-667h-142zM164 723h-89l134 144h117z" />
    <glyph glyph-name="Icircumflex" unicode="&#xce;" horiz-adv-x="274" 
d="M210 723l-73 89l-71 -89h-78l92 144h114l94 -144h-78zM66 0v667h142v-667h-142z" />
    <glyph glyph-name="Idieresis" unicode="&#xcf;" horiz-adv-x="274" 
d="M312 778q0 -29 -20 -48.5t-48 -19.5t-48 19.5t-20 48.5q0 28 20 47.5t48 19.5t48 -19.5t20 -47.5zM100 778q0 -29 -19.5 -48.5t-47.5 -19.5q-29 0 -48.5 19.5t-19.5 48.5q0 28 19.5 47.5t48.5 19.5q28 0 47.5 -19.5t19.5 -47.5zM66 0v667h142v-667h-142z" />
    <glyph glyph-name="Eth" unicode="&#xd0;" horiz-adv-x="742" 
d="M91 0v277h-83v105h83v285h263q78 0 143.5 -24t112 -67.5t72.5 -105.5t26 -137t-26 -136.5t-72.5 -105t-112 -67.5t-143.5 -24h-263zM354 125q49 0 88 16.5t66 45t41 66.5t14 80q0 44 -13.5 82.5t-39.5 66.5t-65.5 44t-90.5 16h-121v-160h149v-105h-149v-152h121z" />
    <glyph glyph-name="Ntilde" unicode="&#xd1;" horiz-adv-x="729" 
d="M420 721q-26 0 -42 10.5t-28 23.5t-22.5 23.5t-24.5 10.5q-15 0 -25.5 -15t-10.5 -47h-67q0 64 27.5 99t80.5 35q25 0 40.5 -10.5t27.5 -23t23 -23t25 -10.5q15 0 25.5 14.5t10.5 46.5h67q0 -64 -27 -99t-80 -35zM526 0l-318 435v-435h-142v667h146l309 -419v419h142
v-667h-137z" />
    <glyph glyph-name="Ograve" unicode="&#xd2;" horiz-adv-x="765" 
d="M358 723l-162 144h116l135 -144h-89zM382 -12q-75 0 -139 25.5t-110.5 71.5t-72.5 109.5t-26 138.5t26 138.5t72.5 109.5t110.5 71.5t139 25.5q76 0 140 -25.5t110.5 -71.5t72.5 -109.5t26 -138.5t-26 -138.5t-72.5 -109.5t-110.5 -71.5t-140 -25.5zM382 114
q46 0 83.5 17t64 46t41 69t14.5 87t-14.5 87t-41 69.5t-64 46t-83.5 16.5t-83.5 -16.5t-63.5 -46t-40.5 -69.5t-14.5 -87t14.5 -87t40.5 -69t63.5 -46t83.5 -17z" />
    <glyph glyph-name="Oacute" unicode="&#xd3;" horiz-adv-x="765" 
d="M408 723h-89l134 144h117zM382 -12q-75 0 -139 25.5t-110.5 71.5t-72.5 109.5t-26 138.5t26 138.5t72.5 109.5t110.5 71.5t139 25.5q76 0 140 -25.5t110.5 -71.5t72.5 -109.5t26 -138.5t-26 -138.5t-72.5 -109.5t-110.5 -71.5t-140 -25.5zM382 114q46 0 83.5 17t64 46
t41 69t14.5 87t-14.5 87t-41 69.5t-64 46t-83.5 16.5t-83.5 -16.5t-63.5 -46t-40.5 -69.5t-14.5 -87t14.5 -87t40.5 -69t63.5 -46t83.5 -17z" />
    <glyph glyph-name="Ocircumflex" unicode="&#xd4;" horiz-adv-x="765" 
d="M457 723l-73 89l-71 -89h-78l92 144h114l94 -144h-78zM382 -12q-75 0 -139 25.5t-110.5 71.5t-72.5 109.5t-26 138.5t26 138.5t72.5 109.5t110.5 71.5t139 25.5q76 0 140 -25.5t110.5 -71.5t72.5 -109.5t26 -138.5t-26 -138.5t-72.5 -109.5t-110.5 -71.5t-140 -25.5z
M382 114q46 0 83.5 17t64 46t41 69t14.5 87t-14.5 87t-41 69.5t-64 46t-83.5 16.5t-83.5 -16.5t-63.5 -46t-40.5 -69.5t-14.5 -87t14.5 -87t40.5 -69t63.5 -46t83.5 -17z" />
    <glyph glyph-name="Otilde" unicode="&#xd5;" horiz-adv-x="765" 
d="M382 -12q-75 0 -139 25.5t-110.5 71.5t-72.5 109.5t-26 138.5t26 138.5t72.5 109.5t110.5 71.5t139 25.5q76 0 140 -25.5t110.5 -71.5t72.5 -109.5t26 -138.5t-26 -138.5t-72.5 -109.5t-110.5 -71.5t-140 -25.5zM382 114q46 0 83.5 17t64 46t41 69t14.5 87t-14.5 87
t-41 69.5t-64 46t-83.5 16.5t-83.5 -16.5t-63.5 -46t-40.5 -69.5t-14.5 -87t14.5 -87t40.5 -69t63.5 -46t83.5 -17zM439 721q-26 0 -42 10.5t-28 23.5t-22.5 23.5t-24.5 10.5q-15 0 -25.5 -15t-10.5 -47h-67q0 64 27.5 99t80.5 35q25 0 40.5 -10.5t27.5 -23t23 -23t25 -10.5
q15 0 25.5 14.5t10.5 46.5h67q0 -64 -27 -99t-80 -35z" />
    <glyph glyph-name="Odieresis" unicode="&#xd6;" horiz-adv-x="765" 
d="M557 778q0 -29 -20 -48.5t-48 -19.5t-48 19.5t-20 48.5q0 28 20 47.5t48 19.5t48 -19.5t20 -47.5zM345 778q0 -29 -19.5 -48.5t-47.5 -19.5q-29 0 -48.5 19.5t-19.5 48.5q0 28 19.5 47.5t48.5 19.5q28 0 47.5 -19.5t19.5 -47.5zM382 -12q-75 0 -139 25.5t-110.5 71.5
t-72.5 109.5t-26 138.5t26 138.5t72.5 109.5t110.5 71.5t139 25.5q76 0 140 -25.5t110.5 -71.5t72.5 -109.5t26 -138.5t-26 -138.5t-72.5 -109.5t-110.5 -71.5t-140 -25.5zM382 114q46 0 83.5 17t64 46t41 69t14.5 87t-14.5 87t-41 69.5t-64 46t-83.5 16.5t-83.5 -16.5
t-63.5 -46t-40.5 -69.5t-14.5 -87t14.5 -87t40.5 -69t63.5 -46t83.5 -17z" />
    <glyph glyph-name="multiply" unicode="&#xd7;" horiz-adv-x="504" 
d="M252 278l-140 -141l-57 55l141 142l-141 141l57 56l140 -142l141 142l56 -56l-141 -141l141 -142l-56 -55z" />
    <glyph glyph-name="Oslash" unicode="&#xd8;" horiz-adv-x="765" 
d="M382 -12q-52 0 -98.5 12t-85.5 35l-27 -35h-102l64 84q-47 46 -73 109.5t-26 139.5q0 75 26 138.5t72.5 109.5t110.5 71.5t139 25.5q48 0 91.5 -10.5t81.5 -30.5l23 30h102l-58 -76q51 -47 80 -112.5t29 -145.5q0 -75 -26 -138.5t-72.5 -109.5t-110.5 -71.5t-140 -25.5z
M382 114q46 0 83.5 17t64 46t41 69t14.5 87q0 88 -48 147l-259 -339q22 -13 48 -20t56 -7zM180 333q0 -40 10 -74.5t29 -62.5l255 335q-20 10 -43 15.5t-49 5.5q-46 0 -83.5 -16.5t-63.5 -46t-40.5 -69.5t-14.5 -87z" />
    <glyph glyph-name="Ugrave" unicode="&#xd9;" horiz-adv-x="733" 
d="M367 -12q-76 0 -132.5 20.5t-94 57t-56 87.5t-18.5 113v401h144v-396q0 -70 39.5 -113.5t117.5 -43.5t117 43.5t39 113.5v396h145v-400q0 -62 -18.5 -113.5t-56 -88.5t-94 -57t-132.5 -20zM342 723l-162 144h116l135 -144h-89z" />
    <glyph glyph-name="Uacute" unicode="&#xda;" horiz-adv-x="733" 
d="M393 723h-89l134 144h117zM367 -12q-76 0 -132.5 20.5t-94 57t-56 87.5t-18.5 113v401h144v-396q0 -70 39.5 -113.5t117.5 -43.5t117 43.5t39 113.5v396h145v-400q0 -62 -18.5 -113.5t-56 -88.5t-94 -57t-132.5 -20z" />
    <glyph glyph-name="Ucircumflex" unicode="&#xdb;" horiz-adv-x="733" 
d="M443 723l-73 89l-71 -89h-78l92 144h114l94 -144h-78zM367 -12q-76 0 -132.5 20.5t-94 57t-56 87.5t-18.5 113v401h144v-396q0 -70 39.5 -113.5t117.5 -43.5t117 43.5t39 113.5v396h145v-400q0 -62 -18.5 -113.5t-56 -88.5t-94 -57t-132.5 -20z" />
    <glyph glyph-name="Udieresis" unicode="&#xdc;" horiz-adv-x="733" 
d="M543 778q0 -29 -20 -48.5t-48 -19.5t-48 19.5t-20 48.5q0 28 20 47.5t48 19.5t48 -19.5t20 -47.5zM331 778q0 -29 -19.5 -48.5t-47.5 -19.5q-29 0 -48.5 19.5t-19.5 48.5q0 28 19.5 47.5t48.5 19.5q28 0 47.5 -19.5t19.5 -47.5zM367 -12q-76 0 -132.5 20.5t-94 57
t-56 87.5t-18.5 113v401h144v-396q0 -70 39.5 -113.5t117.5 -43.5t117 43.5t39 113.5v396h145v-400q0 -62 -18.5 -113.5t-56 -88.5t-94 -57t-132.5 -20z" />
    <glyph glyph-name="Yacute" unicode="&#xdd;" horiz-adv-x="645" 
d="M252 0v273l-257 394h162l166 -268l164 268h162l-255 -394v-273h-142zM348 723h-89l134 144h117z" />
    <glyph glyph-name="Thorn" unicode="&#xde;" horiz-adv-x="624" 
d="M66 0v667h142v-108h170q54 0 96 -17.5t70.5 -47t43 -68.5t14.5 -83t-15 -82.5t-43.5 -67.5t-70 -46t-95.5 -17h-170v-130h-142zM357 255q43 0 71.5 23.5t28.5 65.5t-28.5 66t-71.5 24h-149v-179h149z" />
    <glyph glyph-name="germandbls" unicode="&#xdf;" horiz-adv-x="643" 
d="M627 144q0 -34 -14 -62.5t-40.5 -49.5t-63.5 -32.5t-83 -11.5q-36 0 -64.5 6t-52 16t-43 24t-37.5 30l54 88q20 -26 59.5 -45.5t83.5 -19.5q40 0 59.5 16t19.5 36t-19.5 30t-48.5 17.5t-62.5 16t-62.5 25t-48.5 43.5t-19.5 73q0 39 19 64t42.5 43t42.5 32t19 31
q0 25 -24 37.5t-53 12.5q-42 0 -71 -23.5t-29 -65.5v-475h-127v475q0 41 15.5 78t44.5 64.5t72 43.5t97 16q40 0 77 -10t65.5 -29t46 -45.5t17.5 -60.5q0 -42 -20.5 -67.5t-45.5 -44t-45.5 -34.5t-20.5 -38q0 -18 19.5 -26t48.5 -14.5t62.5 -14.5t62.5 -25t48.5 -46
t19.5 -78z" />
    <glyph glyph-name="agrave" unicode="&#xe0;" horiz-adv-x="543" 
d="M353 0v50q-25 -29 -65 -45.5t-88 -16.5q-29 0 -59 10t-54 29.5t-39.5 49.5t-15.5 71q0 42 15.5 72t39.5 48.5t54 27t59 8.5q48 0 88.5 -15t64.5 -44v65q0 37 -29 59t-77 22q-80 0 -141 -57l-48 85q45 39 99.5 57.5t111.5 18.5q41 0 79 -9t67.5 -30.5t47 -56.5t17.5 -87
v-312h-127zM251 74q31 0 58.5 10.5t43.5 31.5v60q-16 21 -43.5 31.5t-58.5 10.5q-38 0 -64.5 -19t-26.5 -54q0 -34 26.5 -52.5t64.5 -18.5zM243 556l-162 144h116l135 -144h-89z" />
    <glyph glyph-name="aacute" unicode="&#xe1;" horiz-adv-x="543" 
d="M353 0v50q-25 -29 -65 -45.5t-88 -16.5q-29 0 -59 10t-54 29.5t-39.5 49.5t-15.5 71q0 42 15.5 72t39.5 48.5t54 27t59 8.5q48 0 88.5 -15t64.5 -44v65q0 37 -29 59t-77 22q-80 0 -141 -57l-48 85q45 39 99.5 57.5t111.5 18.5q41 0 79 -9t67.5 -30.5t47 -56.5t17.5 -87
v-312h-127zM251 74q31 0 58.5 10.5t43.5 31.5v60q-16 21 -43.5 31.5t-58.5 10.5q-38 0 -64.5 -19t-26.5 -54q0 -34 26.5 -52.5t64.5 -18.5zM294 556h-89l134 144h117z" />
    <glyph glyph-name="acircumflex" unicode="&#xe2;" horiz-adv-x="543" 
d="M353 0v50q-25 -29 -65 -45.5t-88 -16.5q-29 0 -59 10t-54 29.5t-39.5 49.5t-15.5 71q0 42 15.5 72t39.5 48.5t54 27t59 8.5q48 0 88.5 -15t64.5 -44v65q0 37 -29 59t-77 22q-80 0 -141 -57l-48 85q45 39 99.5 57.5t111.5 18.5q41 0 79 -9t67.5 -30.5t47 -56.5t17.5 -87
v-312h-127zM251 74q31 0 58.5 10.5t43.5 31.5v60q-16 21 -43.5 31.5t-58.5 10.5q-38 0 -64.5 -19t-26.5 -54q0 -34 26.5 -52.5t64.5 -18.5zM343 556l-73 89l-71 -89h-78l92 144h114l94 -144h-78z" />
    <glyph glyph-name="atilde" unicode="&#xe3;" horiz-adv-x="543" 
d="M353 0v50q-25 -29 -65 -45.5t-88 -16.5q-29 0 -59 10t-54 29.5t-39.5 49.5t-15.5 71q0 42 15.5 72t39.5 48.5t54 27t59 8.5q48 0 88.5 -15t64.5 -44v65q0 37 -29 59t-77 22q-80 0 -141 -57l-48 85q45 39 99.5 57.5t111.5 18.5q41 0 79 -9t67.5 -30.5t47 -56.5t17.5 -87
v-312h-127zM251 74q31 0 58.5 10.5t43.5 31.5v60q-16 21 -43.5 31.5t-58.5 10.5q-38 0 -64.5 -19t-26.5 -54q0 -34 26.5 -52.5t64.5 -18.5zM326 554q-26 0 -42 10.5t-28 23.5t-22.5 23.5t-24.5 10.5q-15 0 -25.5 -15t-10.5 -47h-67q0 64 27.5 99t80.5 35q25 0 40.5 -10.5
t27.5 -23t23 -23t25 -10.5q15 0 25.5 14.5t10.5 46.5h67q0 -64 -27 -99t-80 -35z" />
    <glyph glyph-name="adieresis" unicode="&#xe4;" horiz-adv-x="543" 
d="M353 0v50q-25 -29 -65 -45.5t-88 -16.5q-29 0 -59 10t-54 29.5t-39.5 49.5t-15.5 71q0 42 15.5 72t39.5 48.5t54 27t59 8.5q48 0 88.5 -15t64.5 -44v65q0 37 -29 59t-77 22q-80 0 -141 -57l-48 85q45 39 99.5 57.5t111.5 18.5q41 0 79 -9t67.5 -30.5t47 -56.5t17.5 -87
v-312h-127zM251 74q31 0 58.5 10.5t43.5 31.5v60q-16 21 -43.5 31.5t-58.5 10.5q-38 0 -64.5 -19t-26.5 -54q0 -34 26.5 -52.5t64.5 -18.5zM443 611q0 -29 -20 -48.5t-48 -19.5t-48 19.5t-20 48.5q0 28 20 47.5t48 19.5t48 -19.5t20 -47.5zM231 611q0 -29 -19.5 -48.5
t-47.5 -19.5q-29 0 -48.5 19.5t-19.5 48.5q0 28 19.5 47.5t48.5 19.5q28 0 47.5 -19.5t19.5 -47.5z" />
    <glyph glyph-name="aring" unicode="&#xe5;" horiz-adv-x="543" 
d="M353 0v50q-25 -29 -65 -45.5t-88 -16.5q-29 0 -59 10t-54 29.5t-39.5 49.5t-15.5 71q0 42 15.5 72t39.5 48.5t54 27t59 8.5q48 0 88.5 -15t64.5 -44v65q0 37 -29 59t-77 22q-80 0 -141 -57l-48 85q45 39 99.5 57.5t111.5 18.5q41 0 79 -9t67.5 -30.5t47 -56.5t17.5 -87
v-312h-127zM251 74q31 0 58.5 10.5t43.5 31.5v60q-16 21 -43.5 31.5t-58.5 10.5q-38 0 -64.5 -19t-26.5 -54q0 -34 26.5 -52.5t64.5 -18.5zM271 531q-21 0 -40.5 8t-33.5 22.5t-22.5 33.5t-8.5 41q0 21 8.5 40.5t22.5 34t33.5 23t40.5 8.5q22 0 41 -8.5t33 -23t22 -34
t8 -40.5q0 -22 -8 -41t-22 -33.5t-33 -22.5t-41 -8zM271 589q20 0 33 14t13 33q0 20 -13 33.5t-33 13.5q-19 0 -33 -13.5t-14 -33.5q0 -19 14 -33t33 -14z" />
    <glyph glyph-name="ae" unicode="&#xe6;" horiz-adv-x="870" 
d="M500 201q3 -22 13 -42t26.5 -35t39 -23.5t51.5 -8.5q32 0 64.5 12t54.5 35l57 -84q-36 -33 -87.5 -50t-97.5 -17q-59 0 -106 20t-80 68q-30 -38 -83 -63t-118 -25q-40 0 -76.5 9.5t-64.5 29t-44.5 49t-16.5 70.5q0 40 14 69.5t38 49t56 29.5t67 10q50 0 93.5 -14.5
t71.5 -43.5v65q0 36 -31.5 58t-83.5 22q-84 0 -151 -57l-48 85q45 39 100.5 57.5t113.5 18.5q64 0 106.5 -21.5t62.5 -61.5q13 17 29 32t37 26.5t48 18t61 6.5q50 0 91.5 -19.5t71 -54.5t46 -84t16.5 -108v-28h-341zM718 287q-1 17 -7 36t-19.5 34.5t-34 26t-49.5 10.5
q-27 0 -47 -10t-33.5 -25.5t-20.5 -34.5t-9 -37h220zM372 175q-18 20 -48.5 31.5t-64.5 11.5q-42 0 -70.5 -16.5t-28.5 -48.5q0 -33 28.5 -49t67.5 -16q24 0 45 7.5t37 19t25 26t9 28.5v6z" />
    <glyph glyph-name="ccedilla" unicode="&#xe7;" horiz-adv-x="499" 
d="M291 -194q-36 0 -65 9.5t-45 22.5l25 51q38 -29 81 -29q20 0 36 8t16 25q0 26 -29 26q-18 0 -32 -14l-46 26l21 59q-49 5 -89.5 25.5t-70 53.5t-45.5 77t-16 96q0 55 19 101.5t53 80.5t81 52.5t103 18.5q74 0 120.5 -27t70.5 -60l-83 -78q-35 52 -102 52
q-58 0 -94.5 -38.5t-36.5 -101.5t36.5 -102t94.5 -39q33 0 59 14t43 38l83 -77q-22 -31 -61.5 -56.5t-102.5 -30.5l-16 -38q17 10 36 10q28 0 47.5 -19t19.5 -51q0 -40 -33 -62.5t-78 -22.5z" />
    <glyph glyph-name="egrave" unicode="&#xe8;" horiz-adv-x="553" 
d="M290 -12q-55 0 -102.5 18t-82 51t-54 80t-19.5 105q0 52 18.5 98.5t51.5 80.5t79 54t101 20q54 0 98.5 -19.5t76.5 -54.5t49.5 -84t17.5 -108v-28h-359q6 -46 41.5 -79t97.5 -33q15 0 33 3.5t35.5 9.5t33 15t27.5 20l56 -82q-36 -33 -89 -50t-110 -17zM401 287
q-1 17 -8 36t-21 34.5t-36.5 26t-53.5 10.5q-30 0 -51.5 -10t-35.5 -25.5t-22 -34.5t-10 -37h238zM257 556l-162 144h116l135 -144h-89z" />
    <glyph glyph-name="eacute" unicode="&#xe9;" horiz-adv-x="553" 
d="M308 556h-89l134 144h117zM290 -12q-55 0 -102.5 18t-82 51t-54 80t-19.5 105q0 52 18.5 98.5t51.5 80.5t79 54t101 20q54 0 98.5 -19.5t76.5 -54.5t49.5 -84t17.5 -108v-28h-359q6 -46 41.5 -79t97.5 -33q15 0 33 3.5t35.5 9.5t33 15t27.5 20l56 -82q-36 -33 -89 -50
t-110 -17zM401 287q-1 17 -8 36t-21 34.5t-36.5 26t-53.5 10.5q-30 0 -51.5 -10t-35.5 -25.5t-22 -34.5t-10 -37h238z" />
    <glyph glyph-name="ecircumflex" unicode="&#xea;" horiz-adv-x="553" 
d="M355 556l-73 89l-71 -89h-78l92 144h114l94 -144h-78zM290 -12q-55 0 -102.5 18t-82 51t-54 80t-19.5 105q0 52 18.5 98.5t51.5 80.5t79 54t101 20q54 0 98.5 -19.5t76.5 -54.5t49.5 -84t17.5 -108v-28h-359q6 -46 41.5 -79t97.5 -33q15 0 33 3.5t35.5 9.5t33 15t27.5 20
l56 -82q-36 -33 -89 -50t-110 -17zM401 287q-1 17 -8 36t-21 34.5t-36.5 26t-53.5 10.5q-30 0 -51.5 -10t-35.5 -25.5t-22 -34.5t-10 -37h238z" />
    <glyph glyph-name="edieresis" unicode="&#xeb;" horiz-adv-x="553" 
d="M457 611q0 -29 -20 -48.5t-48 -19.5t-48 19.5t-20 48.5q0 28 20 47.5t48 19.5t48 -19.5t20 -47.5zM245 611q0 -29 -19.5 -48.5t-47.5 -19.5q-29 0 -48.5 19.5t-19.5 48.5q0 28 19.5 47.5t48.5 19.5q28 0 47.5 -19.5t19.5 -47.5zM290 -12q-55 0 -102.5 18t-82 51t-54 80
t-19.5 105q0 52 18.5 98.5t51.5 80.5t79 54t101 20q54 0 98.5 -19.5t76.5 -54.5t49.5 -84t17.5 -108v-28h-359q6 -46 41.5 -79t97.5 -33q15 0 33 3.5t35.5 9.5t33 15t27.5 20l56 -82q-36 -33 -89 -50t-110 -17zM401 287q-1 17 -8 36t-21 34.5t-36.5 26t-53.5 10.5
q-30 0 -51.5 -10t-35.5 -25.5t-22 -34.5t-10 -37h238z" />
    <glyph glyph-name="igrave" unicode="&#xec;" horiz-adv-x="253" 
d="M63 0v483h127v-483h-127zM102 556l-162 144h116l135 -144h-89z" />
    <glyph glyph-name="iacute" unicode="&#xed;" horiz-adv-x="253" 
d="M152 556h-89l134 144h117zM63 0v483h127v-483h-127z" />
    <glyph glyph-name="icircumflex" unicode="&#xee;" horiz-adv-x="253" 
d="M199 556l-73 89l-71 -89h-78l92 144h114l94 -144h-78zM63 0v483h127v-483h-127z" />
    <glyph glyph-name="idieresis" unicode="&#xef;" horiz-adv-x="253" 
d="M301 611q0 -29 -20 -48.5t-48 -19.5t-48 19.5t-20 48.5q0 28 20 47.5t48 19.5t48 -19.5t20 -47.5zM89 611q0 -29 -19.5 -48.5t-47.5 -19.5q-29 0 -48.5 19.5t-19.5 48.5q0 28 19.5 47.5t48.5 19.5q28 0 47.5 -19.5t19.5 -47.5zM63 0v483h127v-483h-127z" />
    <glyph glyph-name="eth" unicode="&#xf0;" horiz-adv-x="574" 
d="M78 529l107 47q-15 10 -30.5 19t-30.5 18l69 103q33 -20 64 -40.5t59 -42.5l103 45l25 -58l-73 -32q81 -72 126.5 -154t45.5 -182q0 -59 -17.5 -107.5t-50.5 -83t-80.5 -54t-107.5 -19.5q-58 0 -105 17.5t-80.5 49t-51.5 75t-18 94.5q0 52 16.5 95t45 74.5t68 49
t84.5 17.5q101 0 160 -93q-20 46 -62 87.5t-95 78.5l-146 -64zM287 101q30 0 53 10t38.5 26.5t24 39t8.5 47.5t-8.5 47.5t-24 39t-38.5 26.5t-53 10t-52.5 -10t-38.5 -26.5t-24 -39t-8 -47.5t8 -47.5t24 -39t38.5 -26.5t52.5 -10z" />
    <glyph glyph-name="ntilde" unicode="&#xf1;" 
d="M389 0v292q0 51 -24 70.5t-65 19.5q-38 0 -66 -17.5t-44 -39.5v-325h-127v483h127v-63q23 28 66 51.5t103 23.5q80 0 118.5 -41.5t38.5 -112.5v-341h-127zM347 554q-26 0 -42 10.5t-28 23.5t-22.5 23.5t-24.5 10.5q-15 0 -25.5 -15t-10.5 -47h-67q0 64 27.5 99t80.5 35
q25 0 40.5 -10.5t27.5 -23t23 -23t25 -10.5q15 0 25.5 14.5t10.5 46.5h67q0 -64 -27 -99t-80 -35z" />
    <glyph glyph-name="ograve" unicode="&#xf2;" horiz-adv-x="574" 
d="M287 -12q-60 0 -107 20.5t-80 55t-50.5 80.5t-17.5 98q0 51 17.5 97t50.5 80.5t80 55t107 20.5t107.5 -20.5t80.5 -55t50.5 -80.5t17.5 -97q0 -52 -17.5 -98t-50.5 -80.5t-80.5 -55t-107.5 -20.5zM287 101q30 0 53 11.5t38.5 30.5t24 44.5t8.5 54.5q0 28 -8.5 53.5
t-24 44.5t-38.5 30.5t-53 11.5t-52.5 -11.5t-38.5 -30.5t-24 -44.5t-8 -53.5q0 -29 8 -54.5t24 -44.5t38.5 -30.5t52.5 -11.5zM262 556l-162 144h116l135 -144h-89z" />
    <glyph glyph-name="oacute" unicode="&#xf3;" horiz-adv-x="574" 
d="M313 556h-89l134 144h117zM287 -12q-60 0 -107 20.5t-80 55t-50.5 80.5t-17.5 98q0 51 17.5 97t50.5 80.5t80 55t107 20.5t107.5 -20.5t80.5 -55t50.5 -80.5t17.5 -97q0 -52 -17.5 -98t-50.5 -80.5t-80.5 -55t-107.5 -20.5zM287 101q30 0 53 11.5t38.5 30.5t24 44.5
t8.5 54.5q0 28 -8.5 53.5t-24 44.5t-38.5 30.5t-53 11.5t-52.5 -11.5t-38.5 -30.5t-24 -44.5t-8 -53.5q0 -29 8 -54.5t24 -44.5t38.5 -30.5t52.5 -11.5z" />
    <glyph glyph-name="ocircumflex" unicode="&#xf4;" horiz-adv-x="574" 
d="M359 556l-73 89l-71 -89h-78l92 144h114l94 -144h-78zM287 -12q-60 0 -107 20.5t-80 55t-50.5 80.5t-17.5 98q0 51 17.5 97t50.5 80.5t80 55t107 20.5t107.5 -20.5t80.5 -55t50.5 -80.5t17.5 -97q0 -52 -17.5 -98t-50.5 -80.5t-80.5 -55t-107.5 -20.5zM287 101
q30 0 53 11.5t38.5 30.5t24 44.5t8.5 54.5q0 28 -8.5 53.5t-24 44.5t-38.5 30.5t-53 11.5t-52.5 -11.5t-38.5 -30.5t-24 -44.5t-8 -53.5q0 -29 8 -54.5t24 -44.5t38.5 -30.5t52.5 -11.5z" />
    <glyph glyph-name="otilde" unicode="&#xf5;" horiz-adv-x="574" 
d="M287 -12q-60 0 -107 20.5t-80 55t-50.5 80.5t-17.5 98q0 51 17.5 97t50.5 80.5t80 55t107 20.5t107.5 -20.5t80.5 -55t50.5 -80.5t17.5 -97q0 -52 -17.5 -98t-50.5 -80.5t-80.5 -55t-107.5 -20.5zM287 101q30 0 53 11.5t38.5 30.5t24 44.5t8.5 54.5q0 28 -8.5 53.5
t-24 44.5t-38.5 30.5t-53 11.5t-52.5 -11.5t-38.5 -30.5t-24 -44.5t-8 -53.5q0 -29 8 -54.5t24 -44.5t38.5 -30.5t52.5 -11.5zM344 554q-26 0 -42 10.5t-28 23.5t-22.5 23.5t-24.5 10.5q-15 0 -25.5 -15t-10.5 -47h-67q0 64 27.5 99t80.5 35q25 0 40.5 -10.5t27.5 -23
t23 -23t25 -10.5q15 0 25.5 14.5t10.5 46.5h67q0 -64 -27 -99t-80 -35z" />
    <glyph glyph-name="odieresis" unicode="&#xf6;" horiz-adv-x="574" 
d="M461 611q0 -29 -20 -48.5t-48 -19.5t-48 19.5t-20 48.5q0 28 20 47.5t48 19.5t48 -19.5t20 -47.5zM249 611q0 -29 -19.5 -48.5t-47.5 -19.5q-29 0 -48.5 19.5t-19.5 48.5q0 28 19.5 47.5t48.5 19.5q28 0 47.5 -19.5t19.5 -47.5zM287 -12q-60 0 -107 20.5t-80 55
t-50.5 80.5t-17.5 98q0 51 17.5 97t50.5 80.5t80 55t107 20.5t107.5 -20.5t80.5 -55t50.5 -80.5t17.5 -97q0 -52 -17.5 -98t-50.5 -80.5t-80.5 -55t-107.5 -20.5zM287 101q30 0 53 11.5t38.5 30.5t24 44.5t8.5 54.5q0 28 -8.5 53.5t-24 44.5t-38.5 30.5t-53 11.5
t-52.5 -11.5t-38.5 -30.5t-24 -44.5t-8 -53.5q0 -29 8 -54.5t24 -44.5t38.5 -30.5t52.5 -11.5z" />
    <glyph glyph-name="divide" unicode="&#xf7;" horiz-adv-x="511" 
d="M316 516q0 -26 -17.5 -44t-43.5 -18t-43.5 18t-17.5 44q0 25 17.5 42.5t43.5 17.5t43.5 -17.5t17.5 -42.5zM29 298v79h453v-79h-453zM316 157q0 -26 -17.5 -43.5t-43.5 -17.5t-43.5 17.5t-17.5 43.5q0 25 17.5 43t43.5 18t43.5 -18t17.5 -43z" />
    <glyph glyph-name="oslash" unicode="&#xf8;" horiz-adv-x="574" 
d="M40 0l57 67q-65 71 -65 175q0 51 17.5 97t50.5 80.5t80 55t107 20.5q42 0 77 -10t64 -28l22 26h80l-55 -64q33 -35 50.5 -80.5t17.5 -96.5q0 -52 -17.5 -98t-50.5 -80.5t-80.5 -55t-107.5 -20.5q-85 0 -145 40l-24 -28h-78zM287 101q30 0 53 11.5t38.5 30.5t24 44.5
t8.5 54.5q0 44 -20 79l-171 -201q26 -19 67 -19zM164 242q0 -42 17 -76l169 199q-28 17 -63 17q-30 0 -52.5 -11.5t-38.5 -30.5t-24 -44.5t-8 -53.5z" />
    <glyph glyph-name="ugrave" unicode="&#xf9;" 
d="M389 0v61q-25 -28 -67.5 -50.5t-102.5 -22.5q-80 0 -118 40.5t-38 111.5v343h127v-293q0 -50 24 -69.5t65 -19.5q37 0 65 17t45 38v327h127v-483h-127zM264 556l-162 144h116l135 -144h-89z" />
    <glyph glyph-name="uacute" unicode="&#xfa;" 
d="M314 556h-89l134 144h117zM389 0v61q-25 -28 -67.5 -50.5t-102.5 -22.5q-80 0 -118 40.5t-38 111.5v343h127v-293q0 -50 24 -69.5t65 -19.5q37 0 65 17t45 38v327h127v-483h-127z" />
    <glyph glyph-name="ucircumflex" unicode="&#xfb;" 
d="M362 556l-73 89l-71 -89h-78l92 144h114l94 -144h-78zM389 0v61q-25 -28 -67.5 -50.5t-102.5 -22.5q-80 0 -118 40.5t-38 111.5v343h127v-293q0 -50 24 -69.5t65 -19.5q37 0 65 17t45 38v327h127v-483h-127z" />
    <glyph glyph-name="udieresis" unicode="&#xfc;" 
d="M463 611q0 -29 -20 -48.5t-48 -19.5t-48 19.5t-20 48.5q0 28 20 47.5t48 19.5t48 -19.5t20 -47.5zM251 611q0 -29 -19.5 -48.5t-47.5 -19.5q-29 0 -48.5 19.5t-19.5 48.5q0 28 19.5 47.5t48.5 19.5q28 0 47.5 -19.5t19.5 -47.5zM389 0v61q-25 -28 -67.5 -50.5
t-102.5 -22.5q-80 0 -118 40.5t-38 111.5v343h127v-293q0 -50 24 -69.5t65 -19.5q37 0 65 17t45 38v327h127v-483h-127z" />
    <glyph glyph-name="yacute" unicode="&#xfd;" horiz-adv-x="513" 
d="M65 -75q8 -4 19.5 -6t20.5 -2q25 0 41.5 7.5t25.5 27.5l18 41l-196 490h136l126 -336l126 336h137l-227 -562q-27 -68 -74 -92t-109 -25q-11 0 -31 2t-32 5zM281 556h-89l134 144h117z" />
    <glyph glyph-name="thorn" unicode="&#xfe;" horiz-adv-x="583" 
d="M339 -12q-43 0 -81.5 18t-67.5 56v-246h-127v851h127v-245q28 35 66 54t83 19q46 0 85.5 -17t68 -49t44.5 -79.5t16 -107.5t-16 -107.5t-44.5 -80t-68 -49.5t-85.5 -17zM299 101q55 0 88.5 39t33.5 102t-33.5 101.5t-88.5 38.5q-31 0 -62 -16t-47 -39v-171q16 -23 47 -39
t62 -16z" />
    <glyph glyph-name="ydieresis" unicode="&#xff;" horiz-adv-x="513" 
d="M65 -75q8 -4 19.5 -6t20.5 -2q25 0 41.5 7.5t25.5 27.5l18 41l-196 490h136l126 -336l126 336h137l-227 -562q-27 -68 -74 -92t-109 -25q-11 0 -31 2t-32 5zM430 611q0 -29 -20 -48.5t-48 -19.5t-48 19.5t-20 48.5q0 28 20 47.5t48 19.5t48 -19.5t20 -47.5zM218 611
q0 -29 -19.5 -48.5t-47.5 -19.5q-29 0 -48.5 19.5t-19.5 48.5q0 28 19.5 47.5t48.5 19.5q28 0 47.5 -19.5t19.5 -47.5z" />
    <glyph glyph-name="Amacron" unicode="&#x100;" horiz-adv-x="684" 
d="M526 0l-41 113h-286l-42 -113h-162l258 667h178l257 -667h-162zM342 525l-104 -287h208zM160 729v72h363v-72h-363z" />
    <glyph glyph-name="amacron" unicode="&#x101;" horiz-adv-x="543" 
d="M353 0v50q-25 -29 -65 -45.5t-88 -16.5q-29 0 -59 10t-54 29.5t-39.5 49.5t-15.5 71q0 42 15.5 72t39.5 48.5t54 27t59 8.5q48 0 88.5 -15t64.5 -44v65q0 37 -29 59t-77 22q-80 0 -141 -57l-48 85q45 39 99.5 57.5t111.5 18.5q41 0 79 -9t67.5 -30.5t47 -56.5t17.5 -87
v-312h-127zM251 74q31 0 58.5 10.5t43.5 31.5v60q-16 21 -43.5 31.5t-58.5 10.5q-38 0 -64.5 -19t-26.5 -54q0 -34 26.5 -52.5t64.5 -18.5zM88 562v72h363v-72h-363z" />
    <glyph glyph-name="Abreve" unicode="&#x102;" horiz-adv-x="684" 
d="M526 0l-41 113h-286l-42 -113h-162l258 667h178l257 -667h-162zM342 525l-104 -287h208zM517 786q-30 -41 -75.5 -64.5t-99.5 -23.5t-99.5 23.5t-76.5 64.5l56 47q20 -29 50.5 -45.5t69.5 -16.5q38 0 68 16.5t51 45.5l56 -47v0z" />
    <glyph glyph-name="abreve" unicode="&#x103;" horiz-adv-x="543" 
d="M353 0v50q-25 -29 -65 -45.5t-88 -16.5q-29 0 -59 10t-54 29.5t-39.5 49.5t-15.5 71q0 42 15.5 72t39.5 48.5t54 27t59 8.5q48 0 88.5 -15t64.5 -44v65q0 37 -29 59t-77 22q-80 0 -141 -57l-48 85q45 39 99.5 57.5t111.5 18.5q41 0 79 -9t67.5 -30.5t47 -56.5t17.5 -87
v-312h-127zM251 74q31 0 58.5 10.5t43.5 31.5v60q-16 21 -43.5 31.5t-58.5 10.5q-38 0 -64.5 -19t-26.5 -54q0 -34 26.5 -52.5t64.5 -18.5zM445 619q-30 -41 -75.5 -64.5t-99.5 -23.5t-99.5 23.5t-76.5 64.5l56 47q20 -29 50.5 -45.5t69.5 -16.5q38 0 68 16.5t51 45.5
l56 -47v0z" />
    <glyph glyph-name="Aogonek" unicode="&#x104;" horiz-adv-x="684" 
d="M749 -130q-14 -24 -36.5 -40t-57.5 -16q-40 0 -70 21t-30 69q0 56 45 96h-74l-41 113h-286l-42 -113h-162l258 667h178l257 -667q-70 -35 -70 -90q0 -23 11.5 -33t25.5 -10q17 0 27.5 10t15.5 25zM342 525l-104 -287h208z" />
    <glyph glyph-name="aogonek" unicode="&#x105;" horiz-adv-x="543" 
d="M541 -130q-14 -24 -36.5 -40t-57.5 -16q-40 0 -70 21t-30 69q0 56 45 96h-39v50q-25 -29 -65 -45.5t-88 -16.5q-29 0 -59 10t-54 29.5t-39.5 49.5t-15.5 71q0 42 15.5 72t39.5 48.5t54 27t59 8.5q48 0 88.5 -15t64.5 -44v65q0 37 -29 59t-77 22q-80 0 -141 -57l-48 85
q45 39 99.5 57.5t111.5 18.5q41 0 79 -9t67.5 -30.5t47 -56.5t17.5 -87v-312q-70 -35 -70 -90q0 -23 11.5 -33t25.5 -10q17 0 27.5 10t15.5 25zM251 74q31 0 58.5 10.5t43.5 31.5v60q-16 21 -43.5 31.5t-58.5 10.5q-38 0 -64.5 -19t-26.5 -54q0 -34 26.5 -52.5t64.5 -18.5z
" />
    <glyph glyph-name="Cacute" unicode="&#x106;" horiz-adv-x="687" 
d="M414 723h-89l134 144h117zM389 -12q-75 0 -140 25t-112.5 70.5t-75 109t-27.5 140.5t27.5 140.5t75 109t112.5 70.5t140 25q55 0 99 -14t78 -36.5t59 -52t43 -60.5l-122 -60q-21 41 -63 69t-94 28q-45 0 -83.5 -16.5t-66.5 -46t-43.5 -69.5t-15.5 -87t15.5 -87.5
t43.5 -69.5t66.5 -45.5t83.5 -16.5q52 0 94 27.5t63 69.5l122 -59q-18 -31 -43 -60.5t-59 -52.5t-78 -37t-99 -14z" />
    <glyph glyph-name="cacute" unicode="&#x107;" horiz-adv-x="499" 
d="M313 556h-89l134 144h117zM288 -12q-56 0 -103 18.5t-81 52.5t-53 80.5t-19 102.5q0 55 19 101.5t53 80.5t81 52.5t103 18.5q74 0 120.5 -27t70.5 -60l-83 -78q-35 52 -102 52q-58 0 -94.5 -38.5t-36.5 -101.5t36.5 -102t94.5 -39q33 0 59 14t43 38l83 -77
q-24 -34 -70.5 -61t-120.5 -27z" />
    <glyph glyph-name="Ccircumflex" unicode="&#x108;" horiz-adv-x="687" 
d="M460 723l-73 89l-71 -89h-78l92 144h114l94 -144h-78zM389 -12q-75 0 -140 25t-112.5 70.5t-75 109t-27.5 140.5t27.5 140.5t75 109t112.5 70.5t140 25q55 0 99 -14t78 -36.5t59 -52t43 -60.5l-122 -60q-21 41 -63 69t-94 28q-45 0 -83.5 -16.5t-66.5 -46t-43.5 -69.5
t-15.5 -87t15.5 -87.5t43.5 -69.5t66.5 -45.5t83.5 -16.5q52 0 94 27.5t63 69.5l122 -59q-18 -31 -43 -60.5t-59 -52.5t-78 -37t-99 -14z" />
    <glyph glyph-name="ccircumflex" unicode="&#x109;" horiz-adv-x="499" 
d="M364 556l-73 89l-71 -89h-78l92 144h114l94 -144h-78zM288 -12q-56 0 -103 18.5t-81 52.5t-53 80.5t-19 102.5q0 55 19 101.5t53 80.5t81 52.5t103 18.5q74 0 120.5 -27t70.5 -60l-83 -78q-35 52 -102 52q-58 0 -94.5 -38.5t-36.5 -101.5t36.5 -102t94.5 -39q33 0 59 14
t43 38l83 -77q-24 -34 -70.5 -61t-120.5 -27z" />
    <glyph glyph-name="Cdotaccent" unicode="&#x10a;" horiz-adv-x="687" 
d="M389 -12q-75 0 -140 25t-112.5 70.5t-75 109t-27.5 140.5t27.5 140.5t75 109t112.5 70.5t140 25q55 0 99 -14t78 -36.5t59 -52t43 -60.5l-122 -60q-21 41 -63 69t-94 28q-45 0 -83.5 -16.5t-66.5 -46t-43.5 -69.5t-15.5 -87t15.5 -87.5t43.5 -69.5t66.5 -45.5t83.5 -16.5
q52 0 94 27.5t63 69.5l122 -59q-18 -31 -43 -60.5t-59 -52.5t-78 -37t-99 -14zM392 710q-29 0 -48.5 19.5t-19.5 48.5q0 28 19.5 48t48.5 20q27 0 47 -20t20 -48q0 -29 -20 -48.5t-47 -19.5z" />
    <glyph glyph-name="cdotaccent" unicode="&#x10b;" horiz-adv-x="499" 
d="M288 -12q-56 0 -103 18.5t-81 52.5t-53 80.5t-19 102.5q0 55 19 101.5t53 80.5t81 52.5t103 18.5q74 0 120.5 -27t70.5 -60l-83 -78q-35 52 -102 52q-58 0 -94.5 -38.5t-36.5 -101.5t36.5 -102t94.5 -39q33 0 59 14t43 38l83 -77q-24 -34 -70.5 -61t-120.5 -27zM289 543
q-29 0 -48.5 19.5t-19.5 48.5q0 28 19.5 48t48.5 20q27 0 47 -20t20 -48q0 -29 -20 -48.5t-47 -19.5z" />
    <glyph glyph-name="Ccaron" unicode="&#x10c;" horiz-adv-x="687" 
d="M333 723l-95 144h78l74 -90l70 90h78l-91 -144h-114zM389 -12q-75 0 -140 25t-112.5 70.5t-75 109t-27.5 140.5t27.5 140.5t75 109t112.5 70.5t140 25q55 0 99 -14t78 -36.5t59 -52t43 -60.5l-122 -60q-21 41 -63 69t-94 28q-45 0 -83.5 -16.5t-66.5 -46t-43.5 -69.5
t-15.5 -87t15.5 -87.5t43.5 -69.5t66.5 -45.5t83.5 -16.5q52 0 94 27.5t63 69.5l122 -59q-18 -31 -43 -60.5t-59 -52.5t-78 -37t-99 -14z" />
    <glyph glyph-name="ccaron" unicode="&#x10d;" horiz-adv-x="499" 
d="M237 556l-95 144h78l74 -90l70 90h78l-91 -144h-114zM288 -12q-56 0 -103 18.5t-81 52.5t-53 80.5t-19 102.5q0 55 19 101.5t53 80.5t81 52.5t103 18.5q74 0 120.5 -27t70.5 -60l-83 -78q-35 52 -102 52q-58 0 -94.5 -38.5t-36.5 -101.5t36.5 -102t94.5 -39q33 0 59 14
t43 38l83 -77q-24 -34 -70.5 -61t-120.5 -27z" />
    <glyph glyph-name="Dcaron" unicode="&#x10e;" horiz-adv-x="718" 
d="M307 723l-95 144h78l74 -90l70 90h78l-91 -144h-114zM66 0v667h263q78 0 143.5 -24t112 -67.5t72.5 -105.5t26 -137t-26 -136.5t-72.5 -105t-112 -67.5t-143.5 -24h-263zM329 125q49 0 88 16.5t66 45t41 66.5t14 80q0 44 -13.5 82.5t-39.5 66.5t-65.5 44t-90.5 16h-121
v-417h121z" />
    <glyph glyph-name="dcaron" unicode="&#x10f;" horiz-adv-x="690" 
d="M696 598q0 -46 -23 -85t-60 -65l-44 35q10 6 20.5 15t19 19.5t15 22t8.5 22.5q-4 -2 -15 -2q-23 0 -38 15.5t-15 40.5q0 26 17.5 44.5t43.5 18.5q28 0 49.5 -21t21.5 -60zM395 0v62q-29 -36 -67 -55t-82 -19q-46 0 -85 17t-67.5 49t-45 79.5t-16.5 107.5q0 59 16 106
t44.5 80t68 50.5t85.5 17.5q43 0 81.5 -18.5t67.5 -55.5v246h128v-667h-128zM285 101q32 0 63 15.5t47 39.5v171q-16 24 -47 39.5t-63 15.5q-54 0 -88 -39t-34 -102q0 -31 9 -57t25 -44.5t38.5 -28.5t49.5 -10z" />
    <glyph glyph-name="Dcroat" unicode="&#x110;" horiz-adv-x="742" 
d="M91 0v277h-83v105h83v285h263q78 0 143.5 -24t112 -67.5t72.5 -105.5t26 -137t-26 -136.5t-72.5 -105t-112 -67.5t-143.5 -24h-263zM354 125q49 0 88 16.5t66 45t41 66.5t14 80q0 44 -13.5 82.5t-39.5 66.5t-65.5 44t-90.5 16h-121v-160h149v-105h-149v-152h121z" />
    <glyph glyph-name="dcroat" unicode="&#x111;" horiz-adv-x="590" 
d="M395 0v62q-29 -36 -67 -55t-82 -19q-46 0 -85 17t-67.5 49t-45 79.5t-16.5 107.5q0 59 16 106t44.5 80t68 50.5t85.5 17.5q43 0 81.5 -18.5t67.5 -55.5v107h-145v72h145v67h128v-67h58v-72h-58v-528h-128zM285 101q32 0 63 15.5t47 39.5v171q-16 24 -47 39.5t-63 15.5
q-54 0 -88 -39t-34 -102q0 -31 9 -57t25 -44.5t38.5 -28.5t49.5 -10z" />
    <glyph glyph-name="Emacron" unicode="&#x112;" horiz-adv-x="583" 
d="M66 0v667h472v-125h-330v-141h323v-125h-323v-151h330v-125h-472zM119 729v72h363v-72h-363z" />
    <glyph glyph-name="emacron" unicode="&#x113;" horiz-adv-x="553" 
d="M290 -12q-55 0 -102.5 18t-82 51t-54 80t-19.5 105q0 52 18.5 98.5t51.5 80.5t79 54t101 20q54 0 98.5 -19.5t76.5 -54.5t49.5 -84t17.5 -108v-28h-359q6 -46 41.5 -79t97.5 -33q15 0 33 3.5t35.5 9.5t33 15t27.5 20l56 -82q-36 -33 -89 -50t-110 -17zM401 287
q-1 17 -8 36t-21 34.5t-36.5 26t-53.5 10.5q-30 0 -51.5 -10t-35.5 -25.5t-22 -34.5t-10 -37h238zM100 562v72h363v-72h-363z" />
    <glyph glyph-name="Ebreve" unicode="&#x114;" horiz-adv-x="583" 
d="M66 0v667h472v-125h-330v-141h323v-125h-323v-151h330v-125h-472zM477 786q-30 -41 -75.5 -64.5t-99.5 -23.5t-99.5 23.5t-76.5 64.5l56 47q20 -29 50.5 -45.5t69.5 -16.5q38 0 68 16.5t51 45.5l56 -47v0z" />
    <glyph glyph-name="ebreve" unicode="&#x115;" horiz-adv-x="553" 
d="M290 -12q-55 0 -102.5 18t-82 51t-54 80t-19.5 105q0 52 18.5 98.5t51.5 80.5t79 54t101 20q54 0 98.5 -19.5t76.5 -54.5t49.5 -84t17.5 -108v-28h-359q6 -46 41.5 -79t97.5 -33q15 0 33 3.5t35.5 9.5t33 15t27.5 20l56 -82q-36 -33 -89 -50t-110 -17zM401 287
q-1 17 -8 36t-21 34.5t-36.5 26t-53.5 10.5q-30 0 -51.5 -10t-35.5 -25.5t-22 -34.5t-10 -37h238zM459 619q-30 -41 -75.5 -64.5t-99.5 -23.5t-99.5 23.5t-76.5 64.5l56 47q20 -29 50.5 -45.5t69.5 -16.5q38 0 68 16.5t51 45.5l56 -47v0z" />
    <glyph glyph-name="Edotaccent" unicode="&#x116;" horiz-adv-x="583" 
d="M66 0v667h472v-125h-330v-141h323v-125h-323v-151h330v-125h-472zM303 710q-29 0 -48.5 19.5t-19.5 48.5q0 28 19.5 48t48.5 20q27 0 47 -20t20 -48q0 -29 -20 -48.5t-47 -19.5z" />
    <glyph glyph-name="edotaccent" unicode="&#x117;" horiz-adv-x="553" 
d="M290 -12q-55 0 -102.5 18t-82 51t-54 80t-19.5 105q0 52 18.5 98.5t51.5 80.5t79 54t101 20q54 0 98.5 -19.5t76.5 -54.5t49.5 -84t17.5 -108v-28h-359q6 -46 41.5 -79t97.5 -33q15 0 33 3.5t35.5 9.5t33 15t27.5 20l56 -82q-36 -33 -89 -50t-110 -17zM401 287
q-1 17 -8 36t-21 34.5t-36.5 26t-53.5 10.5q-30 0 -51.5 -10t-35.5 -25.5t-22 -34.5t-10 -37h238zM285 543q-29 0 -48.5 19.5t-19.5 48.5q0 28 19.5 48t48.5 20q27 0 47 -20t20 -48q0 -29 -20 -48.5t-47 -19.5z" />
    <glyph glyph-name="Eogonek" unicode="&#x118;" horiz-adv-x="583" 
d="M538 0q-70 -35 -70 -90q0 -23 11.5 -33t25.5 -10q17 0 27.5 10t15.5 25l51 -32q-14 -24 -36.5 -40t-57.5 -16q-40 0 -70 21t-30 69q0 56 45 96h-384v667h472v-125h-330v-141h323v-125h-323v-151h330v-125v0z" />
    <glyph glyph-name="eogonek" unicode="&#x119;" horiz-adv-x="553" 
d="M444 -130q-14 -24 -36.5 -40t-57.5 -16q-40 0 -70 21t-30 69q0 46 33 84q-54 1 -100 19.5t-79.5 51.5t-52.5 79.5t-19 103.5q0 52 18.5 98.5t51.5 80.5t79 54t101 20q54 0 98.5 -19.5t76.5 -54.5t49.5 -84t17.5 -108v-28h-359q6 -46 41.5 -79t97.5 -33q15 0 33 3.5
t35.5 9.5t33 15t27.5 20l56 -82q-21 -20 -48 -33.5t-58 -21.5q-70 -35 -70 -90q0 -23 11.5 -33t25.5 -10q17 0 27.5 10t15.5 25zM401 287q-1 17 -8 36t-21 34.5t-36.5 26t-53.5 10.5q-30 0 -51.5 -10t-35.5 -25.5t-22 -34.5t-10 -37h238z" />
    <glyph glyph-name="Ecaron" unicode="&#x11a;" horiz-adv-x="583" 
d="M248 723l-95 144h78l74 -90l70 90h78l-91 -144h-114zM66 0v667h472v-125h-330v-141h323v-125h-323v-151h330v-125h-472z" />
    <glyph glyph-name="ecaron" unicode="&#x11b;" horiz-adv-x="553" 
d="M227 556l-95 144h78l74 -90l70 90h78l-91 -144h-114zM290 -12q-55 0 -102.5 18t-82 51t-54 80t-19.5 105q0 52 18.5 98.5t51.5 80.5t79 54t101 20q54 0 98.5 -19.5t76.5 -54.5t49.5 -84t17.5 -108v-28h-359q6 -46 41.5 -79t97.5 -33q15 0 33 3.5t35.5 9.5t33 15t27.5 20
l56 -82q-36 -33 -89 -50t-110 -17zM401 287q-1 17 -8 36t-21 34.5t-36.5 26t-53.5 10.5q-30 0 -51.5 -10t-35.5 -25.5t-22 -34.5t-10 -37h238z" />
    <glyph glyph-name="Gcircumflex" unicode="&#x11c;" horiz-adv-x="720" 
d="M464 723l-73 89l-71 -89h-78l92 144h114l94 -144h-78zM389 -13q-73 0 -137.5 24.5t-113 69.5t-76.5 109t-28 143t28 143t76.5 109t113 69t137.5 24q52 0 94.5 -12t76.5 -32.5t60 -47.5t45 -57l-118 -64q-23 35 -63.5 61t-94.5 26q-45 0 -83.5 -16.5t-66.5 -46
t-43.5 -69.5t-15.5 -87t15.5 -87.5t43.5 -69.5t66.5 -45.5t83.5 -16.5t83.5 16t58.5 35v80h-176v124h318v-256q-51 -57 -122 -91.5t-162 -34.5z" />
    <glyph glyph-name="gcircumflex" unicode="&#x11d;" horiz-adv-x="585" 
d="M370 556l-73 89l-71 -89h-78l92 144h114l94 -144h-78zM261 -196q-63 0 -112.5 16t-95.5 56l57 92q29 -32 67 -46t84 -14q23 0 46.5 5.5t43 19.5t31.5 37.5t12 59.5v49q-29 -36 -66.5 -56t-82.5 -20t-84 16t-67.5 47t-45 77t-16.5 106q0 59 16 105t44.5 77.5t67.5 47.5
t85 16q44 0 82 -18.5t67 -55.5v62h128v-450q0 -69 -24 -113.5t-62 -70t-84 -35.5t-91 -10zM285 116q32 0 62.5 16t46.5 39v156q-16 24 -46.5 39.5t-62.5 15.5q-54 0 -88 -35t-34 -98t34 -98t88 -35z" />
    <glyph glyph-name="Gbreve" unicode="&#x11e;" horiz-adv-x="720" 
d="M389 -13q-73 0 -137.5 24.5t-113 69.5t-76.5 109t-28 143t28 143t76.5 109t113 69t137.5 24q52 0 94.5 -12t76.5 -32.5t60 -47.5t45 -57l-118 -64q-23 35 -63.5 61t-94.5 26q-45 0 -83.5 -16.5t-66.5 -46t-43.5 -69.5t-15.5 -87t15.5 -87.5t43.5 -69.5t66.5 -45.5
t83.5 -16.5t83.5 16t58.5 35v80h-176v124h318v-256q-51 -57 -122 -91.5t-162 -34.5zM566 786q-30 -41 -75.5 -64.5t-99.5 -23.5t-99.5 23.5t-76.5 64.5l56 47q20 -29 50.5 -45.5t69.5 -16.5q38 0 68 16.5t51 45.5l56 -47v0z" />
    <glyph glyph-name="gbreve" unicode="&#x11f;" horiz-adv-x="585" 
d="M261 -196q-63 0 -112.5 16t-95.5 56l57 92q29 -32 67 -46t84 -14q23 0 46.5 5.5t43 19.5t31.5 37.5t12 59.5v49q-29 -36 -66.5 -56t-82.5 -20t-84 16t-67.5 47t-45 77t-16.5 106q0 59 16 105t44.5 77.5t67.5 47.5t85 16q44 0 82 -18.5t67 -55.5v62h128v-450
q0 -69 -24 -113.5t-62 -70t-84 -35.5t-91 -10zM285 116q32 0 62.5 16t46.5 39v156q-16 24 -46.5 39.5t-62.5 15.5q-54 0 -88 -35t-34 -98t34 -98t88 -35zM469 619q-30 -41 -75.5 -64.5t-99.5 -23.5t-99.5 23.5t-76.5 64.5l56 47q20 -29 50.5 -45.5t69.5 -16.5q38 0 68 16.5
t51 45.5l56 -47v0z" />
    <glyph glyph-name="Gdotaccent" unicode="&#x120;" horiz-adv-x="720" 
d="M389 -13q-73 0 -137.5 24.5t-113 69.5t-76.5 109t-28 143t28 143t76.5 109t113 69t137.5 24q52 0 94.5 -12t76.5 -32.5t60 -47.5t45 -57l-118 -64q-23 35 -63.5 61t-94.5 26q-45 0 -83.5 -16.5t-66.5 -46t-43.5 -69.5t-15.5 -87t15.5 -87.5t43.5 -69.5t66.5 -45.5
t83.5 -16.5t83.5 16t58.5 35v80h-176v124h318v-256q-51 -57 -122 -91.5t-162 -34.5zM391 710q-29 0 -48.5 19.5t-19.5 48.5q0 28 19.5 48t48.5 20q27 0 47 -20t20 -48q0 -29 -20 -48.5t-47 -19.5z" />
    <glyph glyph-name="gdotaccent" unicode="&#x121;" horiz-adv-x="585" 
d="M261 -196q-63 0 -112.5 16t-95.5 56l57 92q29 -32 67 -46t84 -14q23 0 46.5 5.5t43 19.5t31.5 37.5t12 59.5v49q-29 -36 -66.5 -56t-82.5 -20t-84 16t-67.5 47t-45 77t-16.5 106q0 59 16 105t44.5 77.5t67.5 47.5t85 16q44 0 82 -18.5t67 -55.5v62h128v-450
q0 -69 -24 -113.5t-62 -70t-84 -35.5t-91 -10zM285 116q32 0 62.5 16t46.5 39v156q-16 24 -46.5 39.5t-62.5 15.5q-54 0 -88 -35t-34 -98t34 -98t88 -35zM298 543q-29 0 -48.5 19.5t-19.5 48.5q0 28 19.5 48t48.5 20q27 0 47 -20t20 -48q0 -29 -20 -48.5t-47 -19.5z" />
    <glyph glyph-name="Gcommaaccent" unicode="&#x122;" horiz-adv-x="720" 
d="M461 -138q0 -46 -23 -85t-60 -65l-44 35q10 6 20.5 15t19 19.5t15 22t8.5 22.5q-4 -2 -15 -2q-23 0 -38 15.5t-15 40.5q0 26 17.5 44.5t43.5 18.5q28 0 49.5 -21t21.5 -60zM389 -13q-73 0 -137.5 24.5t-113 69.5t-76.5 109t-28 143t28 143t76.5 109t113 69t137.5 24
q52 0 94.5 -12t76.5 -32.5t60 -47.5t45 -57l-118 -64q-23 35 -63.5 61t-94.5 26q-45 0 -83.5 -16.5t-66.5 -46t-43.5 -69.5t-15.5 -87t15.5 -87.5t43.5 -69.5t66.5 -45.5t83.5 -16.5t83.5 16t58.5 35v80h-176v124h318v-256q-51 -57 -122 -91.5t-162 -34.5z" />
    <glyph glyph-name="gcommaaccent" unicode="&#x123;" horiz-adv-x="585" 
d="M229 611q0 48 21 89t59 67l43 -35q-9 -5 -19.5 -13.5t-19.5 -18.5t-15.5 -21.5t-7.5 -21.5q2 0 3.5 0.5t3.5 0.5q22 0 41 -16.5t19 -42.5t-18.5 -45t-45.5 -19q-10 0 -21 3.5t-20.5 12.5t-16 23.5t-6.5 36.5zM261 -196q-63 0 -112.5 16t-95.5 56l57 92q29 -32 67 -46
t84 -14q23 0 46.5 5.5t43 19.5t31.5 37.5t12 59.5v49q-29 -36 -66.5 -56t-82.5 -20t-84 16t-67.5 47t-45 77t-16.5 106q0 59 16 105t44.5 77.5t67.5 47.5t85 16q44 0 82 -18.5t67 -55.5v62h128v-450q0 -69 -24 -113.5t-62 -70t-84 -35.5t-91 -10zM285 116q32 0 62.5 16
t46.5 39v156q-16 24 -46.5 39.5t-62.5 15.5q-54 0 -88 -35t-34 -98t34 -98t88 -35z" />
    <glyph glyph-name="Hcircumflex" unicode="&#x124;" horiz-adv-x="731" 
d="M436 723l-73 89l-71 -89h-78l92 144h114l94 -144h-78zM523 0v280h-315v-280h-142v667h142v-262h315v262h143v-667h-143z" />
    <glyph glyph-name="hcircumflex" unicode="&#x125;" horiz-adv-x="580" 
d="M363 723l-73 89l-71 -89h-78l92 144h114l94 -144h-78zM390 0v294q0 50 -24.5 69t-65.5 19q-37 0 -65 -17.5t-45 -39.5v-325h-127v667h127v-247q23 28 66.5 51.5t103.5 23.5q80 0 118.5 -40.5t38.5 -111.5v-343h-127z" />
    <glyph glyph-name="Hbar" unicode="&#x126;" horiz-adv-x="748" 
d="M531 0v280h-315v-280h-142v498h-66v72h66v97h142v-97h315v97h143v-97h65v-72h-65v-498h-143zM531 405v93h-315v-93h315z" />
    <glyph glyph-name="hbar" unicode="&#x127;" horiz-adv-x="584" 
d="M194 528v-108q23 28 66.5 51.5t103.5 23.5q80 0 118.5 -40.5t38.5 -111.5v-343h-127v294q0 50 -24.5 69t-65.5 19q-37 0 -65 -17.5t-45 -39.5v-325h-127v528h-59v72h59v67h127v-67h145v-72h-145z" />
    <glyph glyph-name="Itilde" unicode="&#x128;" horiz-adv-x="274" 
d="M66 0v667h142v-667h-142zM196 721q-26 0 -42 10.5t-28 23.5t-22.5 23.5t-24.5 10.5q-15 0 -25.5 -15t-10.5 -47h-67q0 64 27.5 99t80.5 35q25 0 40.5 -10.5t27.5 -23t23 -23t25 -10.5q15 0 25.5 14.5t10.5 46.5h67q0 -64 -27 -99t-80 -35z" />
    <glyph glyph-name="itilde" unicode="&#x129;" horiz-adv-x="253" 
d="M63 0v483h127v-483h-127zM184 554q-26 0 -42 10.5t-28 23.5t-22.5 23.5t-24.5 10.5q-15 0 -25.5 -15t-10.5 -47h-67q0 64 27.5 99t80.5 35q25 0 40.5 -10.5t27.5 -23t23 -23t25 -10.5q15 0 25.5 14.5t10.5 46.5h67q0 -64 -27 -99t-80 -35z" />
    <glyph glyph-name="Imacron" unicode="&#x12a;" horiz-adv-x="274" 
d="M66 0v667h142v-667h-142zM-43 729v72h363v-72h-363z" />
    <glyph glyph-name="imacron" unicode="&#x12b;" horiz-adv-x="253" 
d="M63 0v483h127v-483h-127zM-54 562v72h363v-72h-363z" />
    <glyph glyph-name="Ibreve" unicode="&#x12c;" horiz-adv-x="274" 
d="M66 0v667h142v-667h-142zM316 786q-30 -41 -75.5 -64.5t-99.5 -23.5t-99.5 23.5t-76.5 64.5l56 47q20 -29 50.5 -45.5t69.5 -16.5q38 0 68 16.5t51 45.5l56 -47v0z" />
    <glyph glyph-name="ibreve" unicode="&#x12d;" horiz-adv-x="253" 
d="M63 0v483h127v-483h-127zM303 619q-30 -41 -75.5 -64.5t-99.5 -23.5t-99.5 23.5t-76.5 64.5l56 47q20 -29 50.5 -45.5t69.5 -16.5q38 0 68 16.5t51 45.5l56 -47v0z" />
    <glyph glyph-name="Iogonek" unicode="&#x12e;" horiz-adv-x="274" 
d="M269 -130q-14 -24 -36.5 -40t-57.5 -16q-40 0 -70 21t-30 69q0 56 45 96h-54v667h142v-667q-70 -35 -70 -90q0 -23 11.5 -33t25.5 -10q17 0 27.5 10t15.5 25z" />
    <glyph glyph-name="iogonek" unicode="&#x12f;" horiz-adv-x="253" 
d="M251 -130q-14 -24 -36.5 -40t-57.5 -16q-40 0 -70 21t-30 69q0 56 45 96h-39v483h127v-483q-70 -35 -70 -90q0 -23 11.5 -33t25.5 -10q17 0 27.5 10t15.5 25zM126 535q-31 0 -53.5 22t-22.5 54t22.5 53.5t53.5 21.5q32 0 54 -21.5t22 -53.5t-22 -54t-54 -22z" />
    <glyph glyph-name="Idotaccent" unicode="&#x130;" horiz-adv-x="274" 
d="M66 0v667h142v-667h-142zM139 710q-29 0 -48.5 19.5t-19.5 48.5q0 28 19.5 48t48.5 20q27 0 47 -20t20 -48q0 -29 -20 -48.5t-47 -19.5z" />
    <glyph glyph-name="dotlessi" unicode="&#x131;" horiz-adv-x="253" 
d="M63 0v483h127v-483h-127z" />
    <glyph glyph-name="IJ" unicode="&#x132;" horiz-adv-x="760" 
d="M66 0v667h142v-667h-142zM459 -12q-51 0 -97 15t-82 50l62 109q20 -19 45.5 -33.5t60.5 -14.5q48 0 76 29t28 78v446h142v-448q0 -59 -17.5 -102.5t-48.5 -72t-74.5 -42.5t-94.5 -14z" />
    <glyph glyph-name="ij" unicode="&#x133;" horiz-adv-x="505" 
d="M126 535q-31 0 -53.5 22t-22.5 54t22.5 53.5t53.5 21.5q32 0 54 -21.5t22 -53.5t-22 -54t-54 -22zM63 0v483h127v-483h-127zM379 535q-31 0 -53.5 22t-22.5 54t22.5 53.5t53.5 21.5q32 0 54 -21.5t22 -53.5t-22 -54t-54 -22zM271 -196q-23 0 -40 2t-30.5 6t-25.5 10.5
t-25 15.5l35 95q14 -12 28.5 -18.5t36.5 -6.5q29 0 47.5 19t18.5 60v496h127v-496q0 -83 -42.5 -133t-129.5 -50z" />
    <glyph glyph-name="Jcircumflex" unicode="&#x134;" horiz-adv-x="486" 
d="M422 723l-73 89l-71 -89h-78l92 144h114l94 -144h-78zM185 -12q-51 0 -97 15t-82 50l62 109q20 -19 45.5 -33.5t60.5 -14.5q48 0 76 29t28 78v446h142v-448q0 -59 -17.5 -102.5t-48.5 -72t-74.5 -42.5t-94.5 -14z" />
    <glyph glyph-name="jcircumflex" unicode="&#x135;" horiz-adv-x="253" 
d="M202 556l-73 89l-71 -89h-78l92 144h114l94 -144h-78zM18 -196q-23 0 -40 2t-30.5 6t-25.5 10.5t-25 15.5l35 98q14 -11 28.5 -17.5t36.5 -6.5q29 0 47.5 18.5t18.5 56.5v496h127v-496q0 -83 -42.5 -133t-129.5 -50z" />
    <glyph glyph-name="Kcommaaccent" unicode="&#x136;" horiz-adv-x="648" 
d="M395 -138q0 -46 -23 -85t-60 -65l-44 35q10 6 20.5 15t19 19.5t15 22t8.5 22.5q-4 -2 -15 -2q-23 0 -38 15.5t-15 40.5q0 26 17.5 44.5t43.5 18.5q28 0 49.5 -21t21.5 -60zM462 0l-202 267l-52 -62v-205h-142v667h142v-298l236 298h175l-265 -313l283 -354h-175z" />
    <glyph glyph-name="kcommaaccent" unicode="&#x137;" horiz-adv-x="535" 
d="M339 -138q0 -46 -23 -85t-60 -65l-44 35q10 6 20.5 15t19 19.5t15 22t8.5 22.5q-4 -2 -15 -2q-23 0 -38 15.5t-15 40.5q0 26 17.5 44.5t43.5 18.5q28 0 49.5 -21t21.5 -60zM376 0l-128 186l-58 -62v-124h-127v667h127v-399l183 215h156l-191 -219l197 -264h-159z" />
    <glyph glyph-name="kgreenlandic" unicode="&#x138;" horiz-adv-x="535" 
d="M376 0l-128 186l-58 -62v-124h-127v483h127v-215l183 215h156l-191 -219l197 -264h-159z" />
    <glyph glyph-name="Lacute" unicode="&#x139;" horiz-adv-x="523" 
d="M303 723h-89l134 144h117zM66 0v667h142v-542h282v-125h-424z" />
    <glyph glyph-name="lacute" unicode="&#x13a;" horiz-adv-x="253" 
d="M152 723h-89l134 144h117zM63 0v667h127v-667h-127z" />
    <glyph glyph-name="Lcommaaccent" unicode="&#x13b;" horiz-adv-x="523" 
d="M331 -138q0 -46 -23 -85t-60 -65l-44 35q10 6 20.5 15t19 19.5t15 22t8.5 22.5q-4 -2 -15 -2q-23 0 -38 15.5t-15 40.5q0 26 17.5 44.5t43.5 18.5q28 0 49.5 -21t21.5 -60zM66 0v667h142v-542h282v-125h-424z" />
    <glyph glyph-name="lcommaaccent" unicode="&#x13c;" horiz-adv-x="253" 
d="M198 -138q0 -46 -23 -85t-60 -65l-44 35q10 6 20.5 15t19 19.5t15 22t8.5 22.5q-4 -2 -15 -2q-23 0 -38 15.5t-15 40.5q0 26 17.5 44.5t43.5 18.5q28 0 49.5 -21t21.5 -60zM63 0v667h127v-667h-127z" />
    <glyph glyph-name="Lcaron" unicode="&#x13d;" horiz-adv-x="523" 
d="M421 599q0 -46 -23 -85t-60 -65l-44 35q10 6 20.5 15t19 19.5t15 22t8.5 22.5q-4 -2 -15 -2q-23 0 -38 15.5t-15 40.5q0 26 17.5 44.5t43.5 18.5q28 0 49.5 -21t21.5 -60zM66 0v667h142v-542h282v-125h-424z" />
    <glyph glyph-name="lcaron" unicode="&#x13e;" horiz-adv-x="354" 
d="M373 599q0 -46 -23 -85t-60 -65l-44 35q10 6 20.5 15t19 19.5t15 22t8.5 22.5q-4 -2 -15 -2q-23 0 -38 15.5t-15 40.5q0 26 17.5 44.5t43.5 18.5q28 0 49.5 -21t21.5 -60zM63 0v667h127v-667h-127z" />
    <glyph glyph-name="Ldot" unicode="&#x13f;" horiz-adv-x="542" 
d="M66 0v667h142v-542h282v-125h-424zM488 341q0 -16 -6.5 -30.5t-17.5 -25.5t-26 -17.5t-31 -6.5q-17 0 -31.5 6.5t-25.5 17.5t-17.5 25.5t-6.5 30.5q0 33 24 57t57 24t57 -24t24 -57z" />
    <glyph glyph-name="ldot" unicode="&#x140;" horiz-adv-x="384" 
d="M63 0v667h127v-667h-127zM399 244q0 -16 -6.5 -30.5t-17.5 -25.5t-26 -17.5t-31 -6.5q-17 0 -31.5 6.5t-25.5 17.5t-17.5 25.5t-6.5 30.5q0 33 24 57t57 24t57 -24t24 -57z" />
    <glyph glyph-name="Lslash" unicode="&#x141;" horiz-adv-x="537" 
d="M8 308l72 41v318h142v-236l77 44v-116l-77 -44v-190h282v-125h-424v233l-72 -41v116z" />
    <glyph glyph-name="lslash" unicode="&#x142;" horiz-adv-x="308" 
d="M8 297l83 47v323h127v-250l81 47v-93l-81 -47v-324h-127v251l-83 -47v93z" />
    <glyph glyph-name="Nacute" unicode="&#x143;" horiz-adv-x="729" 
d="M390 723h-89l134 144h117zM526 0l-318 435v-435h-142v667h146l309 -419v419h142v-667h-137z" />
    <glyph glyph-name="nacute" unicode="&#x144;" 
d="M315 556h-89l134 144h117zM389 0v292q0 51 -24 70.5t-65 19.5q-38 0 -66 -17.5t-44 -39.5v-325h-127v483h127v-63q23 28 66 51.5t103 23.5q80 0 118.5 -41.5t38.5 -112.5v-341h-127z" />
    <glyph glyph-name="Ncommaaccent" unicode="&#x145;" horiz-adv-x="729" 
d="M436 -138q0 -46 -23 -85t-60 -65l-44 35q10 6 20.5 15t19 19.5t15 22t8.5 22.5q-4 -2 -15 -2q-23 0 -38 15.5t-15 40.5q0 26 17.5 44.5t43.5 18.5q28 0 49.5 -21t21.5 -60zM526 0l-318 435v-435h-142v667h146l309 -419v419h142v-667h-137z" />
    <glyph glyph-name="ncommaaccent" unicode="&#x146;" 
d="M358 -138q0 -46 -23 -85t-60 -65l-44 35q10 6 20.5 15t19 19.5t15 22t8.5 22.5q-4 -2 -15 -2q-23 0 -38 15.5t-15 40.5q0 26 17.5 44.5t43.5 18.5q28 0 49.5 -21t21.5 -60zM389 0v292q0 51 -24 70.5t-65 19.5q-38 0 -66 -17.5t-44 -39.5v-325h-127v483h127v-63
q23 28 66 51.5t103 23.5q80 0 118.5 -41.5t38.5 -112.5v-341h-127z" />
    <glyph glyph-name="Ncaron" unicode="&#x147;" horiz-adv-x="729" 
d="M308 723l-95 144h78l74 -90l70 90h78l-91 -144h-114zM526 0l-318 435v-435h-142v667h146l309 -419v419h142v-667h-137z" />
    <glyph glyph-name="ncaron" unicode="&#x148;" 
d="M235 556l-95 144h78l74 -90l70 90h78l-91 -144h-114zM389 0v292q0 51 -24 70.5t-65 19.5q-38 0 -66 -17.5t-44 -39.5v-325h-127v483h127v-63q23 28 66 51.5t103 23.5q80 0 118.5 -41.5t38.5 -112.5v-341h-127z" />
    <glyph glyph-name="napostrophe" unicode="&#x149;" 
d="M177 683q0 -46 -23 -85t-60 -65l-44 35q10 6 20.5 15t19 19.5t15 22t8.5 22.5q-4 -2 -15 -2q-23 0 -38 15.5t-15 40.5q0 26 17.5 44.5t43.5 18.5q28 0 49.5 -21t21.5 -60zM389 0v292q0 51 -24 70.5t-65 19.5q-38 0 -66 -17.5t-44 -39.5v-325h-127v483h127v-63
q23 28 66 51.5t103 23.5q80 0 118.5 -41.5t38.5 -112.5v-341h-127z" />
    <glyph glyph-name="Eng" unicode="&#x14a;" horiz-adv-x="729" 
d="M428 -196q-51 0 -97 15t-83 50l63 109q19 -19 45 -33.5t61 -14.5q40 0 66.5 21t34.5 59l-310 425v-435h-142v667h146l309 -419v419h142v-633q0 -59 -17.5 -102t-48.5 -71.5t-74.5 -42.5t-94.5 -14z" />
    <glyph glyph-name="eng" unicode="&#x14b;" 
d="M516 -13q0 -83 -42 -133t-130 -50q-23 0 -39.5 2t-30 6t-25 10.5t-24.5 15.5l34 103q14 -11 28.5 -17.5t35.5 -6.5q30 0 48 17.5t18 52.5v305q0 51 -24 70.5t-65 19.5q-38 0 -66 -17.5t-44 -39.5v-325h-127v483h127v-63q23 28 66 51.5t103 23.5q80 0 118.5 -41.5
t38.5 -112.5v-354z" />
    <glyph glyph-name="Omacron" unicode="&#x14c;" horiz-adv-x="765" 
d="M200 729v72h363v-72h-363zM382 -12q-75 0 -139 25.5t-110.5 71.5t-72.5 109.5t-26 138.5t26 138.5t72.5 109.5t110.5 71.5t139 25.5q76 0 140 -25.5t110.5 -71.5t72.5 -109.5t26 -138.5t-26 -138.5t-72.5 -109.5t-110.5 -71.5t-140 -25.5zM382 114q46 0 83.5 17t64 46
t41 69t14.5 87t-14.5 87t-41 69.5t-64 46t-83.5 16.5t-83.5 -16.5t-63.5 -46t-40.5 -69.5t-14.5 -87t14.5 -87t40.5 -69t63.5 -46t83.5 -17z" />
    <glyph glyph-name="omacron" unicode="&#x14d;" horiz-adv-x="574" 
d="M106 562v72h363v-72h-363zM287 -12q-60 0 -107 20.5t-80 55t-50.5 80.5t-17.5 98q0 51 17.5 97t50.5 80.5t80 55t107 20.5t107.5 -20.5t80.5 -55t50.5 -80.5t17.5 -97q0 -52 -17.5 -98t-50.5 -80.5t-80.5 -55t-107.5 -20.5zM287 101q30 0 53 11.5t38.5 30.5t24 44.5
t8.5 54.5q0 28 -8.5 53.5t-24 44.5t-38.5 30.5t-53 11.5t-52.5 -11.5t-38.5 -30.5t-24 -44.5t-8 -53.5q0 -29 8 -54.5t24 -44.5t38.5 -30.5t52.5 -11.5z" />
    <glyph glyph-name="Obreve" unicode="&#x14e;" horiz-adv-x="765" 
d="M382 -12q-75 0 -139 25.5t-110.5 71.5t-72.5 109.5t-26 138.5t26 138.5t72.5 109.5t110.5 71.5t139 25.5q76 0 140 -25.5t110.5 -71.5t72.5 -109.5t26 -138.5t-26 -138.5t-72.5 -109.5t-110.5 -71.5t-140 -25.5zM382 114q46 0 83.5 17t64 46t41 69t14.5 87t-14.5 87
t-41 69.5t-64 46t-83.5 16.5t-83.5 -16.5t-63.5 -46t-40.5 -69.5t-14.5 -87t14.5 -87t40.5 -69t63.5 -46t83.5 -17zM557 786q-30 -41 -75.5 -64.5t-99.5 -23.5t-99.5 23.5t-76.5 64.5l56 47q20 -29 50.5 -45.5t69.5 -16.5q38 0 68 16.5t51 45.5l56 -47v0z" />
    <glyph glyph-name="obreve" unicode="&#x14f;" horiz-adv-x="574" 
d="M287 -12q-60 0 -107 20.5t-80 55t-50.5 80.5t-17.5 98q0 51 17.5 97t50.5 80.5t80 55t107 20.5t107.5 -20.5t80.5 -55t50.5 -80.5t17.5 -97q0 -52 -17.5 -98t-50.5 -80.5t-80.5 -55t-107.5 -20.5zM287 101q30 0 53 11.5t38.5 30.5t24 44.5t8.5 54.5q0 28 -8.5 53.5
t-24 44.5t-38.5 30.5t-53 11.5t-52.5 -11.5t-38.5 -30.5t-24 -44.5t-8 -53.5q0 -29 8 -54.5t24 -44.5t38.5 -30.5t52.5 -11.5zM462 619q-30 -41 -75.5 -64.5t-99.5 -23.5t-99.5 23.5t-76.5 64.5l56 47q20 -29 50.5 -45.5t69.5 -16.5q38 0 68 16.5t51 45.5l56 -47v0z" />
    <glyph glyph-name="Ohungarumlaut" unicode="&#x150;" horiz-adv-x="765" 
d="M334 723h-74l87 144h102zM483 723h-74l87 144h102zM382 -12q-75 0 -139 25.5t-110.5 71.5t-72.5 109.5t-26 138.5t26 138.5t72.5 109.5t110.5 71.5t139 25.5q76 0 140 -25.5t110.5 -71.5t72.5 -109.5t26 -138.5t-26 -138.5t-72.5 -109.5t-110.5 -71.5t-140 -25.5z
M382 114q46 0 83.5 17t64 46t41 69t14.5 87t-14.5 87t-41 69.5t-64 46t-83.5 16.5t-83.5 -16.5t-63.5 -46t-40.5 -69.5t-14.5 -87t14.5 -87t40.5 -69t63.5 -46t83.5 -17z" />
    <glyph glyph-name="ohungarumlaut" unicode="&#x151;" horiz-adv-x="574" 
d="M238 556h-74l87 144h102zM387 556h-74l87 144h102zM287 -12q-60 0 -107 20.5t-80 55t-50.5 80.5t-17.5 98q0 51 17.5 97t50.5 80.5t80 55t107 20.5t107.5 -20.5t80.5 -55t50.5 -80.5t17.5 -97q0 -52 -17.5 -98t-50.5 -80.5t-80.5 -55t-107.5 -20.5zM287 101q30 0 53 11.5
t38.5 30.5t24 44.5t8.5 54.5q0 28 -8.5 53.5t-24 44.5t-38.5 30.5t-53 11.5t-52.5 -11.5t-38.5 -30.5t-24 -44.5t-8 -53.5q0 -29 8 -54.5t24 -44.5t38.5 -30.5t52.5 -11.5z" />
    <glyph glyph-name="OE" unicode="&#x152;" horiz-adv-x="1084" 
d="M569 0v78q-34 -45 -90 -67.5t-111 -22.5q-73 0 -134 25.5t-105.5 71t-69.5 109t-25 139.5t25 139t69.5 108.5t105.5 71t134 25.5q55 0 111 -22t90 -67v79h472v-125h-329v-141h322v-125h-322v-151h329v-125h-472zM569 436q-24 57 -72 86t-109 29q-48 0 -86.5 -16.5
t-65.5 -45.5t-41.5 -69t-14.5 -87t14.5 -87t41.5 -69t65.5 -46t86.5 -17q61 0 109 30t72 86v206z" />
    <glyph glyph-name="oe" unicode="&#x153;" horiz-adv-x="931" 
d="M544 201q3 -22 13.5 -42.5t28 -36t42 -24.5t55.5 -9q34 0 69 12.5t59 34.5l57 -81q-37 -33 -90 -50t-109 -17q-40 0 -71 10t-54 25.5t-40 34.5t-29 37q-12 -17 -28.5 -36t-39.5 -35t-52.5 -26t-67.5 -10q-60 0 -107 20.5t-80 55t-50.5 80.5t-17.5 98q0 51 17.5 97
t50.5 80.5t80 55t107 20.5q38 0 67.5 -10.5t52.5 -26.5t40 -35t29 -36q11 18 27.5 37t39 34.5t52 26t66.5 10.5q54 0 98.5 -19.5t76 -54.5t49 -84t17.5 -108v-28h-358zM780 287q-1 17 -8 36t-21.5 34.5t-37 26t-53.5 10.5q-29 0 -50.5 -10t-36 -25.5t-22 -34.5t-9.5 -37h238
zM411 242q0 62 -33.5 101t-90.5 39q-56 0 -89.5 -39t-33.5 -101q0 -63 33.5 -102.5t89.5 -39.5q57 0 90.5 39.5t33.5 102.5z" />
    <glyph glyph-name="Racute" unicode="&#x154;" horiz-adv-x="643" 
d="M355 723h-89l134 144h117zM443 0l-131 237h-104v-237h-142v667h312q52 0 93.5 -16t70.5 -45t44.5 -68.5t15.5 -85.5q0 -44 -12.5 -78t-33.5 -58.5t-47 -40t-53 -21.5l150 -254h-163zM357 362q43 0 71.5 24t28.5 66t-28.5 66t-71.5 24h-149v-180h149z" />
    <glyph glyph-name="racute" unicode="&#x155;" horiz-adv-x="360" 
d="M229 556h-89l134 144h117zM63 0v483h127v-66q26 32 67.5 55t86.5 23v-124q-14 3 -35 3q-16 0 -33.5 -4t-34 -11.5t-30 -17.5t-21.5 -22v-319h-127z" />
    <glyph glyph-name="Rcommaaccent" unicode="&#x156;" horiz-adv-x="643" 
d="M396 -138q0 -46 -23 -85t-60 -65l-44 35q10 6 20.5 15t19 19.5t15 22t8.5 22.5q-4 -2 -15 -2q-23 0 -38 15.5t-15 40.5q0 26 17.5 44.5t43.5 18.5q28 0 49.5 -21t21.5 -60zM443 0l-131 237h-104v-237h-142v667h312q52 0 93.5 -16t70.5 -45t44.5 -68.5t15.5 -85.5
q0 -44 -12.5 -78t-33.5 -58.5t-47 -40t-53 -21.5l150 -254h-163zM357 362q43 0 71.5 24t28.5 66t-28.5 66t-71.5 24h-149v-180h149z" />
    <glyph glyph-name="rcommaaccent" unicode="&#x157;" horiz-adv-x="360" 
d="M251 -138q0 -46 -23 -85t-60 -65l-44 35q10 6 20.5 15t19 19.5t15 22t8.5 22.5q-4 -2 -15 -2q-23 0 -38 15.5t-15 40.5q0 26 17.5 44.5t43.5 18.5q28 0 49.5 -21t21.5 -60zM63 0v483h127v-66q26 32 67.5 55t86.5 23v-124q-14 3 -35 3q-16 0 -33.5 -4t-34 -11.5t-30 -17.5
t-21.5 -22v-319h-127z" />
    <glyph glyph-name="Rcaron" unicode="&#x158;" horiz-adv-x="643" 
d="M269 723l-95 144h78l74 -90l70 90h78l-91 -144h-114zM443 0l-131 237h-104v-237h-142v667h312q52 0 93.5 -16t70.5 -45t44.5 -68.5t15.5 -85.5q0 -44 -12.5 -78t-33.5 -58.5t-47 -40t-53 -21.5l150 -254h-163zM357 362q43 0 71.5 24t28.5 66t-28.5 66t-71.5 24h-149v-180
h149z" />
    <glyph glyph-name="rcaron" unicode="&#x159;" horiz-adv-x="360" 
d="M147 556l-95 144h78l74 -90l70 90h78l-91 -144h-114zM63 0v483h127v-66q26 32 67.5 55t86.5 23v-124q-14 3 -35 3q-16 0 -33.5 -4t-34 -11.5t-30 -17.5t-21.5 -22v-319h-127z" />
    <glyph glyph-name="Sacute" unicode="&#x15a;" horiz-adv-x="600" 
d="M324 723h-89l134 144h117zM303 -12q-97 0 -166 29t-116 77l77 108q35 -37 89 -63.5t123 -26.5q59 0 87.5 22.5t28.5 51.5t-28.5 44.5t-71 26.5t-92.5 23t-92.5 34t-71 59.5t-28.5 100.5q0 42 17.5 78.5t50 64.5t79.5 44t106 16q159 0 260 -93l-79 -104q-41 38 -92 55.5
t-102 17.5q-46 0 -70.5 -18.5t-24.5 -48.5q0 -26 28.5 -40.5t71 -25t92 -23t92 -35t71 -60.5t28.5 -100q0 -46 -16.5 -85t-49.5 -67.5t-83.5 -45t-117.5 -16.5z" />
    <glyph glyph-name="sacute" unicode="&#x15b;" horiz-adv-x="477" 
d="M263 556h-89l134 144h117zM237 -12q-63 0 -120.5 20t-95.5 55l55 89q13 -12 32.5 -24t42 -21.5t46 -15t46.5 -5.5q42 0 61.5 14.5t19.5 37.5q0 20 -21.5 30t-53 16.5t-69 14.5t-69 24t-53 44t-21.5 76q0 30 13 57.5t38.5 48.5t62 33.5t84.5 12.5q62 0 110.5 -18.5
t84.5 -47.5l-51 -87q-22 23 -60 39.5t-83 16.5q-35 0 -55.5 -14t-20.5 -34q0 -18 21 -27t53 -15.5t69 -15t69 -25.5t53 -46t21 -78q0 -33 -14 -61.5t-40.5 -49t-65.5 -32.5t-89 -12z" />
    <glyph glyph-name="Scircumflex" unicode="&#x15c;" horiz-adv-x="600" 
d="M365 723l-73 89l-71 -89h-78l92 144h114l94 -144h-78zM303 -12q-97 0 -166 29t-116 77l77 108q35 -37 89 -63.5t123 -26.5q59 0 87.5 22.5t28.5 51.5t-28.5 44.5t-71 26.5t-92.5 23t-92.5 34t-71 59.5t-28.5 100.5q0 42 17.5 78.5t50 64.5t79.5 44t106 16q159 0 260 -93
l-79 -104q-41 38 -92 55.5t-102 17.5q-46 0 -70.5 -18.5t-24.5 -48.5q0 -26 28.5 -40.5t71 -25t92 -23t92 -35t71 -60.5t28.5 -100q0 -46 -16.5 -85t-49.5 -67.5t-83.5 -45t-117.5 -16.5z" />
    <glyph glyph-name="scircumflex" unicode="&#x15d;" horiz-adv-x="477" 
d="M309 556l-73 89l-71 -89h-78l92 144h114l94 -144h-78zM237 -12q-63 0 -120.5 20t-95.5 55l55 89q13 -12 32.5 -24t42 -21.5t46 -15t46.5 -5.5q42 0 61.5 14.5t19.5 37.5q0 20 -21.5 30t-53 16.5t-69 14.5t-69 24t-53 44t-21.5 76q0 30 13 57.5t38.5 48.5t62 33.5
t84.5 12.5q62 0 110.5 -18.5t84.5 -47.5l-51 -87q-22 23 -60 39.5t-83 16.5q-35 0 -55.5 -14t-20.5 -34q0 -18 21 -27t53 -15.5t69 -15t69 -25.5t53 -46t21 -78q0 -33 -14 -61.5t-40.5 -49t-65.5 -32.5t-89 -12z" />
    <glyph glyph-name="Scedilla" unicode="&#x15e;" horiz-adv-x="600" 
d="M292 -196q-36 0 -65 9.5t-45 22.5l25 51q38 -29 81 -29q20 0 36 8t16 25q0 26 -29 26q-18 0 -32 -14l-46 26l22 61q-78 8 -135.5 35t-98.5 69l77 108q35 -37 89 -63.5t123 -26.5q59 0 87.5 22.5t28.5 51.5t-28.5 44.5t-71 26.5t-92.5 23t-92.5 34t-71 59.5t-28.5 100.5
q0 42 17.5 78.5t50 64.5t79.5 44t106 16q159 0 260 -93l-79 -104q-41 38 -92 55.5t-102 17.5q-46 0 -70.5 -18.5t-24.5 -48.5q0 -26 28.5 -40.5t71 -25t92 -23t92 -35t71 -60.5t28.5 -100q0 -45 -15.5 -83t-47 -66.5t-79.5 -45.5t-112 -19l-16 -39q17 10 36 10
q28 0 47.5 -19t19.5 -51q0 -40 -33 -62.5t-78 -22.5z" />
    <glyph glyph-name="scedilla" unicode="&#x15f;" horiz-adv-x="477" 
d="M236 -196q-36 0 -65 9.5t-45 22.5l25 51q38 -29 81 -29q20 0 36 8t16 25q0 26 -29 26q-18 0 -32 -14l-46 26l22 61q-53 5 -99.5 24t-78.5 49l55 89q13 -12 32.5 -24t42 -21.5t46 -15t46.5 -5.5q42 0 61.5 14.5t19.5 37.5q0 20 -21.5 30t-53 16.5t-69 14.5t-69 24t-53 44
t-21.5 76q0 30 13 57.5t38.5 48.5t62 33.5t84.5 12.5q62 0 110.5 -18.5t84.5 -47.5l-51 -87q-22 23 -60 39.5t-83 16.5q-35 0 -55.5 -14t-20.5 -34q0 -18 21 -27t53 -15.5t69 -15t69 -25.5t53 -46t21 -78q0 -31 -12.5 -58t-36 -47.5t-58 -33t-79.5 -15.5l-16 -40
q17 10 36 10q28 0 47.5 -19t19.5 -51q0 -40 -33 -62.5t-78 -22.5z" />
    <glyph glyph-name="Scaron" unicode="&#x160;" horiz-adv-x="600" 
d="M238 723l-95 144h78l74 -90l70 90h78l-91 -144h-114zM303 -12q-97 0 -166 29t-116 77l77 108q35 -37 89 -63.5t123 -26.5q59 0 87.5 22.5t28.5 51.5t-28.5 44.5t-71 26.5t-92.5 23t-92.5 34t-71 59.5t-28.5 100.5q0 42 17.5 78.5t50 64.5t79.5 44t106 16q159 0 260 -93
l-79 -104q-41 38 -92 55.5t-102 17.5q-46 0 -70.5 -18.5t-24.5 -48.5q0 -26 28.5 -40.5t71 -25t92 -23t92 -35t71 -60.5t28.5 -100q0 -46 -16.5 -85t-49.5 -67.5t-83.5 -45t-117.5 -16.5z" />
    <glyph glyph-name="scaron" unicode="&#x161;" horiz-adv-x="477" 
d="M182 556l-95 144h78l74 -90l70 90h78l-91 -144h-114zM237 -12q-63 0 -120.5 20t-95.5 55l55 89q13 -12 32.5 -24t42 -21.5t46 -15t46.5 -5.5q42 0 61.5 14.5t19.5 37.5q0 20 -21.5 30t-53 16.5t-69 14.5t-69 24t-53 44t-21.5 76q0 30 13 57.5t38.5 48.5t62 33.5
t84.5 12.5q62 0 110.5 -18.5t84.5 -47.5l-51 -87q-22 23 -60 39.5t-83 16.5q-35 0 -55.5 -14t-20.5 -34q0 -18 21 -27t53 -15.5t69 -15t69 -25.5t53 -46t21 -78q0 -33 -14 -61.5t-40.5 -49t-65.5 -32.5t-89 -12z" />
    <glyph glyph-name="Tcommaaccent" unicode="&#x162;" horiz-adv-x="582" 
d="M362 -138q0 -46 -23 -85t-60 -65l-44 35q10 6 20.5 15t19 19.5t15 22t8.5 22.5q-4 -2 -15 -2q-23 0 -38 15.5t-15 40.5q0 26 17.5 44.5t43.5 18.5q28 0 49.5 -21t21.5 -60zM220 0v542h-195v125h532v-125h-194v-542h-143z" />
    <glyph glyph-name="tcommaaccent" unicode="&#x163;" horiz-adv-x="338" 
d="M240 -138q0 -46 -23 -85t-60 -65l-44 35q10 6 20.5 15t19 19.5t15 22t8.5 22.5q-4 -2 -15 -2q-23 0 -38 15.5t-15 40.5q0 26 17.5 44.5t43.5 18.5q28 0 49.5 -21t21.5 -60zM225 -12q-67 0 -102 33.5t-35 98.5v252h-80v111h80v132h128v-132h98v-111h-98v-218
q0 -23 11.5 -38t32.5 -15q14 0 26.5 4.5t17.5 9.5l27 -96q-14 -13 -40 -22t-66 -9z" />
    <glyph glyph-name="Tcaron" unicode="&#x164;" horiz-adv-x="582" 
d="M236 723l-95 144h78l74 -90l70 90h78l-91 -144h-114zM220 0v542h-195v125h532v-125h-194v-542h-143z" />
    <glyph glyph-name="tcaron" unicode="&#x165;" horiz-adv-x="380" 
d="M402 683q0 -46 -23 -85t-60 -65l-44 35q10 6 20.5 15t19 19.5t15 22t8.5 22.5q-4 -2 -15 -2q-23 0 -38 15.5t-15 40.5q0 26 17.5 44.5t43.5 18.5q28 0 49.5 -21t21.5 -60zM225 -12q-67 0 -102 33.5t-35 98.5v252h-80v111h80v132h128v-132h98v-111h-98v-218
q0 -23 11.5 -38t32.5 -15q14 0 26.5 4.5t17.5 9.5l27 -96q-14 -13 -40 -22t-66 -9z" />
    <glyph glyph-name="Tbar" unicode="&#x166;" horiz-adv-x="582" 
d="M220 0v263h-133v72h133v207h-195v125h532v-125h-194v-207h134v-72h-134v-263h-143z" />
    <glyph glyph-name="tbar" unicode="&#x167;" horiz-adv-x="338" 
d="M225 -12q-67 0 -102 33.5t-35 98.5v89h-80v72h80v91h-80v111h80v132h128v-132h98v-111h-98v-91h68v-72h-68v-55q0 -23 11.5 -38t32.5 -15q14 0 26.5 4.5t17.5 9.5l27 -96q-14 -13 -40 -22t-66 -9z" />
    <glyph glyph-name="Utilde" unicode="&#x168;" horiz-adv-x="733" 
d="M367 -12q-76 0 -132.5 20.5t-94 57t-56 87.5t-18.5 113v401h144v-396q0 -70 39.5 -113.5t117.5 -43.5t117 43.5t39 113.5v396h145v-400q0 -62 -18.5 -113.5t-56 -88.5t-94 -57t-132.5 -20zM425 721q-26 0 -42 10.5t-28 23.5t-22.5 23.5t-24.5 10.5q-15 0 -25.5 -15
t-10.5 -47h-67q0 64 27.5 99t80.5 35q25 0 40.5 -10.5t27.5 -23t23 -23t25 -10.5q15 0 25.5 14.5t10.5 46.5h67q0 -64 -27 -99t-80 -35z" />
    <glyph glyph-name="utilde" unicode="&#x169;" 
d="M389 0v61q-25 -28 -67.5 -50.5t-102.5 -22.5q-80 0 -118 40.5t-38 111.5v343h127v-293q0 -50 24 -69.5t65 -19.5q37 0 65 17t45 38v327h127v-483h-127zM346 554q-26 0 -42 10.5t-28 23.5t-22.5 23.5t-24.5 10.5q-15 0 -25.5 -15t-10.5 -47h-67q0 64 27.5 99t80.5 35
q25 0 40.5 -10.5t27.5 -23t23 -23t25 -10.5q15 0 25.5 14.5t10.5 46.5h67q0 -64 -27 -99t-80 -35z" />
    <glyph glyph-name="Umacron" unicode="&#x16a;" horiz-adv-x="733" 
d="M367 -12q-76 0 -132.5 20.5t-94 57t-56 87.5t-18.5 113v401h144v-396q0 -70 39.5 -113.5t117.5 -43.5t117 43.5t39 113.5v396h145v-400q0 -62 -18.5 -113.5t-56 -88.5t-94 -57t-132.5 -20zM187 729v72h363v-72h-363z" />
    <glyph glyph-name="umacron" unicode="&#x16b;" 
d="M389 0v61q-25 -28 -67.5 -50.5t-102.5 -22.5q-80 0 -118 40.5t-38 111.5v343h127v-293q0 -50 24 -69.5t65 -19.5q37 0 65 17t45 38v327h127v-483h-127zM107 562v72h363v-72h-363z" />
    <glyph glyph-name="Ubreve" unicode="&#x16c;" horiz-adv-x="733" 
d="M367 -12q-76 0 -132.5 20.5t-94 57t-56 87.5t-18.5 113v401h144v-396q0 -70 39.5 -113.5t117.5 -43.5t117 43.5t39 113.5v396h145v-400q0 -62 -18.5 -113.5t-56 -88.5t-94 -57t-132.5 -20zM544 786q-30 -41 -75.5 -64.5t-99.5 -23.5t-99.5 23.5t-76.5 64.5l56 47
q20 -29 50.5 -45.5t69.5 -16.5q38 0 68 16.5t51 45.5l56 -47v0z" />
    <glyph glyph-name="ubreve" unicode="&#x16d;" 
d="M389 0v61q-25 -28 -67.5 -50.5t-102.5 -22.5q-80 0 -118 40.5t-38 111.5v343h127v-293q0 -50 24 -69.5t65 -19.5q37 0 65 17t45 38v327h127v-483h-127zM466 619q-30 -41 -75.5 -64.5t-99.5 -23.5t-99.5 23.5t-76.5 64.5l56 47q20 -29 50.5 -45.5t69.5 -16.5q38 0 68 16.5
t51 45.5l56 -47v0z" />
    <glyph glyph-name="Uring" unicode="&#x16e;" horiz-adv-x="733" 
d="M369 698q-21 0 -40.5 8t-33.5 22.5t-22.5 33.5t-8.5 41q0 21 8.5 40.5t22.5 34t33.5 23t40.5 8.5q22 0 41 -8.5t33 -23t22 -34t8 -40.5q0 -22 -8 -41t-22 -33.5t-33 -22.5t-41 -8zM369 756q20 0 33 14t13 33q0 20 -13 33.5t-33 13.5q-19 0 -33 -13.5t-14 -33.5
q0 -19 14 -33t33 -14zM367 -12q-76 0 -132.5 20.5t-94 57t-56 87.5t-18.5 113v401h144v-396q0 -70 39.5 -113.5t117.5 -43.5t117 43.5t39 113.5v396h145v-400q0 -62 -18.5 -113.5t-56 -88.5t-94 -57t-132.5 -20z" />
    <glyph glyph-name="uring" unicode="&#x16f;" 
d="M290 531q-21 0 -40.5 8t-33.5 22.5t-22.5 33.5t-8.5 41q0 21 8.5 40.5t22.5 34t33.5 23t40.5 8.5q22 0 41 -8.5t33 -23t22 -34t8 -40.5q0 -22 -8 -41t-22 -33.5t-33 -22.5t-41 -8zM290 589q20 0 33 14t13 33q0 20 -13 33.5t-33 13.5q-19 0 -33 -13.5t-14 -33.5
q0 -19 14 -33t33 -14zM389 0v61q-25 -28 -67.5 -50.5t-102.5 -22.5q-80 0 -118 40.5t-38 111.5v343h127v-293q0 -50 24 -69.5t65 -19.5q37 0 65 17t45 38v327h127v-483h-127z" />
    <glyph glyph-name="Uhungarumlaut" unicode="&#x170;" horiz-adv-x="733" 
d="M367 -12q-76 0 -132.5 20.5t-94 57t-56 87.5t-18.5 113v401h144v-396q0 -70 39.5 -113.5t117.5 -43.5t117 43.5t39 113.5v396h145v-400q0 -62 -18.5 -113.5t-56 -88.5t-94 -57t-132.5 -20zM320 723h-74l87 144h102zM469 723h-74l87 144h102z" />
    <glyph glyph-name="uhungarumlaut" unicode="&#x171;" 
d="M389 0v61q-25 -28 -67.5 -50.5t-102.5 -22.5q-80 0 -118 40.5t-38 111.5v343h127v-293q0 -50 24 -69.5t65 -19.5q37 0 65 17t45 38v327h127v-483h-127zM240 556h-74l87 144h102zM389 556h-74l87 144h102z" />
    <glyph glyph-name="Uogonek" unicode="&#x172;" horiz-adv-x="733" 
d="M367 -12q-76 0 -132.5 20.5t-94 57t-56 87.5t-18.5 113v401h144v-396q0 -70 39.5 -113.5t117.5 -43.5t117 43.5t39 113.5v396h145v-400q0 -102 -48 -172t-148 -95q-70 -35 -70 -90q0 -23 11.5 -33t25.5 -10q17 0 27.5 10t15.5 25l51 -32q-14 -24 -36.5 -40t-57.5 -16
q-40 0 -70 21t-30 69q0 46 33 84h-5v0z" />
    <glyph glyph-name="uogonek" unicode="&#x173;" 
d="M516 0q-70 -35 -70 -90q0 -23 11.5 -33t25.5 -10q17 0 27.5 10t15.5 25l51 -32q-14 -24 -36.5 -40t-57.5 -16q-40 0 -70 21t-30 69q0 56 45 96h-39v61q-25 -28 -67.5 -50.5t-102.5 -22.5q-80 0 -118 40.5t-38 111.5v343h127v-293q0 -50 24 -69.5t65 -19.5q37 0 65 17
t45 38v327h127v-483v0z" />
    <glyph glyph-name="Wcircumflex" unicode="&#x174;" horiz-adv-x="918" 
d="M531 723l-73 89l-71 -89h-78l92 144h114l94 -144h-78zM576 0l-117 458l-116 -458h-151l-191 667h159l117 -482l127 482h111l126 -482l116 482h160l-190 -667h-151z" />
    <glyph glyph-name="wcircumflex" unicode="&#x175;" horiz-adv-x="769" 
d="M457 556l-73 89l-71 -89h-78l92 144h114l94 -144h-78zM487 0l-102 329l-102 -329h-136l-147 483h132l90 -325l106 325h113l106 -325l90 325h132l-147 -483h-135z" />
    <glyph glyph-name="Ycircumflex" unicode="&#x176;" horiz-adv-x="645" 
d="M396 723l-73 89l-71 -89h-78l92 144h114l94 -144h-78zM252 0v273l-257 394h162l166 -268l164 268h162l-255 -394v-273h-142z" />
    <glyph glyph-name="ycircumflex" unicode="&#x177;" horiz-adv-x="513" 
d="M65 -75q8 -4 19.5 -6t20.5 -2q25 0 41.5 7.5t25.5 27.5l18 41l-196 490h136l126 -336l126 336h137l-227 -562q-27 -68 -74 -92t-109 -25q-11 0 -31 2t-32 5zM328 556l-73 89l-71 -89h-78l92 144h114l94 -144h-78z" />
    <glyph glyph-name="Ydieresis" unicode="&#x178;" horiz-adv-x="645" 
d="M497 778q0 -29 -20 -48.5t-48 -19.5t-48 19.5t-20 48.5q0 28 20 47.5t48 19.5t48 -19.5t20 -47.5zM285 778q0 -29 -19.5 -48.5t-47.5 -19.5q-29 0 -48.5 19.5t-19.5 48.5q0 28 19.5 47.5t48.5 19.5q28 0 47.5 -19.5t19.5 -47.5zM252 0v273l-257 394h162l166 -268l164 268
h162l-255 -394v-273h-142z" />
    <glyph glyph-name="Zacute" unicode="&#x179;" horiz-adv-x="592" 
d="M306 723h-89l134 144h117zM42 0v115l315 427h-315v125h501v-114l-315 -428h322v-125h-508z" />
    <glyph glyph-name="zacute" unicode="&#x17a;" horiz-adv-x="479" 
d="M264 556h-89l134 144h117zM42 0v95l218 277h-218v111h390v-92l-221 -280h225v-111h-394z" />
    <glyph glyph-name="Zdotaccent" unicode="&#x17b;" horiz-adv-x="592" 
d="M42 0v115l315 427h-315v125h501v-114l-315 -428h322v-125h-508zM291 710q-29 0 -48.5 19.5t-19.5 48.5q0 28 19.5 48t48.5 20q27 0 47 -20t20 -48q0 -29 -20 -48.5t-47 -19.5z" />
    <glyph glyph-name="zdotaccent" unicode="&#x17c;" horiz-adv-x="479" 
d="M42 0v95l218 277h-218v111h390v-92l-221 -280h225v-111h-394zM238 543q-29 0 -48.5 19.5t-19.5 48.5q0 28 19.5 48t48.5 20q27 0 47 -20t20 -48q0 -29 -20 -48.5t-47 -19.5z" />
    <glyph glyph-name="Zcaron" unicode="&#x17d;" horiz-adv-x="592" 
d="M238 723l-95 144h78l74 -90l70 90h78l-91 -144h-114zM42 0v115l315 427h-315v125h501v-114l-315 -428h322v-125h-508z" />
    <glyph glyph-name="zcaron" unicode="&#x17e;" horiz-adv-x="479" 
d="M180 556l-95 144h78l74 -90l70 90h78l-91 -144h-114zM42 0v95l218 277h-218v111h390v-92l-221 -280h225v-111h-394z" />
    <glyph glyph-name="longs" unicode="&#x17f;" horiz-adv-x="327" 
d="M91 0v372h-80v111h80v26q0 78 45 123t118 45q35 0 69 -10t57 -35l-48 -80q-20 20 -53 20q-26 0 -43 -17t-17 -46v-509h-128z" />
    <glyph glyph-name="florin" unicode="&#x192;" horiz-adv-x="454" 
d="M8 -161l88 399h-54v112h78l37 166q8 36 26 65.5t44.5 51t59 33t68.5 11.5q35 0 65 -9.5t53 -33.5l-54 -103q-19 21 -47 21q-27 0 -47.5 -17.5t-28.5 -49.5l-30 -135h113v-112h-138l-88 -399h-145z" />
    <glyph glyph-name="Ohorn" unicode="&#x1a0;" horiz-adv-x="765" 
d="M382 -12q-75 0 -139 25.5t-110.5 71.5t-72.5 109.5t-26 138.5t26 138.5t72.5 109.5t110.5 71.5t139 25.5q80 0 146 -28.5t114 -79.5q15 13 27.5 30.5t16.5 33.5q-4 -2 -14 -2q-20 0 -34 14t-14 37t16 39.5t39 16.5q25 0 44 -19t19 -54q0 -40 -19 -74.5t-51 -58.5
q29 -42 44 -92.5t15 -107.5q0 -75 -26 -138.5t-72.5 -109.5t-110.5 -71.5t-140 -25.5zM382 114q46 0 83.5 17t64 46t41 69t14.5 87t-14.5 87t-41 69.5t-64 46t-83.5 16.5t-83.5 -16.5t-63.5 -46t-40.5 -69.5t-14.5 -87t14.5 -87t40.5 -69t63.5 -46t83.5 -17z" />
    <glyph glyph-name="ohorn" unicode="&#x1a1;" horiz-adv-x="574" 
d="M552 532q0 -38 -17.5 -71t-46.5 -57q27 -33 41 -74.5t14 -87.5q0 -52 -17.5 -98t-50.5 -80.5t-80.5 -55t-107.5 -20.5t-107 20.5t-80 55t-50.5 80.5t-17.5 98q0 51 17.5 97t50.5 80.5t80 55t107 20.5q51 0 93 -15t74 -41q14 12 26 28.5t16 33.5q-4 -2 -14 -2
q-20 0 -34 14t-14 37t16 39.5t39 16.5q25 0 44 -19.5t19 -54.5zM287 101q30 0 53 11.5t38.5 30.5t24 44.5t8.5 54.5q0 28 -8.5 53.5t-24 44.5t-38.5 30.5t-53 11.5t-52.5 -11.5t-38.5 -30.5t-24 -44.5t-8 -53.5q0 -29 8 -54.5t24 -44.5t38.5 -30.5t52.5 -11.5z" />
    <glyph glyph-name="Uhorn" unicode="&#x1af;" horiz-adv-x="733" 
d="M777 726q0 -45 -27.5 -87.5t-81.5 -67.5v-304q0 -62 -18.5 -113.5t-56 -88.5t-94 -57t-132.5 -20t-132.5 20.5t-94 57t-56 87.5t-18.5 113v401h144v-396q0 -70 39.5 -113.5t117.5 -43.5t117 43.5t39 113.5v396h145v-43q19 13 34 32.5t19 39.5q-3 -3 -14 -3
q-20 0 -34 14.5t-14 37.5t16 39t39 16q25 0 44 -19.5t19 -54.5z" />
    <glyph glyph-name="uhorn" unicode="&#x1b0;" 
d="M389 0v61q-25 -28 -67.5 -50.5t-102.5 -22.5q-80 0 -118 40.5t-38 111.5v343h127v-293q0 -50 24 -69.5t65 -19.5q37 0 65 17t45 38v327h127v-17q10 11 17 23.5t9 24.5q-4 -2 -14 -2q-21 0 -34.5 14t-13.5 37t16 39.5t39 16.5q26 0 44.5 -19.5t18.5 -54.5q0 -38 -20.5 -76
t-61.5 -65v-404h-127z" />
    <glyph glyph-name="AEacute" unicode="&#x1fc;" horiz-adv-x="968" 
d="M553 723h-89l134 144h117zM454 0v113h-235l-66 -113h-162l406 667h529v-125h-329v-141h322v-125h-322v-151h329v-125h-472zM454 525l-167 -287h167v287z" />
    <glyph glyph-name="aeacute" unicode="&#x1fd;" horiz-adv-x="870" 
d="M446 556h-89l134 144h117zM500 201q3 -22 13 -42t26.5 -35t39 -23.5t51.5 -8.5q32 0 64.5 12t54.5 35l57 -84q-36 -33 -87.5 -50t-97.5 -17q-59 0 -106 20t-80 68q-30 -38 -83 -63t-118 -25q-40 0 -76.5 9.5t-64.5 29t-44.5 49t-16.5 70.5q0 40 14 69.5t38 49t56 29.5
t67 10q50 0 93.5 -14.5t71.5 -43.5v65q0 36 -31.5 58t-83.5 22q-84 0 -151 -57l-48 85q45 39 100.5 57.5t113.5 18.5q64 0 106.5 -21.5t62.5 -61.5q13 17 29 32t37 26.5t48 18t61 6.5q50 0 91.5 -19.5t71 -54.5t46 -84t16.5 -108v-28h-341zM718 287q-1 17 -7 36t-19.5 34.5
t-34 26t-49.5 10.5q-27 0 -47 -10t-33.5 -25.5t-20.5 -34.5t-9 -37h220zM372 175q-18 20 -48.5 31.5t-64.5 11.5q-42 0 -70.5 -16.5t-28.5 -48.5q0 -33 28.5 -49t67.5 -16q24 0 45 7.5t37 19t25 26t9 28.5v6z" />
    <glyph glyph-name="Oslashacute" unicode="&#x1fe;" horiz-adv-x="765" 
d="M408 723h-89l134 144h117zM382 -12q-52 0 -98.5 12t-85.5 35l-27 -35h-102l64 84q-47 46 -73 109.5t-26 139.5q0 75 26 138.5t72.5 109.5t110.5 71.5t139 25.5q48 0 91.5 -10.5t81.5 -30.5l23 30h102l-58 -76q51 -47 80 -112.5t29 -145.5q0 -75 -26 -138.5t-72.5 -109.5
t-110.5 -71.5t-140 -25.5zM382 114q46 0 83.5 17t64 46t41 69t14.5 87q0 88 -48 147l-259 -339q22 -13 48 -20t56 -7zM180 333q0 -40 10 -74.5t29 -62.5l255 335q-20 10 -43 15.5t-49 5.5q-46 0 -83.5 -16.5t-63.5 -46t-40.5 -69.5t-14.5 -87z" />
    <glyph glyph-name="oslashacute" unicode="&#x1ff;" horiz-adv-x="574" 
d="M313 556h-89l134 144h117zM40 0l57 67q-65 71 -65 175q0 51 17.5 97t50.5 80.5t80 55t107 20.5q42 0 77 -10t64 -28l22 26h80l-55 -64q33 -35 50.5 -80.5t17.5 -96.5q0 -52 -17.5 -98t-50.5 -80.5t-80.5 -55t-107.5 -20.5q-85 0 -145 40l-24 -28h-78zM287 101
q30 0 53 11.5t38.5 30.5t24 44.5t8.5 54.5q0 44 -20 79l-171 -201q26 -19 67 -19zM164 242q0 -42 17 -76l169 199q-28 17 -63 17q-30 0 -52.5 -11.5t-38.5 -30.5t-24 -44.5t-8 -53.5z" />
    <glyph glyph-name="Scommaaccent" unicode="&#x218;" horiz-adv-x="600" 
d="M368 -138q0 -46 -23 -85t-60 -65l-44 35q10 6 20.5 15t19 19.5t15 22t8.5 22.5q-4 -2 -15 -2q-23 0 -38 15.5t-15 40.5q0 26 17.5 44.5t43.5 18.5q28 0 49.5 -21t21.5 -60zM303 -12q-97 0 -166 29t-116 77l77 108q35 -37 89 -63.5t123 -26.5q59 0 87.5 22.5t28.5 51.5
t-28.5 44.5t-71 26.5t-92.5 23t-92.5 34t-71 59.5t-28.5 100.5q0 42 17.5 78.5t50 64.5t79.5 44t106 16q159 0 260 -93l-79 -104q-41 38 -92 55.5t-102 17.5q-46 0 -70.5 -18.5t-24.5 -48.5q0 -26 28.5 -40.5t71 -25t92 -23t92 -35t71 -60.5t28.5 -100q0 -46 -16.5 -85
t-49.5 -67.5t-83.5 -45t-117.5 -16.5z" />
    <glyph glyph-name="scommaaccent" unicode="&#x219;" horiz-adv-x="477" 
d="M314 -138q0 -46 -23 -85t-60 -65l-44 35q10 6 20.5 15t19 19.5t15 22t8.5 22.5q-4 -2 -15 -2q-23 0 -38 15.5t-15 40.5q0 26 17.5 44.5t43.5 18.5q28 0 49.5 -21t21.5 -60zM237 -12q-63 0 -120.5 20t-95.5 55l55 89q13 -12 32.5 -24t42 -21.5t46 -15t46.5 -5.5
q42 0 61.5 14.5t19.5 37.5q0 20 -21.5 30t-53 16.5t-69 14.5t-69 24t-53 44t-21.5 76q0 30 13 57.5t38.5 48.5t62 33.5t84.5 12.5q62 0 110.5 -18.5t84.5 -47.5l-51 -87q-22 23 -60 39.5t-83 16.5q-35 0 -55.5 -14t-20.5 -34q0 -18 21 -27t53 -15.5t69 -15t69 -25.5t53 -46
t21 -78q0 -33 -14 -61.5t-40.5 -49t-65.5 -32.5t-89 -12z" />
    <glyph glyph-name="uni021A" unicode="&#x21a;" horiz-adv-x="582" 
d="M362 -138q0 -46 -23 -85t-60 -65l-44 35q10 6 20.5 15t19 19.5t15 22t8.5 22.5q-4 -2 -15 -2q-23 0 -38 15.5t-15 40.5q0 26 17.5 44.5t43.5 18.5q28 0 49.5 -21t21.5 -60zM220 0v542h-195v125h532v-125h-194v-542h-143z" />
    <glyph glyph-name="uni021B" unicode="&#x21b;" horiz-adv-x="338" 
d="M240 -138q0 -46 -23 -85t-60 -65l-44 35q10 6 20.5 15t19 19.5t15 22t8.5 22.5q-4 -2 -15 -2q-23 0 -38 15.5t-15 40.5q0 26 17.5 44.5t43.5 18.5q28 0 49.5 -21t21.5 -60zM225 -12q-67 0 -102 33.5t-35 98.5v252h-80v111h80v132h128v-132h98v-111h-98v-218
q0 -23 11.5 -38t32.5 -15q14 0 26.5 4.5t17.5 9.5l27 -96q-14 -13 -40 -22t-66 -9z" />
    <glyph glyph-name="uni0237" unicode="&#x237;" horiz-adv-x="253" 
d="M18 -196q-23 0 -40 2t-30.5 6t-25.5 10.5t-25 15.5l35 98q14 -11 28.5 -17.5t36.5 -6.5q29 0 47.5 18.5t18.5 56.5v496h127v-496q0 -83 -42.5 -133t-129.5 -50z" />
    <glyph glyph-name="hsuperior" unicode="&#x2b0;" horiz-adv-x="411" 
d="M268 326v188q0 32 -15.5 44t-41.5 12q-23 0 -41 -10.5t-28 -22.5v-211h-92v434h92v-160q15 17 43 32.5t69 15.5q55 0 81 -27.5t26 -75.5v-219h-93z" />
    <glyph glyph-name="uni02BC" unicode="&#x2bc;" horiz-adv-x="255" 
d="M215 575q0 -57 -28.5 -105t-74.5 -81l-55 45q12 6 24.5 17t23 23.5t18.5 26.5t11 28q-6 -4 -19 -4q-29 0 -48.5 20t-19.5 52q0 33 23 56.5t55 23.5q18 0 34 -7t28.5 -20t20 -32t7.5 -43z" />
    <glyph glyph-name="circumflex" unicode="&#x2c6;" horiz-adv-x="300" 
d="M222 556l-73 89l-71 -89h-78l92 144h114l94 -144h-78z" />
    <glyph glyph-name="caron" unicode="&#x2c7;" horiz-adv-x="300" 
d="M95 556l-95 144h78l74 -90l70 90h78l-91 -144h-114z" />
    <glyph glyph-name="uni02C9" unicode="&#x2c9;" horiz-adv-x="363" 
d="M0 591v73h363v-73h-363z" />
    <glyph glyph-name="uni02CB" unicode="&#x2cb;" horiz-adv-x="251" 
d="M162 556l-162 144h116l135 -144h-89z" />
    <glyph glyph-name="breve" unicode="&#x2d8;" horiz-adv-x="351" 
d="M351 619q-30 -41 -75.5 -64.5t-99.5 -23.5t-99.5 23.5t-76.5 64.5l56 47q20 -29 50.5 -45.5t69.5 -16.5q38 0 68 16.5t51 45.5l56 -47v0z" />
    <glyph glyph-name="dotaccent" unicode="&#x2d9;" horiz-adv-x="174" 
d="M88 543q-29 0 -48.5 19.5t-19.5 48.5q0 28 19.5 48t48.5 20q27 0 47 -20t20 -48q0 -29 -20 -48.5t-47 -19.5z" />
    <glyph glyph-name="ring" unicode="&#x2da;" horiz-adv-x="209" 
d="M105 531q-21 0 -40.5 8t-33.5 22.5t-22.5 33.5t-8.5 41q0 21 8.5 40.5t22.5 34t33.5 23t40.5 8.5q22 0 41 -8.5t33 -23t22 -34t8 -40.5q0 -22 -8 -41t-22 -33.5t-33 -22.5t-41 -8zM105 589q20 0 33 14t13 33q0 20 -13 33.5t-33 13.5q-19 0 -33 -13.5t-14 -33.5
q0 -19 14 -33t33 -14z" />
    <glyph glyph-name="ogonek" unicode="&#x2db;" horiz-adv-x="194" 
d="M194 -130q-14 -24 -36.5 -40t-57.5 -16q-40 0 -70 21t-30 69q0 39 23 71t65 55l45 -30q-70 -35 -70 -90q0 -23 11.5 -33t25.5 -10q17 0 27.5 10t15.5 25z" />
    <glyph glyph-name="tilde" unicode="&#x2dc;" horiz-adv-x="327" 
d="M220 554q-26 0 -42 10.5t-28 23.5t-22.5 23.5t-24.5 10.5q-15 0 -25.5 -15t-10.5 -47h-67q0 64 27.5 99t80.5 35q25 0 40.5 -10.5t27.5 -23t23 -23t25 -10.5q15 0 25.5 14.5t10.5 46.5h67q0 -64 -27 -99t-80 -35z" />
    <glyph glyph-name="hungarumlaut" unicode="&#x2dd;" horiz-adv-x="338" 
d="M74 556h-74l87 144h102zM223 556h-74l87 144h102z" />
    <glyph glyph-name="hookabovecomb" unicode="&#x309;" horiz-adv-x="194" 
d="M15 733q9 28 30 42.5t50 14.5q32 0 55.5 -17t23.5 -55q0 -16 -3.5 -27.5t-11.5 -23.5h-55q11 11 15.5 23.5t4.5 24.5q0 17 -9 24.5t-20 7.5q-25 0 -35 -28z" />
    <glyph glyph-name="uni037E" unicode="&#x37e;" horiz-adv-x="256" 
d="M128 328q-17 0 -31.5 6.5t-25.5 18t-17.5 26t-6.5 30.5q0 33 24 57t57 24t57 -24t24 -57q0 -16 -6.5 -30.5t-17.5 -26t-26 -18t-31 -6.5zM215 51q0 -57 -28.5 -105t-74.5 -81l-55 45q12 7 24.5 17.5t23 23.5t18.5 27t11 27q-2 -1 -8 -2.5t-11 -1.5q-29 0 -48.5 20.5
t-19.5 52.5q0 33 23 56t55 23q18 0 34 -7t28.5 -20t20 -32t7.5 -43z" />
    <glyph glyph-name="tonos" unicode="&#x384;" horiz-adv-x="225" 
d="M109 553l21 212h105l-70 -212h-56z" />
    <glyph glyph-name="dieresistonos" unicode="&#x385;" 
d="M243 553l21 212h106l-70 -212h-57zM507 611q0 -29 -19.5 -48.5t-48.5 -19.5q-28 0 -48 19.5t-20 48.5q0 28 20 47.5t48 19.5q29 0 48.5 -19.5t19.5 -47.5zM206 611q0 -29 -19 -48.5t-48 -19.5t-48.5 19.5t-19.5 48.5q0 28 19.5 47.5t48.5 19.5t48 -19.5t19 -47.5z" />
    <glyph glyph-name="Alphatonos" unicode="&#x386;" horiz-adv-x="684" 
d="M109 553l21 212h105l-70 -212h-56zM526 0l-41 113h-286l-42 -113h-162l258 667h178l257 -667h-162zM342 525l-104 -287h208z" />
    <glyph glyph-name="Epsilontonos" unicode="&#x388;" horiz-adv-x="619" 
d="M-17 553l21 212h105l-70 -212h-56zM102 0v667h472v-125h-330v-141h323v-125h-323v-151h330v-125h-472z" />
    <glyph glyph-name="Etatonos" unicode="&#x389;" horiz-adv-x="768" 
d="M-17 553l21 212h105l-70 -212h-56zM559 0v280h-315v-280h-142v667h142v-262h315v262h143v-667h-143z" />
    <glyph glyph-name="Iotatonos" unicode="&#x38a;" horiz-adv-x="311" 
d="M-17 553l21 212h105l-70 -212h-56zM102 0v667h142v-667h-142z" />
    <glyph glyph-name="Omicrontonos" unicode="&#x38c;" horiz-adv-x="765" 
d="M0 553l21 212h105l-70 -212h-56zM382 -12q-75 0 -139 25.5t-110.5 71.5t-72.5 109.5t-26 138.5t26 138.5t72.5 109.5t110.5 71.5t139 25.5q76 0 140 -25.5t110.5 -71.5t72.5 -109.5t26 -138.5t-26 -138.5t-72.5 -109.5t-110.5 -71.5t-140 -25.5zM382 114q46 0 83.5 17
t64 46t41 69t14.5 87t-14.5 87t-41 69.5t-64 46t-83.5 16.5t-83.5 -16.5t-63.5 -46t-40.5 -69.5t-14.5 -87t14.5 -87t40.5 -69t63.5 -46t83.5 -17z" />
    <glyph glyph-name="Upsilontonos" unicode="&#x38e;" horiz-adv-x="730" 
d="M-17 553l21 212h105l-70 -212h-56zM336 0v273l-257 394h162l166 -268l164 268h162l-255 -394v-273h-142z" />
    <glyph glyph-name="Omegatonos" unicode="&#x38f;" horiz-adv-x="774" 
d="M0 553l21 212h105l-70 -212h-56zM180 125q-27 18 -51.5 42t-43.5 54t-30.5 66t-11.5 79q0 71 26 129t72.5 98.5t110.5 62.5t139 22q76 0 140 -22t110.5 -62.5t72.5 -98.5t26 -129q0 -43 -11.5 -79t-30 -66t-43 -54t-51.5 -42h119v-125h-270v125q31 9 57 28t45 46.5
t29 61.5t10 73q0 40 -12 78.5t-36.5 69.5t-63 50t-91.5 19t-91 -19t-63 -50t-36.5 -69.5t-11.5 -78.5q0 -39 10.5 -73t29 -61.5t44.5 -46.5t57 -28v-125h-269v125h119z" />
    <glyph glyph-name="iotadieresistonos" unicode="&#x390;" horiz-adv-x="267" 
d="M88 553l21 212h106l-70 -212h-57zM352 611q0 -29 -19.5 -48.5t-48.5 -19.5q-28 0 -48 19.5t-20 48.5q0 28 20 47.5t48 19.5q29 0 48.5 -19.5t19.5 -47.5zM51 611q0 -29 -19 -48.5t-48 -19.5t-48.5 19.5t-19.5 48.5q0 28 19.5 47.5t48.5 19.5t48 -19.5t19 -47.5zM199 -12
q-67 0 -101.5 33.5t-34.5 98.5v363h127v-338q0 -21 11 -32.5t29 -11.5q9 0 19 2l9 -108q-11 -3 -27.5 -5t-31.5 -2z" />
    <glyph glyph-name="Alpha" unicode="&#x391;" horiz-adv-x="684" 
d="M526 0l-41 113h-286l-42 -113h-162l258 667h178l257 -667h-162zM342 525l-104 -287h208z" />
    <glyph glyph-name="Beta" unicode="&#x392;" horiz-adv-x="663" 
d="M66 0v667h351q48 0 84 -14t60 -37.5t36 -54.5t12 -64q0 -32 -9 -58t-25 -45.5t-36.5 -32t-44.5 -17.5q27 -4 50 -18.5t40.5 -36t27.5 -50t10 -59.5q0 -38 -12.5 -70.5t-37 -57t-60.5 -38.5t-84 -14h-362zM386 400q36 0 57 20t21 52t-21 52.5t-57 20.5h-178v-145h178z
M391 123q41 0 63.5 20.5t22.5 56.5q0 32 -22 55t-64 23h-183v-155h183z" />
    <glyph glyph-name="Gamma" unicode="&#x393;" horiz-adv-x="571" 
d="M66 0v667h472v-125h-330v-542h-142z" />
    <glyph glyph-name="uni0394" unicode="&#x394;" horiz-adv-x="684" 
d="M-5 0l258 667h178l257 -667h-693zM342 525l-146 -400h292z" />
    <glyph glyph-name="Epsilon" unicode="&#x395;" horiz-adv-x="583" 
d="M66 0v667h472v-125h-330v-141h323v-125h-323v-151h330v-125h-472z" />
    <glyph glyph-name="Zeta" unicode="&#x396;" horiz-adv-x="592" 
d="M42 0v115l315 427h-315v125h501v-114l-315 -428h322v-125h-508z" />
    <glyph glyph-name="Eta" unicode="&#x397;" horiz-adv-x="731" 
d="M523 0v280h-315v-280h-142v667h142v-262h315v262h143v-667h-143z" />
    <glyph glyph-name="Theta" unicode="&#x398;" horiz-adv-x="765" 
d="M229 276v125h307v-125h-307zM382 -12q-75 0 -139 25.5t-110.5 71.5t-72.5 109.5t-26 138.5t26 138.5t72.5 109.5t110.5 71.5t139 25.5q76 0 140 -25.5t110.5 -71.5t72.5 -109.5t26 -138.5t-26 -138.5t-72.5 -109.5t-110.5 -71.5t-140 -25.5zM382 114q46 0 83.5 17t64 46
t41 69t14.5 87t-14.5 87t-41 69.5t-64 46t-83.5 16.5t-83.5 -16.5t-63.5 -46t-40.5 -69.5t-14.5 -87t14.5 -87t40.5 -69t63.5 -46t83.5 -17z" />
    <glyph glyph-name="Iota" unicode="&#x399;" horiz-adv-x="274" 
d="M66 0v667h142v-667h-142z" />
    <glyph glyph-name="Kappa" unicode="&#x39a;" horiz-adv-x="636" 
d="M462 0l-202 267l-52 -62v-205h-142v667h142v-298l236 298h175l-265 -313l283 -354h-175z" />
    <glyph glyph-name="Lambda" unicode="&#x39b;" horiz-adv-x="684" 
d="M526 0l-184 525l-185 -525h-162l258 667h178l257 -667h-162z" />
    <glyph glyph-name="Mu" unicode="&#x39c;" horiz-adv-x="855" 
d="M646 0v467l-188 -467h-62l-188 467v-467h-142v667h199l162 -403l162 403h200v-667h-143z" />
    <glyph glyph-name="Nu" unicode="&#x39d;" horiz-adv-x="729" 
d="M526 0l-318 435v-435h-142v667h146l309 -419v419h142v-667h-137z" />
    <glyph glyph-name="Xi" unicode="&#x39e;" horiz-adv-x="624" 
d="M45 542v125h533v-125h-533zM45 0v125h533v-125h-533zM52 276v125h520v-125h-520z" />
    <glyph glyph-name="Omicron" unicode="&#x39f;" horiz-adv-x="765" 
d="M382 -12q-75 0 -139 25.5t-110.5 71.5t-72.5 109.5t-26 138.5t26 138.5t72.5 109.5t110.5 71.5t139 25.5q76 0 140 -25.5t110.5 -71.5t72.5 -109.5t26 -138.5t-26 -138.5t-72.5 -109.5t-110.5 -71.5t-140 -25.5zM382 114q46 0 83.5 17t64 46t41 69t14.5 87t-14.5 87
t-41 69.5t-64 46t-83.5 16.5t-83.5 -16.5t-63.5 -46t-40.5 -69.5t-14.5 -87t14.5 -87t40.5 -69t63.5 -46t83.5 -17z" />
    <glyph glyph-name="Pi" unicode="&#x3a0;" horiz-adv-x="731" 
d="M523 0v542h-315v-542h-142v667h600v-667h-143z" />
    <glyph glyph-name="Rho" unicode="&#x3a1;" horiz-adv-x="624" 
d="M66 0v667h312q54 0 96 -17t70.5 -46.5t43 -68.5t14.5 -83t-15 -83t-43.5 -68t-70 -46.5t-95.5 -17.5h-170v-237h-142zM359 362q42 0 70 24t28 66t-28 66t-70 24h-151v-180h151z" />
    <glyph glyph-name="Sigma" unicode="&#x3a3;" horiz-adv-x="586" 
d="M423 341l-206 -216h323v-125h-495v125l203 215l-202 202v125h494v-125h-316z" />
    <glyph glyph-name="Tau" unicode="&#x3a4;" horiz-adv-x="582" 
d="M220 0v542h-195v125h532v-125h-194v-542h-143z" />
    <glyph glyph-name="Upsilon" unicode="&#x3a5;" horiz-adv-x="645" 
d="M252 0v273l-257 394h162l166 -268l164 268h162l-255 -394v-273h-142z" />
    <glyph glyph-name="Phi" unicode="&#x3a6;" horiz-adv-x="855" 
d="M356 0v67q-152 13 -237 81.5t-85 184.5q0 57 22 103.5t63.5 80t101 54.5t135.5 28v68h142v-68q152 -14 237 -82t85 -184t-85 -184.5t-237 -81.5v-67h-142zM675 333q0 57 -45 92.5t-132 46.5v-278q87 10 132 46t45 93zM180 333q0 -57 44.5 -92.5t131.5 -46.5v278
q-87 -11 -131.5 -46.5t-44.5 -92.5z" />
    <glyph glyph-name="Chi" unicode="&#x3a7;" horiz-adv-x="668" 
d="M501 0l-167 244l-168 -244h-169l242 342l-227 325h169l153 -228l151 228h171l-227 -324l242 -343h-170z" />
    <glyph glyph-name="Psi" unicode="&#x3a8;" horiz-adv-x="866" 
d="M362 0v127q-75 7 -130.5 30.5t-92.5 59t-55 82.5t-18 103v265h144v-260q0 -62 38.5 -101t113.5 -51v412h143v-412q75 13 112.5 52t37.5 100v260h145v-264q0 -56 -18 -103t-55 -83t-92 -59.5t-130 -30.5v-127h-143z" />
    <glyph glyph-name="uni03A9" unicode="&#x3a9;" horiz-adv-x="765" 
d="M171 125q-27 18 -51.5 42t-43.5 54t-30.5 66t-11.5 79q0 71 26 129t72.5 98.5t110.5 62.5t139 22q76 0 140 -22t110.5 -62.5t72.5 -98.5t26 -129q0 -43 -11.5 -79t-30 -66t-43 -54t-51.5 -42h119v-125h-270v125q31 9 57 28t45 46.5t29 61.5t10 73q0 40 -12 78.5
t-36.5 69.5t-63 50t-91.5 19t-91 -19t-63 -50t-36.5 -69.5t-11.5 -78.5q0 -39 10.5 -73t29 -61.5t44.5 -46.5t57 -28v-125h-269v125h119z" />
    <glyph glyph-name="Iotadieresis" unicode="&#x3aa;" horiz-adv-x="274" 
d="M66 0v667h142v-667h-142zM312 795q0 -29 -20 -48.5t-48 -19.5t-48 19.5t-20 48.5q0 28 20 47.5t48 19.5t48 -19.5t20 -47.5zM100 795q0 -29 -19.5 -48.5t-47.5 -19.5q-29 0 -48.5 19.5t-19.5 48.5q0 28 19.5 47.5t48.5 19.5q28 0 47.5 -19.5t19.5 -47.5z" />
    <glyph glyph-name="Upsilondieresis" unicode="&#x3ab;" horiz-adv-x="645" 
d="M252 0v273l-257 394h162l166 -268l164 268h162l-255 -394v-273h-142zM495 795q0 -29 -20 -48.5t-48 -19.5t-48 19.5t-20 48.5q0 28 20 47.5t48 19.5t48 -19.5t20 -47.5zM283 795q0 -29 -19.5 -48.5t-47.5 -19.5q-29 0 -48.5 19.5t-19.5 48.5q0 28 19.5 47.5t48.5 19.5
q28 0 47.5 -19.5t19.5 -47.5z" />
    <glyph glyph-name="alphatonos" unicode="&#x3ac;" horiz-adv-x="600" 
d="M261 553l21 212h105l-70 -212h-56zM590 -5q-11 -3 -27.5 -5t-30.5 -2q-104 0 -129 86q-24 -39 -65.5 -62.5t-91.5 -23.5q-46 0 -85 17t-67.5 49t-45 79.5t-16.5 107.5q0 59 16 106t44.5 80t68 50.5t85.5 17.5q43 0 81 -18.5t67 -55.5v62h129v-338q0 -21 11 -32.5
t29 -11.5q9 0 19 2zM285 101q32 0 63 15.5t47 39.5v170q-16 24 -47 39.5t-63 15.5q-54 0 -88 -38.5t-34 -101.5q0 -31 9 -57t25 -44.5t38.5 -28.5t49.5 -10z" />
    <glyph glyph-name="epsilontonos" unicode="&#x3ad;" horiz-adv-x="504" 
d="M213 553l21 212h105l-70 -212h-56zM265 -12q-54 0 -97.5 10.5t-73.5 30t-46 46t-16 58.5q0 27 13 48t33 35.5t44 22t46 9.5q-24 4 -47 13.5t-40.5 24t-28.5 34t-11 42.5q1 62 62 97.5t174 34.5q66 0 118 -22.5t87 -57.5l-61 -75q-56 55 -150 55q-43 0 -70 -13.5
t-27 -35.5q0 -52 99 -52h99v-98h-99q-50 0 -79 -13t-29 -41q0 -23 25.5 -37.5t74.5 -14.5q44 0 88.5 13t77.5 42l59 -79q-36 -35 -93 -56t-132 -21z" />
    <glyph glyph-name="etatonos" unicode="&#x3ae;" 
d="M251 553l21 212h105l-70 -212h-56zM389 -184v476q0 51 -24 70.5t-65 19.5q-38 0 -66 -17.5t-44 -39.5v-325h-127v483h127v-63q23 28 66 51.5t103 23.5q80 0 118.5 -41.5t38.5 -112.5v-525h-127z" />
    <glyph glyph-name="iotatonos" unicode="&#x3af;" horiz-adv-x="267" 
d="M96 553l21 212h105l-70 -212h-56zM199 -12q-67 0 -101.5 33.5t-34.5 98.5v363h127v-338q0 -21 11 -32.5t29 -11.5q9 0 19 2l9 -108q-11 -3 -27.5 -5t-31.5 -2z" />
    <glyph glyph-name="upsilondieresistonos" unicode="&#x3b0;" horiz-adv-x="577" 
d="M243 553l21 212h106l-70 -212h-57zM507 611q0 -29 -19.5 -48.5t-48.5 -19.5q-28 0 -48 19.5t-20 48.5q0 28 20 47.5t48 19.5q29 0 48.5 -19.5t19.5 -47.5zM206 611q0 -29 -19 -48.5t-48 -19.5t-48.5 19.5t-19.5 48.5q0 28 19.5 47.5t48.5 19.5t48 -19.5t19 -47.5z
M289 -12q-57 0 -99.5 17t-70.5 47t-42 72.5t-14 93.5v265h127v-263q0 -54 25.5 -86.5t73.5 -32.5q60 0 92 44t32 114q0 49 -14.5 98t-44.5 87l117 51q38 -53 56 -114.5t18 -121.5q0 -59 -17.5 -108.5t-50.5 -85.5t-80.5 -56.5t-107.5 -20.5z" />
    <glyph glyph-name="alpha" unicode="&#x3b1;" horiz-adv-x="600" 
d="M590 -5q-11 -3 -27.5 -5t-30.5 -2q-104 0 -129 86q-24 -39 -65.5 -62.5t-91.5 -23.5q-46 0 -85 17t-67.5 49t-45 79.5t-16.5 107.5q0 59 16 106t44.5 80t68 50.5t85.5 17.5q43 0 81 -18.5t67 -55.5v62h129v-338q0 -21 11 -32.5t29 -11.5q9 0 19 2zM285 101q32 0 63 15.5
t47 39.5v170q-16 24 -47 39.5t-63 15.5q-54 0 -88 -38.5t-34 -101.5q0 -31 9 -57t25 -44.5t38.5 -28.5t49.5 -10z" />
    <glyph glyph-name="beta" unicode="&#x3b2;" horiz-adv-x="586" 
d="M190 155q19 -23 50 -38.5t70 -15.5q54 0 83 25t29 67q0 43 -31.5 66t-83.5 23h-40v113h36q48 0 75.5 21.5t27.5 62.5q0 40 -27 62t-69 22q-52 0 -86 -30t-34 -85v-293zM190 -184h-127v632q0 62 22.5 105.5t58 71t79.5 40t87 12.5q109 0 168.5 -48.5t59.5 -132.5
q0 -32 -11.5 -57.5t-31 -45t-45 -32t-52.5 -17.5q25 -3 52.5 -14.5t50 -32.5t37.5 -53t15 -75q0 -39 -16 -72t-43.5 -57t-64 -38t-76.5 -14q-54 0 -94 19t-69 55v-246z" />
    <glyph glyph-name="gamma" unicode="&#x3b3;" horiz-adv-x="513" 
d="M192 -184v107q0 82 -16 161.5t-44 152.5t-66 135.5t-82 110.5h144q27 -31 51.5 -72.5t44 -87t32.5 -91.5t18 -85q18 28 35 68t29.5 85t20 92t7.5 91h128q0 -60 -13.5 -124.5t-36.5 -127.5t-55 -121t-69 -105v-189h-128z" />
    <glyph glyph-name="delta" unicode="&#x3b4;" horiz-adv-x="574" 
d="M294 -12q-62 0 -111 20t-82.5 54t-51 78t-17.5 92q0 69 33 117.5t81 74.5q-26 17 -41.5 41t-15.5 62q0 30 13 57.5t38 48.5t62 33.5t85 12.5q61 0 109.5 -18.5t83.5 -47.5l-50 -90q-23 23 -60.5 39t-82.5 16q-35 0 -55.5 -13t-20.5 -33q0 -18 24.5 -28.5t61.5 -21.5
t80 -26t80 -43t61.5 -72.5t24.5 -113.5q0 -46 -16.5 -89t-48.5 -76.5t-78 -53.5t-106 -20zM419 227q0 35 -13 59.5t-34.5 41t-49 28t-56.5 20.5q-51 -20 -76.5 -59t-25.5 -85q0 -25 8.5 -48.5t24.5 -42t39.5 -29.5t54.5 -11t54.5 11t40 29t25 40.5t8.5 45.5z" />
    <glyph glyph-name="epsilon" unicode="&#x3b5;" horiz-adv-x="504" 
d="M265 -12q-54 0 -97.5 10.5t-73.5 30t-46 46t-16 58.5q0 27 13 48t33 35.5t44 22t46 9.5q-24 4 -47 13.5t-40.5 24t-28.5 34t-11 42.5q1 62 62 97.5t174 34.5q66 0 118 -22.5t87 -57.5l-61 -75q-56 55 -150 55q-43 0 -70 -13.5t-27 -35.5q0 -52 99 -52h99v-98h-99
q-50 0 -79 -13t-29 -41q0 -23 25.5 -37.5t74.5 -14.5q44 0 88.5 13t77.5 42l59 -79q-36 -35 -93 -56t-132 -21z" />
    <glyph glyph-name="zeta" unicode="&#x3b6;" horiz-adv-x="486" 
d="M326 -34q0 22 -33 22q-59 0 -107.5 15.5t-82.5 44.5t-52.5 70t-18.5 93q0 53 17.5 102t50.5 93t79 82t103 68h-234v111h399v-92q-57 -31 -108.5 -70.5t-90.5 -85t-62 -96t-23 -102.5q0 -63 39.5 -91.5t106.5 -28.5q81 0 114.5 -26t33.5 -79q0 -32 -13.5 -70t-39.5 -83
h-135q8 11 18 27.5t18.5 33.5t14.5 33.5t6 28.5z" />
    <glyph glyph-name="eta" unicode="&#x3b7;" 
d="M389 -184v476q0 51 -24 70.5t-65 19.5q-38 0 -66 -17.5t-44 -39.5v-325h-127v483h127v-63q23 28 66 51.5t103 23.5q80 0 118.5 -41.5t38.5 -112.5v-525h-127z" />
    <glyph glyph-name="theta" unicode="&#x3b8;" horiz-adv-x="574" 
d="M287 -12q-62 0 -110 28t-80 75t-48.5 110t-16.5 133t16.5 133t48.5 110t80 74.5t110 27.5q63 0 110.5 -27.5t80 -74.5t49 -110t16.5 -133t-16.5 -133t-49 -110t-80 -75t-110.5 -28zM287 101q58 0 86.5 46.5t35.5 131.5h-243q6 -85 34.5 -131.5t86.5 -46.5zM287 566
q-57 0 -86 -46t-35 -129h243q-7 83 -36 129t-86 46z" />
    <glyph glyph-name="iota" unicode="&#x3b9;" horiz-adv-x="267" 
d="M199 -12q-67 0 -101.5 33.5t-34.5 98.5v363h127v-338q0 -21 11 -32.5t29 -11.5q9 0 19 2l9 -108q-11 -3 -27.5 -5t-31.5 -2z" />
    <glyph glyph-name="kappa" unicode="&#x3ba;" horiz-adv-x="535" 
d="M376 0l-128 186l-58 -62v-124h-127v483h127v-215l183 215h156l-191 -219l197 -264h-159z" />
    <glyph glyph-name="lambda" unicode="&#x3bb;" horiz-adv-x="513" 
d="M46 671q12 4 32 6t31 2q31 -1 58.5 -6.5t50.5 -18.5t41.5 -35.5t32.5 -56.5l227 -562h-137l-126 336l-126 -336h-136l196 489l-18 41q-9 20 -25.5 28t-41.5 8q-9 0 -20.5 -2t-19.5 -7z" />
    <glyph glyph-name="uni03BC" unicode="&#x3bc;" horiz-adv-x="593" 
d="M190 -184h-127v667h127v-293q0 -49 24 -69.5t66 -20.5q36 0 64 17.5t45 38.5v327h127v-338q0 -21 11 -32.5t29 -11.5q9 0 19 2l9 -108q-11 -3 -27.5 -5t-31.5 -2q-104 0 -130 86q-21 -37 -56 -61.5t-79 -24.5q-27 0 -44.5 8.5t-25.5 19.5v-200z" />
    <glyph glyph-name="nu" unicode="&#x3bd;" horiz-adv-x="513" 
d="M188 0l-194 483h136l132 -356q25 37 44 81t32.5 90.5t20.5 93.5t7 91h128q0 -60 -13.5 -125.5t-37.5 -129.5t-56.5 -122.5t-70.5 -105.5h-128z" />
    <glyph glyph-name="xi" unicode="&#x3be;" horiz-adv-x="486" 
d="M293 -12q-130 0 -195.5 49t-65.5 130q0 33 10.5 58.5t27.5 44t38.5 30.5t44.5 18q-20 3 -39.5 11.5t-35 23t-25.5 34t-10 45.5q0 40 27 74t69 50h-86v111h390v-111h-190q-35 -9 -56.5 -32.5t-21.5 -53.5q0 -38 32.5 -57.5t84.5 -19.5h146v-109h-146q-58 0 -93 -22
t-35 -70q0 -44 37.5 -67.5t107.5 -23.5q81 0 114.5 -26t33.5 -79q0 -32 -13.5 -70t-39.5 -83h-135q8 11 18 27.5t18.5 33.5t14.5 33.5t6 28.5q0 22 -33 22z" />
    <glyph glyph-name="omicron" unicode="&#x3bf;" horiz-adv-x="574" 
d="M287 -12q-60 0 -107 20.5t-80 55t-50.5 80.5t-17.5 98q0 51 17.5 97t50.5 80.5t80 55t107 20.5t107.5 -20.5t80.5 -55t50.5 -80.5t17.5 -97q0 -52 -17.5 -98t-50.5 -80.5t-80.5 -55t-107.5 -20.5zM287 101q30 0 53 11.5t38.5 30.5t24 44.5t8.5 54.5q0 28 -8.5 53.5
t-24 44.5t-38.5 30.5t-53 11.5t-52.5 -11.5t-38.5 -30.5t-24 -44.5t-8 -53.5q0 -29 8 -54.5t24 -44.5t38.5 -30.5t52.5 -11.5z" />
    <glyph glyph-name="pi" unicode="&#x3c0;" horiz-adv-x="631" 
d="M415 0v372h-199v-372h-128v372h-80v111h615v-111h-80v-372h-128z" />
    <glyph glyph-name="rho" unicode="&#x3c1;" horiz-adv-x="583" 
d="M339 -12q-43 0 -81.5 18t-67.5 56v-246h-127v426q0 51 16.5 97t48 80.5t77 55t102.5 20.5q58 0 103.5 -20.5t77 -55t48.5 -80.5t17 -97q0 -60 -16 -107.5t-44.5 -80t-68 -49.5t-85.5 -17zM299 101q55 0 88.5 39t33.5 102q0 28 -7.5 53.5t-22 44.5t-36 30.5t-49.5 11.5
t-49.5 -11.5t-36.5 -30.5t-22.5 -44.5t-7.5 -53.5v-86q16 -23 47 -39t62 -16z" />
    <glyph glyph-name="sigma1" unicode="&#x3c2;" horiz-adv-x="492" 
d="M302 -12q-59 0 -108.5 17.5t-85.5 50.5t-56 80t-20 106q0 55 19 101.5t53 80.5t81 52.5t103 18.5q74 0 120.5 -27t70.5 -60l-83 -78q-35 52 -102 52q-58 0 -94.5 -38.5t-36.5 -101.5q0 -35 11 -61.5t30.5 -44t46 -26.5t57.5 -9q81 0 118.5 -26t37.5 -79q0 -32 -13.5 -70
t-39.5 -83h-133q8 11 18 27.5t18.5 33.5t14.5 33.5t6 28.5q0 22 -33 22z" />
    <glyph glyph-name="sigma" unicode="&#x3c3;" horiz-adv-x="574" 
d="M532 215q0 -46 -16 -87.5t-46.5 -72.5t-76.5 -49t-106 -18t-107 20.5t-80 55t-50.5 80.5t-17.5 98q0 50 17.5 94t51 76.5t82.5 51.5t111 19h260v-113h-90q35 -29 51.5 -66.5t16.5 -88.5zM411 239q0 45 -19 78t-51 53h-47q-32 0 -56.5 -11t-41 -29t-24.5 -41t-8 -47
q0 -29 8 -54.5t24 -44.5t38.5 -30.5t52.5 -11.5t53 11.5t38.5 30.5t24 44t8.5 52z" />
    <glyph glyph-name="tau" unicode="&#x3c4;" horiz-adv-x="482" 
d="M314 -12q-67 0 -102 33.5t-35 98.5v252h-156v111h440v-111h-157v-218q0 -23 11.5 -38t33.5 -15q14 0 26 4.5t17 9.5l27 -96q-14 -13 -40 -22t-65 -9z" />
    <glyph glyph-name="upsilon" unicode="&#x3c5;" horiz-adv-x="577" 
d="M289 -12q-57 0 -99.5 17t-70.5 47t-42 72.5t-14 93.5v265h127v-263q0 -54 25.5 -86.5t73.5 -32.5q60 0 92 44t32 114q0 49 -14.5 98t-44.5 87l117 51q38 -53 56 -114.5t18 -121.5q0 -59 -17.5 -108.5t-50.5 -85.5t-80.5 -56.5t-107.5 -20.5z" />
    <glyph glyph-name="phi" unicode="&#x3c6;" horiz-adv-x="795" 
d="M763 242q0 -107 -75 -173.5t-227 -77.5v-175h-127v175q-153 11 -227.5 79.5t-74.5 185.5q0 45 14.5 81.5t40 66t59 52t72.5 39.5l53 -99q-53 -23 -80 -60t-27 -80q0 -63 39 -102.5t131 -49.5v391h63q92 0 161 -17.5t114.5 -50.5t68 -80t22.5 -105zM631 242q0 61 -46 96.5
t-124 40.5v-275q91 10 130.5 47t39.5 91z" />
    <glyph glyph-name="chi" unicode="&#x3c7;" horiz-adv-x="504" 
d="M363 -184l-111 224l-113 -224h-139l171 343l-161 324h140l102 -205l100 205h141l-162 -324l173 -343h-141z" />
    <glyph glyph-name="psi" unicode="&#x3c8;" horiz-adv-x="795" 
d="M334 -184v175q-138 13 -204.5 78.5t-66.5 170.5v243h127v-243q0 -57 38 -90.5t106 -44.5v562h127v-562q67 11 105.5 44.5t38.5 90.5v243h127v-243q0 -105 -67 -170.5t-204 -78.5v-175h-127z" />
    <glyph glyph-name="omega" unicode="&#x3c9;" horiz-adv-x="852" 
d="M820 242q0 -52 -14.5 -98t-42 -80.5t-67 -55t-89.5 -20.5q-36 0 -64.5 10.5t-50.5 29t-38.5 43.5t-27.5 54q-11 -29 -27.5 -54t-38.5 -43.5t-50.5 -29t-64.5 -10.5q-50 0 -89.5 20.5t-67 55t-42 80.5t-14.5 98q0 84 28.5 147.5t75.5 105.5l96 -72q-38 -40 -53 -86
t-15 -95q0 -29 6.5 -54.5t19 -44.5t30.5 -30.5t42 -11.5t43 11.5t31.5 30.5t19 44.5t6.5 54.5v122h128v-122q0 -29 6.5 -54.5t19 -44.5t31 -30.5t42.5 -11.5t42 11.5t31 30.5t19.5 44.5t6.5 54.5q0 49 -15.5 95t-53.5 86l97 72q47 -42 75.5 -105.5t28.5 -147.5z" />
    <glyph glyph-name="iotadieresis" unicode="&#x3ca;" horiz-adv-x="267" 
d="M308 611q0 -29 -20 -48.5t-48 -19.5t-48 19.5t-20 48.5q0 28 20 47.5t48 19.5t48 -19.5t20 -47.5zM96 611q0 -29 -19.5 -48.5t-47.5 -19.5q-29 0 -48.5 19.5t-19.5 48.5q0 28 19.5 47.5t48.5 19.5q28 0 47.5 -19.5t19.5 -47.5zM199 -12q-67 0 -101.5 33.5t-34.5 98.5v363
h127v-338q0 -21 11 -32.5t29 -11.5q9 0 19 2l9 -108q-11 -3 -27.5 -5t-31.5 -2z" />
    <glyph glyph-name="upsilondieresis" unicode="&#x3cb;" horiz-adv-x="577" 
d="M461 611q0 -29 -20 -48.5t-48 -19.5t-48 19.5t-20 48.5q0 28 20 47.5t48 19.5t48 -19.5t20 -47.5zM249 611q0 -29 -19.5 -48.5t-47.5 -19.5q-29 0 -48.5 19.5t-19.5 48.5q0 28 19.5 47.5t48.5 19.5q28 0 47.5 -19.5t19.5 -47.5zM289 -12q-57 0 -99.5 17t-70.5 47
t-42 72.5t-14 93.5v265h127v-263q0 -54 25.5 -86.5t73.5 -32.5q60 0 92 44t32 114q0 49 -14.5 98t-44.5 87l117 51q38 -53 56 -114.5t18 -121.5q0 -59 -17.5 -108.5t-50.5 -85.5t-80.5 -56.5t-107.5 -20.5z" />
    <glyph glyph-name="omicrontonos" unicode="&#x3cc;" horiz-adv-x="574" 
d="M248 553l21 212h105l-70 -212h-56zM287 -12q-60 0 -107 20.5t-80 55t-50.5 80.5t-17.5 98q0 51 17.5 97t50.5 80.5t80 55t107 20.5t107.5 -20.5t80.5 -55t50.5 -80.5t17.5 -97q0 -52 -17.5 -98t-50.5 -80.5t-80.5 -55t-107.5 -20.5zM287 101q30 0 53 11.5t38.5 30.5
t24 44.5t8.5 54.5q0 28 -8.5 53.5t-24 44.5t-38.5 30.5t-53 11.5t-52.5 -11.5t-38.5 -30.5t-24 -44.5t-8 -53.5q0 -29 8 -54.5t24 -44.5t38.5 -30.5t52.5 -11.5z" />
    <glyph glyph-name="upsilontonos" unicode="&#x3cd;" horiz-adv-x="577" 
d="M250 553l21 212h105l-70 -212h-56zM289 -12q-57 0 -99.5 17t-70.5 47t-42 72.5t-14 93.5v265h127v-263q0 -54 25.5 -86.5t73.5 -32.5q60 0 92 44t32 114q0 49 -14.5 98t-44.5 87l117 51q38 -53 56 -114.5t18 -121.5q0 -59 -17.5 -108.5t-50.5 -85.5t-80.5 -56.5
t-107.5 -20.5z" />
    <glyph glyph-name="omegatonos" unicode="&#x3ce;" horiz-adv-x="852" 
d="M387 553l21 212h105l-70 -212h-56zM820 242q0 -52 -14.5 -98t-42 -80.5t-67 -55t-89.5 -20.5q-36 0 -64.5 10.5t-50.5 29t-38.5 43.5t-27.5 54q-11 -29 -27.5 -54t-38.5 -43.5t-50.5 -29t-64.5 -10.5q-50 0 -89.5 20.5t-67 55t-42 80.5t-14.5 98q0 84 28.5 147.5
t75.5 105.5l96 -72q-38 -40 -53 -86t-15 -95q0 -29 6.5 -54.5t19 -44.5t30.5 -30.5t42 -11.5t43 11.5t31.5 30.5t19 44.5t6.5 54.5v122h128v-122q0 -29 6.5 -54.5t19 -44.5t31 -30.5t42.5 -11.5t42 11.5t31 30.5t19.5 44.5t6.5 54.5q0 49 -15.5 95t-53.5 86l97 72
q47 -42 75.5 -105.5t28.5 -147.5z" />
    <glyph glyph-name="afii10023" unicode="&#x401;" horiz-adv-x="583" 
d="M475 778q0 -29 -20 -48.5t-48 -19.5t-48 19.5t-20 48.5q0 28 20 47.5t48 19.5t48 -19.5t20 -47.5zM263 778q0 -29 -19.5 -48.5t-47.5 -19.5q-29 0 -48.5 19.5t-19.5 48.5q0 28 19.5 47.5t48.5 19.5q28 0 47.5 -19.5t19.5 -47.5zM66 0v667h472v-125h-330v-141h323v-125
h-323v-151h330v-125h-472z" />
    <glyph glyph-name="afii10051" unicode="&#x402;" horiz-adv-x="776" 
d="M514 111q46 0 71.5 23.5t25.5 61.5v8q0 45 -31.5 69.5t-90.5 24.5q-36 0 -68 -6t-58 -16v-276h-143v542h-195v125h532v-125h-194v-141q32 10 68.5 16t74.5 6q64 0 110.5 -17t77.5 -47t46 -70t15 -85v-8q0 -50 -18.5 -89t-50.5 -65.5t-76.5 -40t-95.5 -13.5v123z" />
    <glyph glyph-name="afii10052" unicode="&#x403;" horiz-adv-x="571" 
d="M314 723h-89l134 144h117zM66 0v667h472v-125h-330v-542h-142z" />
    <glyph glyph-name="afii10053" unicode="&#x404;" horiz-adv-x="687" 
d="M389 -12q-75 0 -140 25t-112.5 70.5t-75 109t-27.5 140.5t27.5 140.5t75 109t112.5 70.5t140 25q55 0 99 -14t78 -36.5t59 -52t43 -60.5l-122 -60q-21 41 -63 69t-96 28q-76 0 -128 -41.5t-71 -109.5h317v-125h-319q16 -72 69 -117t132 -45q54 0 96 27.5t63 69.5l122 -59
q-18 -31 -43 -60.5t-59 -52.5t-78 -37t-99 -14z" />
    <glyph glyph-name="afii10054" unicode="&#x405;" horiz-adv-x="600" 
d="M303 -12q-97 0 -166 29t-116 77l77 108q35 -37 89 -63.5t123 -26.5q59 0 87.5 22.5t28.5 51.5t-28.5 44.5t-71 26.5t-92.5 23t-92.5 34t-71 59.5t-28.5 100.5q0 42 17.5 78.5t50 64.5t79.5 44t106 16q159 0 260 -93l-79 -104q-41 38 -92 55.5t-102 17.5
q-46 0 -70.5 -18.5t-24.5 -48.5q0 -26 28.5 -40.5t71 -25t92 -23t92 -35t71 -60.5t28.5 -100q0 -46 -16.5 -85t-49.5 -67.5t-83.5 -45t-117.5 -16.5z" />
    <glyph glyph-name="afii10055" unicode="&#x406;" horiz-adv-x="274" 
d="M66 0v667h142v-667h-142z" />
    <glyph glyph-name="afii10056" unicode="&#x407;" horiz-adv-x="274" 
d="M66 0v667h142v-667h-142zM312 778q0 -29 -20 -48.5t-48 -19.5t-48 19.5t-20 48.5q0 28 20 47.5t48 19.5t48 -19.5t20 -47.5zM100 778q0 -29 -19.5 -48.5t-47.5 -19.5q-29 0 -48.5 19.5t-19.5 48.5q0 28 19.5 47.5t48.5 19.5q28 0 47.5 -19.5t19.5 -47.5z" />
    <glyph glyph-name="afii10057" unicode="&#x408;" horiz-adv-x="486" 
d="M185 -12q-51 0 -97 15t-82 50l62 109q20 -19 45.5 -33.5t60.5 -14.5q48 0 76 29t28 78v446h142v-448q0 -59 -17.5 -102.5t-48.5 -72t-74.5 -42.5t-94.5 -14z" />
    <glyph glyph-name="afii10058" unicode="&#x409;" horiz-adv-x="1081" 
d="M26 114q25 0 45 8.5t35.5 31.5t27 64.5t19.5 107.5l39 341h474v-237h169q54 0 96 -17.5t70.5 -46.5t43.5 -68.5t15 -82.5q0 -44 -15 -83t-43.5 -68.5t-70.5 -46.5t-96 -17h-312v542h-203l-26 -226q-12 -104 -36.5 -168t-59 -99.5t-78 -48t-94.5 -12.5v126zM666 305v-180
h150q42 0 70 24t28 66t-28 66t-70 24h-150z" />
    <glyph glyph-name="afii10059" unicode="&#x40a;" horiz-adv-x="1081" 
d="M66 667h142v-262h315v262h143v-262h182q51 0 90.5 -16t66.5 -43.5t41 -64.5t14 -78q0 -42 -14 -78.5t-41 -64.5t-66.5 -44t-90.5 -16h-325v280h-315v-280h-142v667zM830 125q36 0 60 21t24 57t-24 56.5t-60 20.5h-164v-155h164z" />
    <glyph glyph-name="afii10060" unicode="&#x40b;" horiz-adv-x="807" 
d="M611 177q0 65 -31.5 93t-90.5 28q-36 0 -68 -6t-58 -16v-276h-143v542h-195v125h532v-125h-194v-141q32 10 68.5 16t74.5 6q64 0 110.5 -18t77.5 -50t46 -77.5t15 -100.5v-177h-144v177z" />
    <glyph glyph-name="afii10061" unicode="&#x40c;" horiz-adv-x="636" 
d="M351 723h-89l134 144h117zM462 0l-202 267l-52 -62v-205h-142v667h142v-298l236 298h175l-265 -313l283 -354h-175z" />
    <glyph glyph-name="afii10062" unicode="&#x40e;" horiz-adv-x="645" 
d="M156 -12q-46 0 -87 14t-64 34l54 114q17 -14 39.5 -25t46.5 -11q37 0 57 16t40 53l-246 484h161l165 -354l166 354h161l-275 -539q-15 -30 -34.5 -56t-45.5 -44.5t-59.5 -29t-78.5 -10.5zM498 786q-30 -41 -75.5 -64.5t-99.5 -23.5t-99.5 23.5t-76.5 64.5l56 47
q20 -29 50.5 -45.5t69.5 -16.5q38 0 68 16.5t51 45.5l56 -47v0z" />
    <glyph glyph-name="afii10145" unicode="&#x40f;" horiz-adv-x="731" 
d="M66 667h142v-542h315v542h143v-667h-229v-127h-142v127h-229v667z" />
    <glyph glyph-name="afii10017" unicode="&#x410;" horiz-adv-x="684" 
d="M526 0l-41 113h-286l-42 -113h-162l258 667h178l257 -667h-162zM342 525l-104 -287h208z" />
    <glyph glyph-name="afii10018" unicode="&#x411;" horiz-adv-x="624" 
d="M553 667v-125h-345v-118h173q53 0 94.5 -17t69.5 -46t42.5 -67.5t14.5 -81.5t-14.5 -81.5t-42.5 -67.5t-69 -46t-95 -17h-315v667h487zM208 299v-174h154q42 0 68.5 23.5t26.5 63.5q0 41 -26.5 64t-68.5 23h-154z" />
    <glyph glyph-name="afii10019" unicode="&#x412;" horiz-adv-x="663" 
d="M66 0v667h351q48 0 84 -14t60 -37.5t36 -54.5t12 -64q0 -32 -9 -58t-25 -45.5t-36.5 -32t-44.5 -17.5q27 -4 50 -18.5t40.5 -36t27.5 -50t10 -59.5q0 -38 -12.5 -70.5t-37 -57t-60.5 -38.5t-84 -14h-362zM386 400q36 0 57 20t21 52t-21 52.5t-57 20.5h-178v-145h178z
M391 123q41 0 63.5 20.5t22.5 56.5q0 32 -22 55t-64 23h-183v-155h183z" />
    <glyph glyph-name="afii10020" unicode="&#x413;" horiz-adv-x="571" 
d="M66 0v667h472v-125h-330v-542h-142z" />
    <glyph glyph-name="afii10021" unicode="&#x414;" horiz-adv-x="743" 
d="M26 114q25 3 45.5 12t36 31.5t26.5 62.5t19 106l39 341h474v-542h60v-248h-142v123h-416v-123h-142v237zM294 316q-8 -68 -28.5 -115t-52.5 -76h310v417h-203z" />
    <glyph glyph-name="afii10022" unicode="&#x415;" horiz-adv-x="583" 
d="M66 0v667h472v-125h-330v-141h323v-125h-323v-151h330v-125h-472z" />
    <glyph glyph-name="afii10024" unicode="&#x416;" horiz-adv-x="951" 
d="M0 0l282 354l-265 313h175l212 -268v268h143v-268l211 268h176l-265 -313l282 -354h-174l-202 267l-28 -34v-233h-143v233l-28 34l-202 -267h-174z" />
    <glyph glyph-name="afii10025" unicode="&#x417;" horiz-adv-x="610" 
d="M295 -12q-46 0 -88 8.5t-77.5 22.5t-63.5 33.5t-46 42.5l74 95q17 -18 40.5 -32t50 -24t53.5 -15t51 -5q66 0 102.5 23.5t36.5 61.5q0 40 -36 58.5t-111 18.5h-135v125h135q60 0 98 17t38 54q0 40 -39.5 59.5t-96.5 19.5q-49 0 -97.5 -17.5t-83.5 -51.5l-71 89
q41 46 109.5 76t156.5 30q58 0 107 -12.5t83.5 -36t54 -57t19.5 -75.5q0 -32 -12.5 -57.5t-32.5 -45t-46.5 -32t-53.5 -17.5q25 -3 52.5 -14t50 -31t37.5 -49t15 -66q0 -43 -20.5 -79t-57 -62t-86.5 -40.5t-110 -14.5z" />
    <glyph glyph-name="afii10026" unicode="&#x418;" horiz-adv-x="729" 
d="M66 0v667h142v-431l309 431h146v-667h-142v447l-318 -447h-137z" />
    <glyph glyph-name="afii10027" unicode="&#x419;" horiz-adv-x="729" 
d="M66 0v667h142v-431l309 431h146v-667h-142v447l-318 -447h-137zM540 786q-30 -41 -75.5 -64.5t-99.5 -23.5t-99.5 23.5t-76.5 64.5l56 47q20 -29 50.5 -45.5t69.5 -16.5q38 0 68 16.5t51 45.5l56 -47v0z" />
    <glyph glyph-name="afii10028" unicode="&#x41a;" horiz-adv-x="636" 
d="M462 0l-202 267l-52 -62v-205h-142v667h142v-298l236 298h175l-265 -313l283 -354h-175z" />
    <glyph glyph-name="afii10029" unicode="&#x41b;" horiz-adv-x="731" 
d="M26 114q25 0 45 8.5t35.5 31.5t27 64.5t19.5 107.5l39 341h474v-667h-143v542h-203l-26 -226q-12 -104 -36.5 -168t-59 -99.5t-78 -48t-94.5 -12.5v126z" />
    <glyph glyph-name="afii10030" unicode="&#x41c;" horiz-adv-x="855" 
d="M646 0v467l-188 -467h-62l-188 467v-467h-142v667h199l162 -403l162 403h200v-667h-143z" />
    <glyph glyph-name="afii10031" unicode="&#x41d;" horiz-adv-x="731" 
d="M523 0v280h-315v-280h-142v667h142v-262h315v262h143v-667h-143z" />
    <glyph glyph-name="afii10032" unicode="&#x41e;" horiz-adv-x="765" 
d="M382 -12q-75 0 -139 25.5t-110.5 71.5t-72.5 109.5t-26 138.5t26 138.5t72.5 109.5t110.5 71.5t139 25.5q76 0 140 -25.5t110.5 -71.5t72.5 -109.5t26 -138.5t-26 -138.5t-72.5 -109.5t-110.5 -71.5t-140 -25.5zM382 114q46 0 83.5 17t64 46t41 69t14.5 87t-14.5 87
t-41 69.5t-64 46t-83.5 16.5t-83.5 -16.5t-63.5 -46t-40.5 -69.5t-14.5 -87t14.5 -87t40.5 -69t63.5 -46t83.5 -17z" />
    <glyph glyph-name="afii10033" unicode="&#x41f;" horiz-adv-x="731" 
d="M523 0v542h-315v-542h-142v667h600v-667h-143z" />
    <glyph glyph-name="afii10034" unicode="&#x420;" horiz-adv-x="624" 
d="M66 0v667h312q54 0 96 -17t70.5 -46.5t43 -68.5t14.5 -83t-15 -83t-43.5 -68t-70 -46.5t-95.5 -17.5h-170v-237h-142zM359 362q42 0 70 24t28 66t-28 66t-70 24h-151v-180h151z" />
    <glyph glyph-name="afii10035" unicode="&#x421;" horiz-adv-x="687" 
d="M389 -12q-75 0 -140 25t-112.5 70.5t-75 109t-27.5 140.5t27.5 140.5t75 109t112.5 70.5t140 25q55 0 99 -14t78 -36.5t59 -52t43 -60.5l-122 -60q-21 41 -63 69t-94 28q-45 0 -83.5 -16.5t-66.5 -46t-43.5 -69.5t-15.5 -87t15.5 -87.5t43.5 -69.5t66.5 -45.5t83.5 -16.5
q52 0 94 27.5t63 69.5l122 -59q-18 -31 -43 -60.5t-59 -52.5t-78 -37t-99 -14z" />
    <glyph glyph-name="afii10036" unicode="&#x422;" horiz-adv-x="582" 
d="M220 0v542h-195v125h532v-125h-194v-542h-143z" />
    <glyph glyph-name="afii10037" unicode="&#x423;" horiz-adv-x="645" 
d="M156 -12q-46 0 -87 14t-64 34l54 114q17 -14 39.5 -25t46.5 -11q37 0 57 16t40 53l-246 484h161l165 -354l166 354h161l-275 -539q-15 -30 -34.5 -56t-45.5 -44.5t-59.5 -29t-78.5 -10.5z" />
    <glyph glyph-name="afii10038" unicode="&#x424;" horiz-adv-x="855" 
d="M356 0v67q-152 13 -237 81.5t-85 184.5q0 57 22 103.5t63.5 80t101 54.5t135.5 28v68h142v-68q152 -14 237 -82t85 -184t-85 -184.5t-237 -81.5v-67h-142zM675 333q0 57 -45 92.5t-132 46.5v-278q87 10 132 46t45 93zM180 333q0 -57 44.5 -92.5t131.5 -46.5v278
q-87 -11 -131.5 -46.5t-44.5 -92.5z" />
    <glyph glyph-name="afii10039" unicode="&#x425;" horiz-adv-x="668" 
d="M501 0l-167 244l-168 -244h-169l242 342l-227 325h169l153 -228l151 228h171l-227 -324l242 -343h-170z" />
    <glyph glyph-name="afii10040" unicode="&#x426;" horiz-adv-x="743" 
d="M584 0h-518v667h142v-542h315v542h143v-542h60v-248h-142v123z" />
    <glyph glyph-name="afii10041" unicode="&#x427;" horiz-adv-x="649" 
d="M192 480q0 -66 32 -93.5t90 -27.5q72 0 127 22v286h142v-667h-142v256q-32 -10 -69 -16t-75 -6q-64 0 -110.5 17.5t-77 50t-45.5 77.5t-15 101v187h143v-187z" />
    <glyph glyph-name="afii10042" unicode="&#x428;" horiz-adv-x="983" 
d="M917 667v-667h-851v667h142v-542h212v542h143v-542h211v542h143z" />
    <glyph glyph-name="afii10043" unicode="&#x429;" horiz-adv-x="994" 
d="M917 667v-542h61v-248h-143v123h-769v667h142v-542h212v542h143v-542h211v542h143z" />
    <glyph glyph-name="afii10044" unicode="&#x42a;" horiz-adv-x="778" 
d="M220 0v542h-195v125h338v-237h169q54 0 96 -17.5t70.5 -46.5t43.5 -68.5t15 -82.5q0 -44 -15 -83t-43.5 -68.5t-70.5 -46.5t-96 -17h-312zM363 305v-180h150q42 0 70 24t28 66t-28 66t-70 24h-150z" />
    <glyph glyph-name="afii10045" unicode="&#x42b;" horiz-adv-x="867" 
d="M208 667v-237h170q54 0 95.5 -17.5t70 -46.5t43.5 -68.5t15 -82.5q0 -44 -14.5 -83t-43 -68.5t-70.5 -46.5t-96 -17h-312v667h142zM208 305v-180h151q42 0 70 24t28 66t-28 66t-70 24h-151zM658 0v667h143v-667h-143z" />
    <glyph glyph-name="afii10046" unicode="&#x42c;" horiz-adv-x="624" 
d="M208 667v-237h170q54 0 95.5 -17.5t70 -46.5t43.5 -68.5t15 -82.5q0 -44 -14.5 -83t-43 -68.5t-70.5 -46.5t-96 -17h-312v667h142zM208 305v-180h151q42 0 70 24t28 66t-28 66t-70 24h-151z" />
    <glyph glyph-name="afii10047" unicode="&#x42d;" horiz-adv-x="687" 
d="M297 -12q-55 0 -99 14t-77.5 37t-58.5 52.5t-43 60.5l122 59q21 -42 63 -69.5t96 -27.5q78 0 131 45t70 117h-320v125h317q-19 68 -71 109.5t-127 41.5q-54 0 -96 -28t-63 -69l-122 60q18 31 43 60.5t58.5 52t77.5 36.5t99 14q75 0 140 -25t113 -70.5t75 -109t27 -140.5
t-27 -140.5t-75 -109t-113 -70.5t-140 -25z" />
    <glyph glyph-name="afii10048" unicode="&#x42e;" horiz-adv-x="1043" 
d="M660 -12q-69 0 -128 21.5t-104.5 60t-74.5 92t-38 118.5h-107v-280h-142v667h142v-262h110q12 61 42 111t74.5 86t102 56t123.5 20q76 0 139.5 -25.5t110 -71.5t72.5 -109.5t26 -138.5t-26 -138.5t-72.5 -109.5t-110 -71.5t-139.5 -25.5zM660 114q46 0 83.5 17t64 46
t41 69t14.5 87t-14.5 87t-41 69.5t-64 46t-83.5 16.5q-47 0 -84.5 -16.5t-63.5 -46t-40.5 -69.5t-14.5 -87t14.5 -87t40.5 -69t63.5 -46t84.5 -17z" />
    <glyph glyph-name="afii10049" unicode="&#x42f;" horiz-adv-x="643" 
d="M37 0l150 254q-27 6 -53 21.5t-47 40t-33.5 58.5t-12.5 78q0 46 15.5 85.5t44.5 68.5t70.5 45t93.5 16h312v-667h-142v237h-103l-132 -237h-163zM435 362v180h-149q-43 0 -71.5 -24t-28.5 -66t28.5 -66t71.5 -24h149z" />
    <glyph glyph-name="afii10065" unicode="&#x430;" horiz-adv-x="543" 
d="M353 0v50q-25 -29 -65 -45.5t-88 -16.5q-29 0 -59 10t-54 29.5t-39.5 49.5t-15.5 71q0 42 15.5 72t39.5 48.5t54 27t59 8.5q48 0 88.5 -15t64.5 -44v65q0 37 -29 59t-77 22q-80 0 -141 -57l-48 85q45 39 99.5 57.5t111.5 18.5q41 0 79 -9t67.5 -30.5t47 -56.5t17.5 -87
v-312h-127zM251 74q31 0 58.5 10.5t43.5 31.5v60q-16 21 -43.5 31.5t-58.5 10.5q-38 0 -64.5 -19t-26.5 -54q0 -34 26.5 -52.5t64.5 -18.5z" />
    <glyph glyph-name="afii10066" unicode="&#x431;" horiz-adv-x="577" 
d="M287 101q30 0 53 11.5t38.5 31t24 45.5t8.5 55q0 27 -8.5 52t-24 44t-38.5 30.5t-53 11.5t-52.5 -11.5t-38.5 -30.5t-24 -44t-8 -52q0 -29 8 -55t24 -45.5t38.5 -31t52.5 -11.5zM287 -12q-60 0 -107.5 21t-80.5 58t-50 87.5t-17 109.5q0 88 16 152.5t47.5 108.5
t78.5 68.5t109 32.5q61 9 85 18.5t24 22.5h132q0 -35 -20.5 -58.5t-50.5 -38t-65 -22t-65 -11.5q-43 -6 -73.5 -17.5t-51.5 -27.5t-32.5 -35.5t-16.5 -40.5q29 38 71.5 58.5t93.5 20.5q52 0 94 -20.5t72 -55t46 -80.5t16 -96q0 -51 -17 -97t-50 -81.5t-80.5 -56
t-107.5 -20.5z" />
    <glyph glyph-name="afii10067" unicode="&#x432;" horiz-adv-x="586" 
d="M63 0v483h306q37 0 64.5 -10t46 -27.5t28 -40t9.5 -46.5q0 -44 -24 -72t-58 -38q40 -9 66 -41.5t26 -76.5q0 -55 -38 -93t-111 -38h-315zM347 104q23 0 36.5 12t13.5 33q0 18 -13 31.5t-37 13.5h-157v-90h157zM343 298q21 0 33 11.5t12 28.5q0 18 -12 29.5t-33 11.5h-153
v-81h153z" />
    <glyph glyph-name="afii10068" unicode="&#x433;" horiz-adv-x="454" 
d="M436 372h-246v-372h-127v483h373v-111z" />
    <glyph glyph-name="afii10069" unicode="&#x434;" horiz-adv-x="587" 
d="M18 106q15 3 26.5 9t21 21t16.5 42t13 71l31 234h391v-372h53v-234h-127v123h-297v-123h-128v229zM222 241q-10 -87 -56 -130h224v261h-153z" />
    <glyph glyph-name="afii10070" unicode="&#x435;" horiz-adv-x="553" 
d="M290 -12q-55 0 -102.5 18t-82 51t-54 80t-19.5 105q0 52 18.5 98.5t51.5 80.5t79 54t101 20q54 0 98.5 -19.5t76.5 -54.5t49.5 -84t17.5 -108v-28h-359q6 -46 41.5 -79t97.5 -33q15 0 33 3.5t35.5 9.5t33 15t27.5 20l56 -82q-36 -33 -89 -50t-110 -17zM401 287
q-1 17 -8 36t-21 34.5t-36.5 26t-53.5 10.5q-30 0 -51.5 -10t-35.5 -25.5t-22 -34.5t-10 -37h238z" />
    <glyph glyph-name="afii10072" unicode="&#x436;" horiz-adv-x="750" 
d="M1 0l196 264l-190 219h156l148 -175v175h128v-175l148 175h156l-190 -219l196 -264h-158l-129 186l-23 -25v-161h-128v161l-23 25l-129 -186h-158z" />
    <glyph glyph-name="afii10073" unicode="&#x437;" horiz-adv-x="504" 
d="M239 -12q-75 0 -132.5 21t-92.5 56l58 79q34 -29 78.5 -42t88.5 -13q49 0 74.5 14.5t25.5 37.5q0 28 -29 41t-79 13h-99v98h99q99 0 99 52q0 22 -27 35.5t-70 13.5q-94 0 -150 -55l-62 75q35 35 87 57.5t118 22.5q114 1 175 -34.5t61 -97.5q0 -23 -10.5 -42.5t-28.5 -34
t-40.5 -24t-46.5 -13.5q22 -2 46 -9.5t44 -22t33 -35.5t13 -48q0 -32 -16 -58.5t-46.5 -46t-73.5 -30t-97 -10.5z" />
    <glyph glyph-name="afii10074" unicode="&#x438;" horiz-adv-x="580" 
d="M63 0v483h127v-292l199 292h128v-483h-127v303l-205 -303h-122z" />
    <glyph glyph-name="afii10075" unicode="&#x439;" horiz-adv-x="580" 
d="M63 0v483h127v-292l199 292h128v-483h-127v303l-205 -303h-122zM465 619q-30 -41 -75.5 -64.5t-99.5 -23.5t-99.5 23.5t-76.5 64.5l56 47q20 -29 50.5 -45.5t69.5 -16.5q38 0 68 16.5t51 45.5l56 -47v0z" />
    <glyph glyph-name="afii10076" unicode="&#x43a;" horiz-adv-x="535" 
d="M376 0l-128 186l-58 -62v-124h-127v483h127v-215l183 215h156l-191 -219l197 -264h-159z" />
    <glyph glyph-name="afii10077" unicode="&#x43b;" horiz-adv-x="580" 
d="M18 92q29 0 47.5 34.5t29.5 122.5l31 234h391v-483h-127v372h-153l-16 -138q-15 -126 -62.5 -186t-140.5 -60v104z" />
    <glyph glyph-name="afii10078" unicode="&#x43c;" horiz-adv-x="697" 
d="M507 0v314l-129 -314h-58l-130 314v-314h-127v483h167l119 -288l117 288h168v-483h-127z" />
    <glyph glyph-name="afii10079" unicode="&#x43d;" horiz-adv-x="580" 
d="M63 0v483h127v-179h200v179h127v-483h-127v193h-200v-193h-127z" />
    <glyph glyph-name="afii10080" unicode="&#x43e;" horiz-adv-x="574" 
d="M287 -12q-60 0 -107 20.5t-80 55t-50.5 80.5t-17.5 98q0 51 17.5 97t50.5 80.5t80 55t107 20.5t107.5 -20.5t80.5 -55t50.5 -80.5t17.5 -97q0 -52 -17.5 -98t-50.5 -80.5t-80.5 -55t-107.5 -20.5zM287 101q30 0 53 11.5t38.5 30.5t24 44.5t8.5 54.5q0 28 -8.5 53.5
t-24 44.5t-38.5 30.5t-53 11.5t-52.5 -11.5t-38.5 -30.5t-24 -44.5t-8 -53.5q0 -29 8 -54.5t24 -44.5t38.5 -30.5t52.5 -11.5z" />
    <glyph glyph-name="afii10081" unicode="&#x43f;" horiz-adv-x="580" 
d="M390 0v372h-200v-372h-127v483h454v-483h-127z" />
    <glyph glyph-name="afii10082" unicode="&#x440;" horiz-adv-x="583" 
d="M339 -12q-43 0 -81.5 18t-67.5 56v-246h-127v667h127v-61q28 35 66 54t83 19q46 0 85.5 -17t68 -49t44.5 -79.5t16 -107.5t-16 -107.5t-44.5 -80t-68 -49.5t-85.5 -17zM299 101q55 0 88.5 39t33.5 102t-33.5 101.5t-88.5 38.5q-31 0 -62 -16t-47 -39v-171q16 -23 47 -39
t62 -16z" />
    <glyph glyph-name="afii10083" unicode="&#x441;" horiz-adv-x="499" 
d="M288 -12q-56 0 -103 18.5t-81 52.5t-53 80.5t-19 102.5q0 55 19 101.5t53 80.5t81 52.5t103 18.5q74 0 120.5 -27t70.5 -60l-83 -78q-35 52 -102 52q-58 0 -94.5 -38.5t-36.5 -101.5t36.5 -102t94.5 -39q33 0 59 14t43 38l83 -77q-24 -34 -70.5 -61t-120.5 -27z" />
    <glyph glyph-name="afii10084" unicode="&#x442;" horiz-adv-x="432" 
d="M152 0v372h-135v111h398v-111h-135v-372h-128z" />
    <glyph glyph-name="afii10085" unicode="&#x443;" horiz-adv-x="513" 
d="M65 -75q8 -4 19.5 -6t20.5 -2q25 0 41.5 7.5t25.5 27.5l18 41l-196 490h136l126 -336l126 336h137l-227 -562q-27 -68 -74 -92t-109 -25q-11 0 -31 2t-32 5z" />
    <glyph glyph-name="afii10086" unicode="&#x444;" horiz-adv-x="841" 
d="M228 495q77 0 129 -74v246h127v-245q24 35 57.5 54t71.5 19q40 0 74 -17t58.5 -49t38.5 -79.5t14 -107.5t-14 -107.5t-38.5 -80t-58.5 -49.5t-74 -17q-38 0 -70.5 18t-58.5 56v-246h-127v246q-24 -36 -57.5 -55t-71.5 -19q-40 0 -74 17t-58.5 49t-38.5 79.5t-14 107.5
t14 107.5t38.5 80t58.5 49.5t74 17zM269 382q-43 0 -70.5 -39t-27.5 -102t27.5 -101.5t70.5 -38.5q25 0 49.5 16t38.5 39v171q-13 23 -38 39t-50 16zM571 101q44 0 71 39t27 102t-27 101.5t-71 38.5q-24 0 -49 -16t-38 -39v-171q13 -23 38 -39t49 -16z" />
    <glyph glyph-name="afii10087" unicode="&#x445;" horiz-adv-x="504" 
d="M362 0l-110 163l-111 -163h-141l171 248l-161 235h142l100 -149l99 149h142l-162 -235l173 -248h-142z" />
    <glyph glyph-name="afii10088" unicode="&#x446;" horiz-adv-x="587" 
d="M443 0h-380v483h127v-372h200v372h127v-372h53v-234h-127v123z" />
    <glyph glyph-name="afii10089" unicode="&#x447;" horiz-adv-x="564" 
d="M175 483v-131q0 -51 25.5 -70.5t76.5 -19.5q33 0 56.5 5.5t40.5 13.5v202h128v-483h-128v179q-23 -13 -59.5 -21.5t-81.5 -8.5q-101 0 -143 42t-42 117v175h127z" />
    <glyph glyph-name="afii10090" unicode="&#x448;" horiz-adv-x="823" 
d="M760 483v-483h-697v483h127v-372h158v372h127v-372h157v372h128z" />
    <glyph glyph-name="afii10091" unicode="&#x449;" horiz-adv-x="836" 
d="M760 483v-372h60v-234h-128v123h-629v483h127v-372h158v372h127v-372h157v372h128z" />
    <glyph glyph-name="afii10092" unicode="&#x44a;" horiz-adv-x="643" 
d="M152 0v372h-135v111h263v-166h165q42 0 73.5 -12.5t52.5 -34.5t31.5 -50.5t10.5 -60.5t-11 -61t-32.5 -51t-53 -34.5t-71.5 -12.5h-293zM280 211v-104h146q27 0 42 14.5t15 37.5t-15 37.5t-42 14.5h-146z" />
    <glyph glyph-name="afii10093" unicode="&#x44b;" horiz-adv-x="776" 
d="M190 483v-166h165q42 0 73.5 -12.5t52.5 -34.5t31.5 -50.5t10.5 -60.5t-11 -61t-32.5 -51t-53 -34.5t-71.5 -12.5h-292v483h127zM190 211v-104h146q27 0 42 14.5t15 37.5t-15 37.5t-42 14.5h-146zM586 0v483h128v-483h-128z" />
    <glyph glyph-name="afii10094" unicode="&#x44c;" horiz-adv-x="553" 
d="M190 483v-166h165q42 0 73.5 -12.5t52.5 -34.5t31.5 -50.5t10.5 -60.5t-11 -61t-32.5 -51t-53 -34.5t-71.5 -12.5h-292v483h127zM190 211v-104h146q27 0 42 14.5t15 37.5t-15 37.5t-42 14.5h-146z" />
    <glyph glyph-name="afii10095" unicode="&#x44d;" horiz-adv-x="499" 
d="M211 -12q-74 0 -121 27t-70 61l78 70q18 -26 45 -41.5t60 -15.5q48 0 82 27t45 78h-195v98h194q-11 49 -44.5 75.5t-81.5 26.5q-33 0 -60 -15t-45 -41l-78 70q23 33 70 60t121 27q55 0 102 -18.5t81.5 -52.5t53.5 -80.5t19 -101.5q0 -56 -19 -102.5t-53.5 -80.5
t-81.5 -52.5t-102 -18.5z" />
    <glyph glyph-name="afii10096" unicode="&#x44e;" horiz-adv-x="809" 
d="M521 -12q-52 0 -95 15.5t-75 43.5t-53 65t-28 81h-80v-193h-127v483h127v-179h83q9 40 30 75t52.5 61t73.5 40.5t92 14.5q60 0 107.5 -20.5t80.5 -55t50.5 -80.5t17.5 -97q0 -52 -17.5 -98t-50.5 -80.5t-80.5 -55t-107.5 -20.5zM521 101q30 0 53 11.5t39 30.5t24 44.5
t8 54.5q0 28 -8 53.5t-24 44.5t-39 30.5t-53 11.5t-52.5 -11.5t-38.5 -30.5t-24 -44.5t-8 -53.5q0 -29 8 -54.5t24 -44.5t38.5 -30.5t52.5 -11.5z" />
    <glyph glyph-name="afii10097" unicode="&#x44f;" horiz-adv-x="573" 
d="M47 0l112 175q-21 5 -40 17t-34 31t-24 44.5t-9 57.5t11 60.5t32.5 50.5t52.5 34.5t71 12.5h293v-483h-127v166h-99l-95 -166h-144zM385 272v104h-146q-26 0 -42 -14t-16 -37t15.5 -38t42.5 -15h146z" />
    <glyph glyph-name="afii10071" unicode="&#x451;" horiz-adv-x="553" 
d="M457 611q0 -29 -20 -48.5t-48 -19.5t-48 19.5t-20 48.5q0 28 20 47.5t48 19.5t48 -19.5t20 -47.5zM245 611q0 -29 -19.5 -48.5t-47.5 -19.5q-29 0 -48.5 19.5t-19.5 48.5q0 28 19.5 47.5t48.5 19.5q28 0 47.5 -19.5t19.5 -47.5zM290 -12q-55 0 -102.5 18t-82 51t-54 80
t-19.5 105q0 52 18.5 98.5t51.5 80.5t79 54t101 20q54 0 98.5 -19.5t76.5 -54.5t49.5 -84t17.5 -108v-28h-359q6 -46 41.5 -79t97.5 -33q15 0 33 3.5t35.5 9.5t33 15t27.5 20l56 -82q-36 -33 -89 -50t-110 -17zM401 287q-1 17 -8 36t-21 34.5t-36.5 26t-53.5 10.5
q-30 0 -51.5 -10t-35.5 -25.5t-22 -34.5t-10 -37h238z" />
    <glyph glyph-name="afii10099" unicode="&#x452;" horiz-adv-x="584" 
d="M194 528v-108q23 28 66.5 51.5t103.5 23.5q80 0 118.5 -40.5t38.5 -111.5v-356q0 -83 -42.5 -133t-129.5 -50q-23 0 -40 2t-30.5 6t-25.5 10.5t-25 15.5l35 95q14 -12 28.5 -18.5t36.5 -6.5q29 0 47.5 19t18.5 60v307q0 50 -25 69t-65 19q-37 0 -65 -17.5t-45 -39.5v-325
h-127v528h-59v73h59v66h127v-66h146v-73h-146z" />
    <glyph glyph-name="afii10100" unicode="&#x453;" horiz-adv-x="454" 
d="M276 556h-89l134 144h117zM436 372h-246v-372h-127v483h373v-111z" />
    <glyph glyph-name="afii10101" unicode="&#x454;" horiz-adv-x="499" 
d="M288 -12q-56 0 -103 18.5t-81 52.5t-53 80.5t-19 102.5q0 55 19 101.5t53 80.5t81 52.5t103 18.5q74 0 120.5 -27t70.5 -60l-78 -70q-18 26 -45.5 41t-60.5 15q-48 0 -81.5 -26.5t-45.5 -75.5h195v-98h-195q11 -51 45 -78t82 -27q33 0 60.5 15.5t45.5 41.5l78 -70
q-24 -34 -70.5 -61t-120.5 -27z" />
    <glyph glyph-name="afii10102" unicode="&#x455;" horiz-adv-x="477" 
d="M237 -12q-63 0 -120.5 20t-95.5 55l55 89q13 -12 32.5 -24t42 -21.5t46 -15t46.5 -5.5q42 0 61.5 14.5t19.5 37.5q0 20 -21.5 30t-53 16.5t-69 14.5t-69 24t-53 44t-21.5 76q0 30 13 57.5t38.5 48.5t62 33.5t84.5 12.5q62 0 110.5 -18.5t84.5 -47.5l-51 -87
q-22 23 -60 39.5t-83 16.5q-35 0 -55.5 -14t-20.5 -34q0 -18 21 -27t53 -15.5t69 -15t69 -25.5t53 -46t21 -78q0 -33 -14 -61.5t-40.5 -49t-65.5 -32.5t-89 -12z" />
    <glyph glyph-name="afii10103" unicode="&#x456;" horiz-adv-x="253" 
d="M126 535q-31 0 -53.5 22t-22.5 54t22.5 53.5t53.5 21.5q32 0 54 -21.5t22 -53.5t-22 -54t-54 -22zM63 0v483h127v-483h-127z" />
    <glyph glyph-name="afii10104" unicode="&#x457;" horiz-adv-x="253" 
d="M301 611q0 -29 -20 -48.5t-48 -19.5t-48 19.5t-20 48.5q0 28 20 47.5t48 19.5t48 -19.5t20 -47.5zM89 611q0 -29 -19.5 -48.5t-47.5 -19.5q-29 0 -48.5 19.5t-19.5 48.5q0 28 19.5 47.5t48.5 19.5q28 0 47.5 -19.5t19.5 -47.5zM63 0v483h127v-483h-127z" />
    <glyph glyph-name="afii10105" unicode="&#x458;" horiz-adv-x="253" 
d="M126 535q-31 0 -53.5 22t-22.5 54t22.5 53.5t53.5 21.5q32 0 54 -21.5t22 -53.5t-22 -54t-54 -22zM18 -196q-23 0 -40 2t-30.5 6t-25.5 10.5t-25 15.5l35 95q14 -12 28.5 -18.5t36.5 -6.5q29 0 47.5 19t18.5 60v496h127v-496q0 -83 -42.5 -133t-129.5 -50z" />
    <glyph glyph-name="afii10106" unicode="&#x459;" horiz-adv-x="880" 
d="M18 92q29 0 47.5 34.5t29.5 122.5l31 234h391v-166h165q42 0 73.5 -12.5t52.5 -34.5t31.5 -50.5t10.5 -60.5t-11 -61t-32.5 -51t-53 -34.5t-71.5 -12.5h-292v372h-153l-16 -138q-15 -126 -62.5 -186t-140.5 -60v104zM517 211v-104h146q27 0 42 14.5t15 37.5t-15 37.5
t-42 14.5h-146z" />
    <glyph glyph-name="afii10107" unicode="&#x45a;" horiz-adv-x="880" 
d="M63 0v483h127v-176h200v176h127v-176h171q40 0 70.5 -12.5t51 -33.5t30.5 -49t10 -59t-10.5 -58.5t-31.5 -48.5t-51 -33.5t-69 -12.5h-298v196h-200v-196h-127zM517 200v-93h152q24 0 37.5 13t13.5 33t-13.5 33.5t-37.5 13.5h-152z" />
    <glyph glyph-name="afii10108" unicode="&#x45b;" horiz-adv-x="584" 
d="M194 528v-108q23 28 66.5 51.5t103.5 23.5q80 0 118.5 -40.5t38.5 -111.5v-343h-127v294q0 50 -24.5 69t-65.5 19q-37 0 -65 -17.5t-45 -39.5v-325h-127v528h-59v72h59v67h127v-67h145v-72h-145z" />
    <glyph glyph-name="afii10109" unicode="&#x45c;" horiz-adv-x="535" 
d="M296 556h-89l134 144h117zM376 0l-128 186l-58 -62v-124h-127v483h127v-215l183 215h156l-191 -219l197 -264h-159z" />
    <glyph glyph-name="afii10110" unicode="&#x45e;" horiz-adv-x="513" 
d="M65 -75q8 -4 19.5 -6t20.5 -2q25 0 41.5 7.5t25.5 27.5l18 41l-196 490h136l126 -336l126 336h137l-227 -562q-27 -68 -74 -92t-109 -25q-11 0 -31 2t-32 5zM432 619q-30 -41 -75.5 -64.5t-99.5 -23.5t-99.5 23.5t-76.5 64.5l56 47q20 -29 50.5 -45.5t69.5 -16.5
q38 0 68 16.5t51 45.5l56 -47v0z" />
    <glyph glyph-name="afii10193" unicode="&#x45f;" horiz-adv-x="580" 
d="M226 0h-163v483h127v-372h200v372h127v-483h-163v-126h-128v126z" />
    <glyph glyph-name="afii10050" unicode="&#x490;" horiz-adv-x="571" 
d="M208 0h-142v667h329v123h143v-248h-330v-542z" />
    <glyph glyph-name="afii10098" unicode="&#x491;" horiz-adv-x="454" 
d="M190 0h-127v483h246v126h127v-237h-246v-372z" />
    <glyph glyph-name="uni1E02" unicode="&#x1e02;" horiz-adv-x="663" 
d="M66 0v667h351q48 0 84 -14t60 -37.5t36 -54.5t12 -64q0 -32 -9 -58t-25 -45.5t-36.5 -32t-44.5 -17.5q27 -4 50 -18.5t40.5 -36t27.5 -50t10 -59.5q0 -38 -12.5 -70.5t-37 -57t-60.5 -38.5t-84 -14h-362zM386 400q36 0 57 20t21 52t-21 52.5t-57 20.5h-178v-145h178z
M391 123q41 0 63.5 20.5t22.5 56.5q0 32 -22 55t-64 23h-183v-155h183zM332 710q-29 0 -48.5 19.5t-19.5 48.5q0 28 19.5 48t48.5 20q27 0 47 -20t20 -48q0 -29 -20 -48.5t-47 -19.5z" />
    <glyph glyph-name="uni1E03" unicode="&#x1e03;" horiz-adv-x="586" 
d="M190 155q16 -23 47 -38.5t62 -15.5q56 0 89.5 38.5t33.5 101.5t-33.5 102t-89.5 39q-31 0 -62 -16t-47 -40v-171zM63 0v667h127v-246q29 37 67.5 55.5t81.5 18.5q46 0 85.5 -17.5t68 -50.5t44.5 -80t16 -106q0 -60 -16.5 -107.5t-45 -79.5t-67.5 -49t-85 -17
q-44 0 -82 19t-67 55v-62h-127zM300 710q-29 0 -48.5 19.5t-19.5 48.5q0 28 19.5 48t48.5 20q27 0 47 -20t20 -48q0 -29 -20 -48.5t-47 -19.5z" />
    <glyph glyph-name="uni1E0A" unicode="&#x1e0a;" horiz-adv-x="718" 
d="M66 0v667h263q78 0 143.5 -24t112 -67.5t72.5 -105.5t26 -137t-26 -136.5t-72.5 -105t-112 -67.5t-143.5 -24h-263zM329 125q49 0 88 16.5t66 45t41 66.5t14 80q0 44 -13.5 82.5t-39.5 66.5t-65.5 44t-90.5 16h-121v-417h121zM359 710q-29 0 -48.5 19.5t-19.5 48.5
q0 28 19.5 48t48.5 20q27 0 47 -20t20 -48q0 -29 -20 -48.5t-47 -19.5z" />
    <glyph glyph-name="uni1E0B" unicode="&#x1e0b;" horiz-adv-x="586" 
d="M395 0v62q-29 -36 -67 -55t-82 -19q-46 0 -85 17t-67.5 49t-45 79.5t-16.5 107.5q0 59 16 106t44.5 80t68 50.5t85.5 17.5q43 0 81.5 -18.5t67.5 -55.5v246h128v-667h-128zM285 101q32 0 63 15.5t47 39.5v171q-16 24 -47 39.5t-63 15.5q-54 0 -88 -39t-34 -102
q0 -31 9 -57t25 -44.5t38.5 -28.5t49.5 -10zM288 710q-29 0 -48.5 19.5t-19.5 48.5q0 28 19.5 48t48.5 20q27 0 47 -20t20 -48q0 -29 -20 -48.5t-47 -19.5z" />
    <glyph glyph-name="uni1E1E" unicode="&#x1e1e;" horiz-adv-x="571" 
d="M304 710q-29 0 -48.5 19.5t-19.5 48.5q0 28 19.5 48t48.5 20q27 0 47 -20t20 -48q0 -29 -20 -48.5t-47 -19.5zM66 0v667h472v-125h-330v-141h323v-125h-323v-276h-142z" />
    <glyph glyph-name="uni1E1F" unicode="&#x1e1f;" horiz-adv-x="327" 
d="M255 710q-29 0 -48.5 19.5t-19.5 48.5q0 28 19.5 48t48.5 20q27 0 47 -20t20 -48q0 -29 -20 -48.5t-47 -19.5zM91 0v372h-80v111h80v26q0 78 45 123t118 45q35 0 69 -10t57 -35l-48 -75q-20 20 -53 20q-26 0 -43 -17t-17 -51v-26h98v-111h-98v-372h-128z" />
    <glyph glyph-name="uni1E22" unicode="&#x1e22;" horiz-adv-x="731" 
d="M523 0v280h-315v-280h-142v667h142v-262h315v262h143v-667h-143zM366 710q-29 0 -48.5 19.5t-19.5 48.5q0 28 19.5 48t48.5 20q27 0 47 -20t20 -48q0 -29 -20 -48.5t-47 -19.5z" />
    <glyph glyph-name="uni1E23" unicode="&#x1e23;" horiz-adv-x="580" 
d="M390 0v294q0 50 -24.5 69t-65.5 19q-37 0 -65 -17.5t-45 -39.5v-325h-127v667h127v-247q23 28 66.5 51.5t103.5 23.5q80 0 118.5 -40.5t38.5 -111.5v-343h-127zM291 710q-29 0 -48.5 19.5t-19.5 48.5q0 28 19.5 48t48.5 20q27 0 47 -20t20 -48q0 -29 -20 -48.5t-47 -19.5
z" />
    <glyph glyph-name="uni1E56" unicode="&#x1e56;" horiz-adv-x="624" 
d="M66 0v667h312q54 0 96 -17t70.5 -46.5t43 -68.5t14.5 -83t-15 -83t-43.5 -68t-70 -46.5t-95.5 -17.5h-170v-237h-142zM359 362q42 0 70 24t28 66t-28 66t-70 24h-151v-180h151zM313 710q-29 0 -48.5 19.5t-19.5 48.5q0 28 19.5 48t48.5 20q27 0 47 -20t20 -48
q0 -29 -20 -48.5t-47 -19.5z" />
    <glyph glyph-name="uni1E57" unicode="&#x1e57;" horiz-adv-x="583" 
d="M339 -12q-43 0 -81.5 18t-67.5 56v-246h-127v667h127v-61q28 35 66 54t83 19q46 0 85.5 -17t68 -49t44.5 -79.5t16 -107.5t-16 -107.5t-44.5 -80t-68 -49.5t-85.5 -17zM299 101q55 0 88.5 39t33.5 102t-33.5 101.5t-88.5 38.5q-31 0 -62 -16t-47 -39v-171q16 -23 47 -39
t62 -16zM299 543q-29 0 -48.5 19.5t-19.5 48.5q0 28 19.5 48t48.5 20q27 0 47 -20t20 -48q0 -29 -20 -48.5t-47 -19.5z" />
    <glyph glyph-name="uni1E60" unicode="&#x1e60;" horiz-adv-x="600" 
d="M303 -12q-97 0 -166 29t-116 77l77 108q35 -37 89 -63.5t123 -26.5q59 0 87.5 22.5t28.5 51.5t-28.5 44.5t-71 26.5t-92.5 23t-92.5 34t-71 59.5t-28.5 100.5q0 42 17.5 78.5t50 64.5t79.5 44t106 16q159 0 260 -93l-79 -104q-41 38 -92 55.5t-102 17.5
q-46 0 -70.5 -18.5t-24.5 -48.5q0 -26 28.5 -40.5t71 -25t92 -23t92 -35t71 -60.5t28.5 -100q0 -46 -16.5 -85t-49.5 -67.5t-83.5 -45t-117.5 -16.5zM301 710q-29 0 -48.5 19.5t-19.5 48.5q0 28 19.5 48t48.5 20q27 0 47 -20t20 -48q0 -29 -20 -48.5t-47 -19.5z" />
    <glyph glyph-name="uni1E61" unicode="&#x1e61;" horiz-adv-x="477" 
d="M237 -12q-63 0 -120.5 20t-95.5 55l55 89q13 -12 32.5 -24t42 -21.5t46 -15t46.5 -5.5q42 0 61.5 14.5t19.5 37.5q0 20 -21.5 30t-53 16.5t-69 14.5t-69 24t-53 44t-21.5 76q0 30 13 57.5t38.5 48.5t62 33.5t84.5 12.5q62 0 110.5 -18.5t84.5 -47.5l-51 -87
q-22 23 -60 39.5t-83 16.5q-35 0 -55.5 -14t-20.5 -34q0 -18 21 -27t53 -15.5t69 -15t69 -25.5t53 -46t21 -78q0 -33 -14 -61.5t-40.5 -49t-65.5 -32.5t-89 -12zM239 543q-29 0 -48.5 19.5t-19.5 48.5q0 28 19.5 48t48.5 20q27 0 47 -20t20 -48q0 -29 -20 -48.5t-47 -19.5z
" />
    <glyph glyph-name="uni1E6A" unicode="&#x1e6a;" horiz-adv-x="582" 
d="M220 0v542h-195v125h532v-125h-194v-542h-143zM292 710q-29 0 -48.5 19.5t-19.5 48.5q0 28 19.5 48t48.5 20q27 0 47 -20t20 -48q0 -29 -20 -48.5t-47 -19.5z" />
    <glyph glyph-name="uni1E6B" unicode="&#x1e6b;" horiz-adv-x="338" 
d="M225 -12q-67 0 -102 33.5t-35 98.5v252h-80v111h80v132h128v-132h98v-111h-98v-218q0 -23 11.5 -38t32.5 -15q14 0 26.5 4.5t17.5 9.5l27 -96q-14 -13 -40 -22t-66 -9zM157 710q-29 0 -48.5 19.5t-19.5 48.5q0 28 19.5 48t48.5 20q27 0 47 -20t20 -48q0 -29 -20 -48.5
t-47 -19.5z" />
    <glyph glyph-name="Wgrave" unicode="&#x1e80;" horiz-adv-x="918" 
d="M576 0l-117 458l-116 -458h-151l-191 667h159l117 -482l127 482h111l126 -482l116 482h160l-190 -667h-151zM434 723l-162 144h116l135 -144h-89z" />
    <glyph glyph-name="wgrave" unicode="&#x1e81;" horiz-adv-x="769" 
d="M487 0l-102 329l-102 -329h-136l-147 483h132l90 -325l106 325h113l106 -325l90 325h132l-147 -483h-135zM359 556l-162 144h116l135 -144h-89z" />
    <glyph glyph-name="Wacute" unicode="&#x1e82;" horiz-adv-x="918" 
d="M485 723h-89l134 144h117zM576 0l-117 458l-116 -458h-151l-191 667h159l117 -482l127 482h111l126 -482l116 482h160l-190 -667h-151z" />
    <glyph glyph-name="wacute" unicode="&#x1e83;" horiz-adv-x="769" 
d="M410 556h-89l134 144h117zM487 0l-102 329l-102 -329h-136l-147 483h132l90 -325l106 325h113l106 -325l90 325h132l-147 -483h-135z" />
    <glyph glyph-name="Wdieresis" unicode="&#x1e84;" horiz-adv-x="918" 
d="M632 778q0 -29 -20 -48.5t-48 -19.5t-48 19.5t-20 48.5q0 28 20 47.5t48 19.5t48 -19.5t20 -47.5zM420 778q0 -29 -19.5 -48.5t-47.5 -19.5q-29 0 -48.5 19.5t-19.5 48.5q0 28 19.5 47.5t48.5 19.5q28 0 47.5 -19.5t19.5 -47.5zM576 0l-117 458l-116 -458h-151l-191 667
h159l117 -482l127 482h111l126 -482l116 482h160l-190 -667h-151z" />
    <glyph glyph-name="wdieresis" unicode="&#x1e85;" horiz-adv-x="769" 
d="M558 611q0 -29 -20 -48.5t-48 -19.5t-48 19.5t-20 48.5q0 28 20 47.5t48 19.5t48 -19.5t20 -47.5zM346 611q0 -29 -19.5 -48.5t-47.5 -19.5q-29 0 -48.5 19.5t-19.5 48.5q0 28 19.5 47.5t48.5 19.5q28 0 47.5 -19.5t19.5 -47.5zM487 0l-102 329l-102 -329h-136l-147 483
h132l90 -325l106 325h113l106 -325l90 325h132l-147 -483h-135z" />
    <glyph glyph-name="uni1EA0" unicode="&#x1ea0;" horiz-adv-x="684" 
d="M526 0l-41 113h-286l-42 -113h-162l258 667h178l257 -667h-162zM342 525l-104 -287h208zM343 -195q-29 0 -48.5 19.5t-19.5 48.5q0 28 19.5 48t48.5 20q27 0 47 -20t20 -48q0 -29 -20 -48.5t-47 -19.5z" />
    <glyph glyph-name="uni1EA1" unicode="&#x1ea1;" horiz-adv-x="543" 
d="M353 0v50q-25 -29 -65 -45.5t-88 -16.5q-29 0 -59 10t-54 29.5t-39.5 49.5t-15.5 71q0 42 15.5 72t39.5 48.5t54 27t59 8.5q48 0 88.5 -15t64.5 -44v65q0 37 -29 59t-77 22q-80 0 -141 -57l-48 85q45 39 99.5 57.5t111.5 18.5q41 0 79 -9t67.5 -30.5t47 -56.5t17.5 -87
v-312h-127zM251 74q31 0 58.5 10.5t43.5 31.5v60q-16 21 -43.5 31.5t-58.5 10.5q-38 0 -64.5 -19t-26.5 -54q0 -34 26.5 -52.5t64.5 -18.5zM272 -195q-29 0 -48.5 19.5t-19.5 48.5q0 28 19.5 48t48.5 20q27 0 47 -20t20 -48q0 -29 -20 -48.5t-47 -19.5z" />
    <glyph glyph-name="uni1EA2" unicode="&#x1ea2;" horiz-adv-x="684" 
d="M526 0l-41 113h-286l-42 -113h-162l258 667h178l257 -667h-162zM342 525l-104 -287h208zM262 763q9 28 30 42.5t50 14.5q32 0 55.5 -17t23.5 -55q0 -16 -3.5 -27.5t-11.5 -23.5h-55q11 11 15.5 23.5t4.5 24.5q0 17 -9 24.5t-20 7.5q-25 0 -35 -28z" />
    <glyph glyph-name="uni1EA3" unicode="&#x1ea3;" horiz-adv-x="543" 
d="M353 0v50q-25 -29 -65 -45.5t-88 -16.5q-29 0 -59 10t-54 29.5t-39.5 49.5t-15.5 71q0 42 15.5 72t39.5 48.5t54 27t59 8.5q48 0 88.5 -15t64.5 -44v65q0 37 -29 59t-77 22q-80 0 -141 -57l-48 85q45 39 99.5 57.5t111.5 18.5q41 0 79 -9t67.5 -30.5t47 -56.5t17.5 -87
v-312h-127zM251 74q31 0 58.5 10.5t43.5 31.5v60q-16 21 -43.5 31.5t-58.5 10.5q-38 0 -64.5 -19t-26.5 -54q0 -34 26.5 -52.5t64.5 -18.5zM191 594q9 28 30 42.5t50 14.5q32 0 55.5 -17t23.5 -55q0 -16 -3.5 -27.5t-11.5 -23.5h-55q11 11 15.5 23.5t4.5 24.5q0 17 -9 24.5
t-20 7.5q-25 0 -35 -28z" />
    <glyph glyph-name="uni1EA4" unicode="&#x1ea4;" horiz-adv-x="684" 
d="M415 682l-73 66.75l-71 -66.75h-78l92 108h114l94 -108h-78zM526 0l-41 113h-286l-42 -113h-162l258 667h178l257 -667h-162zM342 525l-104 -287h208zM549 736h-89l134 108h117z" />
    <glyph glyph-name="uni1EA5" unicode="&#x1ea5;" horiz-adv-x="543" 
d="M353 0v50q-25 -29 -65 -45.5t-88 -16.5q-29 0 -59 10t-54 29.5t-39.5 49.5t-15.5 71q0 42 15.5 72t39.5 48.5t54 27t59 8.5q48 0 88.5 -15t64.5 -44v65q0 37 -29 59t-77 22q-80 0 -141 -57l-48 85q45 39 99.5 57.5t111.5 18.5q41 0 79 -9t67.5 -30.5t47 -56.5t17.5 -87
v-312h-127zM251 74q31 0 58.5 10.5t43.5 31.5v60q-16 21 -43.5 31.5t-58.5 10.5q-38 0 -64.5 -19t-26.5 -54q0 -34 26.5 -52.5t64.5 -18.5zM343 556l-73 89l-71 -89h-78l92 144h114l94 -144h-78zM471 626h-89l134 144h117z" />
    <glyph glyph-name="uni1EA6" unicode="&#x1ea6;" horiz-adv-x="684" 
d="M415 682l-73 66.75l-71 -66.75h-78l92 108h114l94 -108h-78zM526 0l-41 113h-286l-42 -113h-162l258 667h178l257 -667h-162zM342 525l-104 -287h208zM140 736l-162 108h116l135 -108h-89z" />
    <glyph glyph-name="uni1EA7" unicode="&#x1ea7;" horiz-adv-x="543" 
d="M353 0v50q-25 -29 -65 -45.5t-88 -16.5q-29 0 -59 10t-54 29.5t-39.5 49.5t-15.5 71q0 42 15.5 72t39.5 48.5t54 27t59 8.5q48 0 88.5 -15t64.5 -44v65q0 37 -29 59t-77 22q-80 0 -141 -57l-48 85q45 39 99.5 57.5t111.5 18.5q41 0 79 -9t67.5 -30.5t47 -56.5t17.5 -87
v-312h-127zM251 74q31 0 58.5 10.5t43.5 31.5v60q-16 21 -43.5 31.5t-58.5 10.5q-38 0 -64.5 -19t-26.5 -54q0 -34 26.5 -52.5t64.5 -18.5zM343 556l-73 89l-71 -89h-78l92 144h114l94 -144h-78zM69 626l-162 144h116l135 -144h-89z" />
    <glyph glyph-name="uni1EA8" unicode="&#x1ea8;" horiz-adv-x="684" 
d="M415 682l-73 66.75l-71 -66.75h-78l92 108h114l94 -108h-78zM526 0l-41 113h-286l-42 -113h-162l258 667h178l257 -667h-162zM342 525l-104 -287h208zM422 793.75q9 21 30 31.875t50 10.875q32 0 55.5 -12.75t23.5 -41.25q0 -12 -3.5 -20.625t-11.5 -17.625h-55
q11 8.25 15.5 17.625t4.5 18.375q0 12.75 -9 18.375t-20 5.625q-25 0 -35 -21z" />
    <glyph glyph-name="uni1EA9" unicode="&#x1ea9;" horiz-adv-x="543" 
d="M353 0v50q-25 -29 -65 -45.5t-88 -16.5q-29 0 -59 10t-54 29.5t-39.5 49.5t-15.5 71q0 42 15.5 72t39.5 48.5t54 27t59 8.5q48 0 88.5 -15t64.5 -44v65q0 37 -29 59t-77 22q-80 0 -141 -57l-48 85q45 39 99.5 57.5t111.5 18.5q41 0 79 -9t67.5 -30.5t47 -56.5t17.5 -87
v-312h-127zM251 74q31 0 58.5 10.5t43.5 31.5v60q-16 21 -43.5 31.5t-58.5 10.5q-38 0 -64.5 -19t-26.5 -54q0 -34 26.5 -52.5t64.5 -18.5zM343 556l-73 89l-71 -89h-78l92 144h114l94 -144h-78zM295 733q9 28 30 42.5t50 14.5q32 0 55.5 -17t23.5 -55q0 -16 -3.5 -27.5
t-11.5 -23.5h-55q11 11 15.5 23.5t4.5 24.5q0 17 -9 24.5t-20 7.5q-25 0 -35 -28z" />
    <glyph glyph-name="uni1EAA" unicode="&#x1eaa;" horiz-adv-x="684" 
d="M415 678l-73 44.5l-71 -44.5h-78l92 72h114l94 -72h-78zM526 0l-41 113h-286l-42 -113h-162l258 667h178l257 -667h-162zM342 525l-104 -287h208zM398 757q-26 0 -42 5.25t-28 11.75t-22.5 11.75t-24.5 5.25q-15 0 -25.5 -7.5t-10.5 -23.5h-67q0 32 27.5 49.5t80.5 17.5
q25 0 40.5 -5.25t27.5 -11.5t23 -11.5t25 -5.25q15 0 25.5 7.25t10.5 23.25h67q0 -32 -27 -49.5t-80 -17.5z" />
    <glyph glyph-name="uni1EAB" unicode="&#x1eab;" horiz-adv-x="543" 
d="M353 0v50q-25 -29 -65 -45.5t-88 -16.5q-29 0 -59 10t-54 29.5t-39.5 49.5t-15.5 71q0 42 15.5 72t39.5 48.5t54 27t59 8.5q48 0 88.5 -15t64.5 -44v65q0 37 -29 59t-77 22q-80 0 -141 -57l-48 85q45 39 99.5 57.5t111.5 18.5q41 0 79 -9t67.5 -30.5t47 -56.5t17.5 -87
v-312h-127zM251 74q31 0 58.5 10.5t43.5 31.5v60q-16 21 -43.5 31.5t-58.5 10.5q-38 0 -64.5 -19t-26.5 -54q0 -34 26.5 -52.5t64.5 -18.5zM343 524l-73 89l-71 -89h-78l92 144h114l94 -144h-78zM328 682q-26 0 -42 10.5t-28 23.5t-22.5 23.5t-24.5 10.5q-15 0 -25.5 -15
t-10.5 -47h-67q0 64 27.5 99t80.5 35q25 0 40.5 -10.5t27.5 -23t23 -23t25 -10.5q15 0 25.5 14.5t10.5 46.5h67q0 -64 -27 -99t-80 -35z" />
    <glyph glyph-name="uni1EAC" unicode="&#x1eac;" horiz-adv-x="684" 
d="M526 0l-41 113h-286l-42 -113h-162l258 667h178l257 -667h-162zM342 525l-104 -287h208zM414 723l-73 89l-71 -89h-78l92 144h114l94 -144h-78zM343 -195q-29 0 -48.5 19.5t-19.5 48.5q0 28 19.5 48t48.5 20q27 0 47 -20t20 -48q0 -29 -20 -48.5t-47 -19.5z" />
    <glyph glyph-name="uni1EAD" unicode="&#x1ead;" horiz-adv-x="543" 
d="M353 0v50q-25 -29 -65 -45.5t-88 -16.5q-29 0 -59 10t-54 29.5t-39.5 49.5t-15.5 71q0 42 15.5 72t39.5 48.5t54 27t59 8.5q48 0 88.5 -15t64.5 -44v65q0 37 -29 59t-77 22q-80 0 -141 -57l-48 85q45 39 99.5 57.5t111.5 18.5q41 0 79 -9t67.5 -30.5t47 -56.5t17.5 -87
v-312h-127zM251 74q31 0 58.5 10.5t43.5 31.5v60q-16 21 -43.5 31.5t-58.5 10.5q-38 0 -64.5 -19t-26.5 -54q0 -34 26.5 -52.5t64.5 -18.5zM343 556l-73 89l-71 -89h-78l92 144h114l94 -144h-78zM272 -195q-29 0 -48.5 19.5t-19.5 48.5q0 28 19.5 48t48.5 20q27 0 47 -20
t20 -48q0 -29 -20 -48.5t-47 -19.5z" />
    <glyph glyph-name="uni1EAE" unicode="&#x1eae;" horiz-adv-x="684" 
d="M526 0l-41 113h-286l-42 -113h-162l258 667h178l257 -667h-162zM342 525l-104 -287h208zM369 746.664h-89l134 84.6035h117zM517 743.817q-30 -27.6748 -75.5 -43.5371q-45.5 -15.8613 -99.5 -15.8613t-99.5 15.8613q-45.5 15.8623 -76.5 43.5371l56 31.7246
q20 -19.5752 50.5 -30.7119q30.5 -11.1377 69.5 -11.1377q38 0 68 11.1377q30 11.1367 51 30.7119l56 -31.7246v0z" />
    <glyph glyph-name="uni1EAF" unicode="&#x1eaf;" horiz-adv-x="543" 
d="M353 0v50q-25 -29 -65 -45.5t-88 -16.5q-29 0 -59 10t-54 29.5t-39.5 49.5t-15.5 71q0 42 15.5 72t39.5 48.5t54 27t59 8.5q48 0 88.5 -15t64.5 -44v65q0 37 -29 59t-77 22q-80 0 -141 -57l-48 85q45 39 99.5 57.5t111.5 18.5q41 0 79 -9t67.5 -30.5t47 -56.5t17.5 -87
v-312h-127zM251 74q31 0 58.5 10.5t43.5 31.5v60q-16 21 -43.5 31.5t-58.5 10.5q-38 0 -64.5 -19t-26.5 -54q0 -34 26.5 -52.5t64.5 -18.5zM299 634h-89l134 144h117zM445 605q-30 -41 -75.5 -64.5t-99.5 -23.5t-99.5 23.5t-76.5 64.5l56 47q20 -29 50.5 -45.5t69.5 -16.5
q38 0 68 16.5t51 45.5l56 -47v0z" />
    <glyph glyph-name="uni1EB0" unicode="&#x1eb0;" horiz-adv-x="684" 
d="M526 0l-41 113h-286l-42 -113h-162l258 667h178l257 -667h-162zM342 525l-104 -287h208zM317 746.664l-162 84.6035h116l135 -84.6035h-89zM517 738.817q-30 -27.6748 -75.5 -43.5371q-45.5 -15.8613 -99.5 -15.8613t-99.5 15.8613q-45.5 15.8623 -76.5 43.5371
l56 31.7246q20 -19.5752 50.5 -30.7119q30.5 -11.1377 69.5 -11.1377q38 0 68 11.1377q30 11.1367 51 30.7119l56 -31.7246v0z" />
    <glyph glyph-name="uni1EB1" unicode="&#x1eb1;" horiz-adv-x="543" 
d="M353 0v50q-25 -29 -65 -45.5t-88 -16.5q-29 0 -59 10t-54 29.5t-39.5 49.5t-15.5 71q0 42 15.5 72t39.5 48.5t54 27t59 8.5q48 0 88.5 -15t64.5 -44v65q0 37 -29 59t-77 22q-80 0 -141 -57l-48 85q45 39 99.5 57.5t111.5 18.5q41 0 79 -9t67.5 -30.5t47 -56.5t17.5 -87
v-312h-127zM251 74q31 0 58.5 10.5t43.5 31.5v60q-16 21 -43.5 31.5t-58.5 10.5q-38 0 -64.5 -19t-26.5 -54q0 -34 26.5 -52.5t64.5 -18.5zM241 634l-162 144h116l135 -144h-89zM445 607q-30 -41 -75.5 -64.5t-99.5 -23.5t-99.5 23.5t-76.5 64.5l56 47q20 -29 50.5 -45.5
t69.5 -16.5q38 0 68 16.5t51 45.5l56 -47v0z" />
    <glyph glyph-name="uni1EB2" unicode="&#x1eb2;" horiz-adv-x="684" 
d="M526 0l-41 113h-286l-42 -113h-162l258 667h178l257 -667h-162zM342 525l-104 -287h208zM262 787.655q9 16.4512 30 24.9697q21 8.51953 50 8.51953q32 0 55.5 -9.98828t23.5 -32.3135q0 -9.40039 -3.5 -16.1572t-11.5 -13.8066h-55q11 6.46289 15.5 13.8066t4.5 14.3945
q0 9.98828 -9 14.3945t-20 4.40625q-25 0 -35 -16.4512zM517 739.817q-30 -27.6748 -75.5 -43.5371q-45.5 -15.8613 -99.5 -15.8613t-99.5 15.8613q-45.5 15.8623 -76.5 43.5371l56 31.7246q20 -19.5752 50.5 -30.7119q30.5 -11.1377 69.5 -11.1377q38 0 68 11.1377
q30 11.1367 51 30.7119l56 -31.7246v0z" />
    <glyph glyph-name="uni1EB3" unicode="&#x1eb3;" horiz-adv-x="543" 
d="M353 0v50q-25 -29 -65 -45.5t-88 -16.5q-29 0 -59 10t-54 29.5t-39.5 49.5t-15.5 71q0 42 15.5 72t39.5 48.5t54 27t59 8.5q48 0 88.5 -15t64.5 -44v65q0 37 -29 59t-77 22q-80 0 -141 -57l-48 85q45 39 99.5 57.5t111.5 18.5q41 0 79 -9t67.5 -30.5t47 -56.5t17.5 -87
v-312h-127zM251 74q31 0 58.5 10.5t43.5 31.5v60q-16 21 -43.5 31.5t-58.5 10.5q-38 0 -64.5 -19t-26.5 -54q0 -34 26.5 -52.5t64.5 -18.5zM191 706q9 28 30 42.5t50 14.5q32 0 55.5 -17t23.5 -55q0 -16 -3.5 -27.5t-11.5 -23.5h-55q11 11 15.5 23.5t4.5 24.5q0 17 -9 24.5
t-20 7.5q-25 0 -35 -28zM445 607q-30 -41 -75.5 -64.5t-99.5 -23.5t-99.5 23.5t-76.5 64.5l56 47q20 -29 50.5 -45.5t69.5 -16.5q38 0 68 16.5t51 45.5l56 -47v0z" />
    <glyph glyph-name="uni1EB4" unicode="&#x1eb4;" horiz-adv-x="684" 
d="M526 0l-41 113h-286l-42 -113h-162l258 667h178l257 -667h-162zM342 525l-104 -287h208zM518 726.183q-30 -22.7969 -75.5 -35.8643q-45.5 -13.0664 -99.5 -13.0664t-99.5 13.0664q-45.5 13.0674 -76.5 35.8643l56 26.1338q20 -16.125 50.5 -25.2998t69.5 -9.1748
q38 0 68 9.1748t51 25.2998l56 -26.1338v0zM398 757q-26 0 -42 5.25t-28 11.75t-22.5 11.75t-24.5 5.25q-15 0 -25.5 -7.5t-10.5 -23.5h-67q0 32 27.5 49.5t80.5 17.5q25 0 40.5 -5.25t27.5 -11.5t23 -11.5t25 -5.25q15 0 25.5 7.25t10.5 23.25h67q0 -32 -27 -49.5
t-80 -17.5z" />
    <glyph glyph-name="uni1EB5" unicode="&#x1eb5;" horiz-adv-x="543" 
d="M353 0v50q-25 -29 -65 -45.5t-88 -16.5q-29 0 -59 10t-54 29.5t-39.5 49.5t-15.5 71q0 42 15.5 72t39.5 48.5t54 27t59 8.5q48 0 88.5 -15t64.5 -44v65q0 37 -29 59t-77 22q-80 0 -141 -57l-48 85q45 39 99.5 57.5t111.5 18.5q41 0 79 -9t67.5 -30.5t47 -56.5t17.5 -87
v-312h-127zM251 74q31 0 58.5 10.5t43.5 31.5v60q-16 21 -43.5 31.5t-58.5 10.5q-38 0 -64.5 -19t-26.5 -54q0 -34 26.5 -52.5t64.5 -18.5zM445 607q-30 -41 -75.5 -64.5t-99.5 -23.5t-99.5 23.5t-76.5 64.5l56 47q20 -29 50.5 -45.5t69.5 -16.5q38 0 68 16.5t51 45.5
l56 -47v0zM325 659q-26 0 -42 10.5t-28 23.5t-22.5 23.5t-24.5 10.5q-15 0 -25.5 -15t-10.5 -47h-67q0 64 27.5 99t80.5 35q25 0 40.5 -10.5t27.5 -23t23 -23t25 -10.5q15 0 25.5 14.5t10.5 46.5h67q0 -64 -27 -99t-80 -35z" />
    <glyph glyph-name="uni1EB6" unicode="&#x1eb6;" horiz-adv-x="684" 
d="M526 0l-41 113h-286l-42 -113h-162l258 667h178l257 -667h-162zM342 525l-104 -287h208zM343 -195q-29 0 -48.5 19.5t-19.5 48.5q0 28 19.5 48t48.5 20q27 0 47 -20t20 -48q0 -29 -20 -48.5t-47 -19.5zM517 786q-30 -41 -75.5 -64.5t-99.5 -23.5t-99.5 23.5t-76.5 64.5
l56 47q20 -29 50.5 -45.5t69.5 -16.5q38 0 68 16.5t51 45.5l56 -47v0z" />
    <glyph glyph-name="uni1EB7" unicode="&#x1eb7;" horiz-adv-x="543" 
d="M353 0v50q-25 -29 -65 -45.5t-88 -16.5q-29 0 -59 10t-54 29.5t-39.5 49.5t-15.5 71q0 42 15.5 72t39.5 48.5t54 27t59 8.5q48 0 88.5 -15t64.5 -44v65q0 37 -29 59t-77 22q-80 0 -141 -57l-48 85q45 39 99.5 57.5t111.5 18.5q41 0 79 -9t67.5 -30.5t47 -56.5t17.5 -87
v-312h-127zM251 74q31 0 58.5 10.5t43.5 31.5v60q-16 21 -43.5 31.5t-58.5 10.5q-38 0 -64.5 -19t-26.5 -54q0 -34 26.5 -52.5t64.5 -18.5zM272 -195q-29 0 -48.5 19.5t-19.5 48.5q0 28 19.5 48t48.5 20q27 0 47 -20t20 -48q0 -29 -20 -48.5t-47 -19.5zM444 619
q-30 -41 -75.5 -64.5t-99.5 -23.5t-99.5 23.5t-76.5 64.5l56 47q20 -29 50.5 -45.5t69.5 -16.5q38 0 68 16.5t51 45.5l56 -47v0z" />
    <glyph glyph-name="uni1EB8" unicode="&#x1eb8;" horiz-adv-x="583" 
d="M66 0v667h472v-125h-330v-141h323v-125h-323v-151h330v-125h-472zM303 -195q-29 0 -48.5 19.5t-19.5 48.5q0 28 19.5 48t48.5 20q27 0 47 -20t20 -48q0 -29 -20 -48.5t-47 -19.5z" />
    <glyph glyph-name="uni1EB9" unicode="&#x1eb9;" horiz-adv-x="553" 
d="M290 -12q-55 0 -102.5 18t-82 51t-54 80t-19.5 105q0 52 18.5 98.5t51.5 80.5t79 54t101 20q54 0 98.5 -19.5t76.5 -54.5t49.5 -84t17.5 -108v-28h-359q6 -46 41.5 -79t97.5 -33q15 0 33 3.5t35.5 9.5t33 15t27.5 20l56 -82q-36 -33 -89 -50t-110 -17zM401 287
q-1 17 -8 36t-21 34.5t-36.5 26t-53.5 10.5q-30 0 -51.5 -10t-35.5 -25.5t-22 -34.5t-10 -37h238zM285 -195q-29 0 -48.5 19.5t-19.5 48.5q0 28 19.5 48t48.5 20q27 0 47 -20t20 -48q0 -29 -20 -48.5t-47 -19.5z" />
    <glyph glyph-name="uni1EBA" unicode="&#x1eba;" horiz-adv-x="583" 
d="M66 0v667h472v-125h-330v-141h323v-125h-323v-151h330v-125h-472zM219 763q9 28 30 42.5t50 14.5q32 0 55.5 -17t23.5 -55q0 -16 -3.5 -27.5t-11.5 -23.5h-55q11 11 15.5 23.5t4.5 24.5q0 17 -9 24.5t-20 7.5q-25 0 -35 -28z" />
    <glyph glyph-name="uni1EBB" unicode="&#x1ebb;" horiz-adv-x="553" 
d="M290 -12q-55 0 -102.5 18t-82 51t-54 80t-19.5 105q0 52 18.5 98.5t51.5 80.5t79 54t101 20q54 0 98.5 -19.5t76.5 -54.5t49.5 -84t17.5 -108v-28h-359q6 -46 41.5 -79t97.5 -33q15 0 33 3.5t35.5 9.5t33 15t27.5 20l56 -82q-36 -33 -89 -50t-110 -17zM401 287
q-1 17 -8 36t-21 34.5t-36.5 26t-53.5 10.5q-30 0 -51.5 -10t-35.5 -25.5t-22 -34.5t-10 -37h238zM200 594q9 28 30 42.5t50 14.5q32 0 55.5 -17t23.5 -55q0 -16 -3.5 -27.5t-11.5 -23.5h-55q11 11 15.5 23.5t4.5 24.5q0 17 -9 24.5t-20 7.5q-25 0 -35 -28z" />
    <glyph glyph-name="uni1EBC" unicode="&#x1ebc;" horiz-adv-x="583" 
d="M66 0v667h472v-125h-330v-141h323v-125h-323v-151h330v-125h-472zM363 721q-26 0 -42 10.5t-28 23.5t-22.5 23.5t-24.5 10.5q-15 0 -25.5 -15t-10.5 -47h-67q0 64 27.5 99t80.5 35q25 0 40.5 -10.5t27.5 -23t23 -23t25 -10.5q15 0 25.5 14.5t10.5 46.5h67q0 -64 -27 -99
t-80 -35z" />
    <glyph glyph-name="uni1EBD" unicode="&#x1ebd;" horiz-adv-x="553" 
d="M290 -12q-55 0 -102.5 18t-82 51t-54 80t-19.5 105q0 52 18.5 98.5t51.5 80.5t79 54t101 20q54 0 98.5 -19.5t76.5 -54.5t49.5 -84t17.5 -108v-28h-359q6 -46 41.5 -79t97.5 -33q15 0 33 3.5t35.5 9.5t33 15t27.5 20l56 -82q-36 -33 -89 -50t-110 -17zM401 287
q-1 17 -8 36t-21 34.5t-36.5 26t-53.5 10.5q-30 0 -51.5 -10t-35.5 -25.5t-22 -34.5t-10 -37h238zM336 554q-26 0 -42 10.5t-28 23.5t-22.5 23.5t-24.5 10.5q-15 0 -25.5 -15t-10.5 -47h-67q0 64 27.5 99t80.5 35q25 0 40.5 -10.5t27.5 -23t23 -23t25 -10.5q15 0 25.5 14.5
t10.5 46.5h67q0 -64 -27 -99t-80 -35z" />
    <glyph glyph-name="uni1EBE" unicode="&#x1ebe;" horiz-adv-x="583" 
d="M379 682l-73 66.75l-71 -66.75h-78l92 108h114l94 -108h-78zM513 736h-89l134 108h117zM66 0v667h472v-125h-330v-141h323v-125h-323v-151h330v-125h-472z" />
    <glyph glyph-name="uni1EBF" unicode="&#x1ebf;" horiz-adv-x="553" 
d="M354 556l-73 89l-71 -89h-78l92 144h114l94 -144h-78zM480 626h-89l134 144h117zM290 -12q-55 0 -102.5 18t-82 51t-54 80t-19.5 105q0 52 18.5 98.5t51.5 80.5t79 54t101 20q54 0 98.5 -19.5t76.5 -54.5t49.5 -84t17.5 -108v-28h-359q6 -46 41.5 -79t97.5 -33
q15 0 33 3.5t35.5 9.5t33 15t27.5 20l56 -82q-36 -33 -89 -50t-110 -17zM401 287q-1 17 -8 36t-21 34.5t-36.5 26t-53.5 10.5q-30 0 -51.5 -10t-35.5 -25.5t-22 -34.5t-10 -37h238z" />
    <glyph glyph-name="uni1EC0" unicode="&#x1ec0;" horiz-adv-x="583" 
d="M380 682l-73 66.75l-71 -66.75h-78l92 108h114l94 -108h-78zM66 0v667h472v-125h-330v-141h323v-125h-323v-151h330v-125h-472zM105 736l-162 108h116l135 -108h-89z" />
    <glyph glyph-name="uni1EC1" unicode="&#x1ec1;" horiz-adv-x="553" 
d="M354 556l-73 89l-71 -89h-78l92 144h114l94 -144h-78zM290 -12q-55 0 -102.5 18t-82 51t-54 80t-19.5 105q0 52 18.5 98.5t51.5 80.5t79 54t101 20q54 0 98.5 -19.5t76.5 -54.5t49.5 -84t17.5 -108v-28h-359q6 -46 41.5 -79t97.5 -33q15 0 33 3.5t35.5 9.5t33 15t27.5 20
l56 -82q-36 -33 -89 -50t-110 -17zM401 287q-1 17 -8 36t-21 34.5t-36.5 26t-53.5 10.5q-30 0 -51.5 -10t-35.5 -25.5t-22 -34.5t-10 -37h238zM80 626l-162 144h116l135 -144h-89z" />
    <glyph glyph-name="uni1EC2" unicode="&#x1ec2;" horiz-adv-x="583" 
d="M379 682l-73 66.75l-71 -66.75h-78l92 108h114l94 -108h-78zM66 0v667h472v-125h-330v-141h323v-125h-323v-151h330v-125h-472zM385 793.75q9 21 30 31.875t50 10.875q32 0 55.5 -12.75t23.5 -41.25q0 -12 -3.5 -20.625t-11.5 -17.625h-55q11 8.25 15.5 17.625
t4.5 18.375q0 12.75 -9 18.375t-20 5.625q-25 0 -35 -21z" />
    <glyph glyph-name="uni1EC3" unicode="&#x1ec3;" horiz-adv-x="553" 
d="M354 556l-73 89l-71 -89h-78l92 144h114l94 -144h-78zM290 -12q-55 0 -102.5 18t-82 51t-54 80t-19.5 105q0 52 18.5 98.5t51.5 80.5t79 54t101 20q54 0 98.5 -19.5t76.5 -54.5t49.5 -84t17.5 -108v-28h-359q6 -46 41.5 -79t97.5 -33q15 0 33 3.5t35.5 9.5t33 15t27.5 20
l56 -82q-36 -33 -89 -50t-110 -17zM401 287q-1 17 -8 36t-21 34.5t-36.5 26t-53.5 10.5q-30 0 -51.5 -10t-35.5 -25.5t-22 -34.5t-10 -37h238zM306 733q9 28 30 42.5t50 14.5q32 0 55.5 -17t23.5 -55q0 -16 -3.5 -27.5t-11.5 -23.5h-55q11 11 15.5 23.5t4.5 24.5
q0 17 -9 24.5t-20 7.5q-25 0 -35 -28z" />
    <glyph glyph-name="uni1EC4" unicode="&#x1ec4;" horiz-adv-x="583" 
d="M379 678l-73 44.5l-71 -44.5h-78l92 72h114l94 -72h-78zM66 0v667h472v-125h-330v-141h323v-125h-323v-151h330v-125h-472zM361 757q-26 0 -42 5.25t-28 11.75t-22.5 11.75t-24.5 5.25q-15 0 -25.5 -7.5t-10.5 -23.5h-67q0 32 27.5 49.5t80.5 17.5q25 0 40.5 -5.25
t27.5 -11.5t23 -11.5t25 -5.25q15 0 25.5 7.25t10.5 23.25h67q0 -32 -27 -49.5t-80 -17.5z" />
    <glyph glyph-name="uni1EC5" unicode="&#x1ec5;" horiz-adv-x="553" 
d="M354 524l-73 89l-71 -89h-78l92 144h114l94 -144h-78zM290 -12q-55 0 -102.5 18t-82 51t-54 80t-19.5 105q0 52 18.5 98.5t51.5 80.5t79 54t101 20q54 0 98.5 -19.5t76.5 -54.5t49.5 -84t17.5 -108v-28h-359q6 -46 41.5 -79t97.5 -33q15 0 33 3.5t35.5 9.5t33 15t27.5 20
l56 -82q-36 -33 -89 -50t-110 -17zM401 287q-1 17 -8 36t-21 34.5t-36.5 26t-53.5 10.5q-30 0 -51.5 -10t-35.5 -25.5t-22 -34.5t-10 -37h238zM339 682q-26 0 -42 10.5t-28 23.5t-22.5 23.5t-24.5 10.5q-15 0 -25.5 -15t-10.5 -47h-67q0 64 27.5 99t80.5 35q25 0 40.5 -10.5
t27.5 -23t23 -23t25 -10.5q15 0 25.5 14.5t10.5 46.5h67q0 -64 -27 -99t-80 -35z" />
    <glyph glyph-name="uni1EC6" unicode="&#x1ec6;" horiz-adv-x="583" 
d="M374 723l-73 89l-71 -89h-78l92 144h114l94 -144h-78zM66 0v667h472v-125h-330v-141h323v-125h-323v-151h330v-125h-472zM303 -195q-29 0 -48.5 19.5t-19.5 48.5q0 28 19.5 48t48.5 20q27 0 47 -20t20 -48q0 -29 -20 -48.5t-47 -19.5z" />
    <glyph glyph-name="uni1EC7" unicode="&#x1ec7;" horiz-adv-x="553" 
d="M356 556l-73 89l-71 -89h-78l92 144h114l94 -144h-78zM290 -12q-55 0 -102.5 18t-82 51t-54 80t-19.5 105q0 52 18.5 98.5t51.5 80.5t79 54t101 20q54 0 98.5 -19.5t76.5 -54.5t49.5 -84t17.5 -108v-28h-359q6 -46 41.5 -79t97.5 -33q15 0 33 3.5t35.5 9.5t33 15t27.5 20
l56 -82q-36 -33 -89 -50t-110 -17zM401 287q-1 17 -8 36t-21 34.5t-36.5 26t-53.5 10.5q-30 0 -51.5 -10t-35.5 -25.5t-22 -34.5t-10 -37h238zM285 -195q-29 0 -48.5 19.5t-19.5 48.5q0 28 19.5 48t48.5 20q27 0 47 -20t20 -48q0 -29 -20 -48.5t-47 -19.5z" />
    <glyph glyph-name="uni1EC8" unicode="&#x1ec8;" horiz-adv-x="274" 
d="M66 0v667h142v-667h-142zM58 763q9 28 30 42.5t50 14.5q32 0 55.5 -17t23.5 -55q0 -16 -3.5 -27.5t-11.5 -23.5h-55q11 11 15.5 23.5t4.5 24.5q0 17 -9 24.5t-20 7.5q-25 0 -35 -28z" />
    <glyph glyph-name="uni1EC9" unicode="&#x1ec9;" horiz-adv-x="253" 
d="M63 0v483h127v-483h-127zM47 594q9 28 30 42.5t50 14.5q32 0 55.5 -17t23.5 -55q0 -16 -3.5 -27.5t-11.5 -23.5h-55q11 11 15.5 23.5t4.5 24.5q0 17 -9 24.5t-20 7.5q-25 0 -35 -28z" />
    <glyph glyph-name="uni1ECA" unicode="&#x1eca;" horiz-adv-x="274" 
d="M66 0v667h142v-667h-142zM140 -195q-29 0 -48.5 19.5t-19.5 48.5q0 28 19.5 48t48.5 20q27 0 47 -20t20 -48q0 -29 -20 -48.5t-47 -19.5z" />
    <glyph glyph-name="uni1ECB" unicode="&#x1ecb;" horiz-adv-x="253" 
d="M126 535q-31 0 -53.5 22t-22.5 54t22.5 53.5t53.5 21.5q32 0 54 -21.5t22 -53.5t-22 -54t-54 -22zM63 0v483h127v-483h-127zM128 -195q-29 0 -48.5 19.5t-19.5 48.5q0 28 19.5 48t48.5 20q27 0 47 -20t20 -48q0 -29 -20 -48.5t-47 -19.5z" />
    <glyph glyph-name="uni1ECC" unicode="&#x1ecc;" horiz-adv-x="765" 
d="M382 -12q-75 0 -139 25.5t-110.5 71.5t-72.5 109.5t-26 138.5t26 138.5t72.5 109.5t110.5 71.5t139 25.5q76 0 140 -25.5t110.5 -71.5t72.5 -109.5t26 -138.5t-26 -138.5t-72.5 -109.5t-110.5 -71.5t-140 -25.5zM382 114q46 0 83.5 17t64 46t41 69t14.5 87t-14.5 87
t-41 69.5t-64 46t-83.5 16.5t-83.5 -16.5t-63.5 -46t-40.5 -69.5t-14.5 -87t14.5 -87t40.5 -69t63.5 -46t83.5 -17zM386 -195q-29 0 -48.5 19.5t-19.5 48.5q0 28 19.5 48t48.5 20q27 0 47 -20t20 -48q0 -29 -20 -48.5t-47 -19.5z" />
    <glyph glyph-name="uni1ECD" unicode="&#x1ecd;" horiz-adv-x="574" 
d="M287 -12q-60 0 -107 20.5t-80 55t-50.5 80.5t-17.5 98q0 51 17.5 97t50.5 80.5t80 55t107 20.5t107.5 -20.5t80.5 -55t50.5 -80.5t17.5 -97q0 -52 -17.5 -98t-50.5 -80.5t-80.5 -55t-107.5 -20.5zM287 101q30 0 53 11.5t38.5 30.5t24 44.5t8.5 54.5q0 28 -8.5 53.5
t-24 44.5t-38.5 30.5t-53 11.5t-52.5 -11.5t-38.5 -30.5t-24 -44.5t-8 -53.5q0 -29 8 -54.5t24 -44.5t38.5 -30.5t52.5 -11.5zM288 -195q-29 0 -48.5 19.5t-19.5 48.5q0 28 19.5 48t48.5 20q27 0 47 -20t20 -48q0 -29 -20 -48.5t-47 -19.5z" />
    <glyph glyph-name="uni1ECE" unicode="&#x1ece;" horiz-adv-x="765" 
d="M382 -12q-75 0 -139 25.5t-110.5 71.5t-72.5 109.5t-26 138.5t26 138.5t72.5 109.5t110.5 71.5t139 25.5q76 0 140 -25.5t110.5 -71.5t72.5 -109.5t26 -138.5t-26 -138.5t-72.5 -109.5t-110.5 -71.5t-140 -25.5zM382 114q46 0 83.5 17t64 46t41 69t14.5 87t-14.5 87
t-41 69.5t-64 46t-83.5 16.5t-83.5 -16.5t-63.5 -46t-40.5 -69.5t-14.5 -87t14.5 -87t40.5 -69t63.5 -46t83.5 -17zM301 763q9 28 30 42.5t50 14.5q32 0 55.5 -17t23.5 -55q0 -16 -3.5 -27.5t-11.5 -23.5h-55q11 11 15.5 23.5t4.5 24.5q0 17 -9 24.5t-20 7.5q-25 0 -35 -28z
" />
    <glyph glyph-name="uni1ECF" unicode="&#x1ecf;" horiz-adv-x="574" 
d="M287 -12q-60 0 -107 20.5t-80 55t-50.5 80.5t-17.5 98q0 51 17.5 97t50.5 80.5t80 55t107 20.5t107.5 -20.5t80.5 -55t50.5 -80.5t17.5 -97q0 -52 -17.5 -98t-50.5 -80.5t-80.5 -55t-107.5 -20.5zM287 101q30 0 53 11.5t38.5 30.5t24 44.5t8.5 54.5q0 28 -8.5 53.5
t-24 44.5t-38.5 30.5t-53 11.5t-52.5 -11.5t-38.5 -30.5t-24 -44.5t-8 -53.5q0 -29 8 -54.5t24 -44.5t38.5 -30.5t52.5 -11.5zM208 594q9 28 30 42.5t50 14.5q32 0 55.5 -17t23.5 -55q0 -16 -3.5 -27.5t-11.5 -23.5h-55q11 11 15.5 23.5t4.5 24.5q0 17 -9 24.5t-20 7.5
q-25 0 -35 -28z" />
    <glyph glyph-name="uni1ED0" unicode="&#x1ed0;" horiz-adv-x="765" 
d="M451 682l-73 66.75l-71 -66.75h-78l92 108h114l94 -108h-78zM584 736h-89l134 108h117zM382 -12q-75 0 -139 25.5t-110.5 71.5t-72.5 109.5t-26 138.5t26 138.5t72.5 109.5t110.5 71.5t139 25.5q76 0 140 -25.5t110.5 -71.5t72.5 -109.5t26 -138.5t-26 -138.5
t-72.5 -109.5t-110.5 -71.5t-140 -25.5zM382 114q46 0 83.5 17t64 46t41 69t14.5 87t-14.5 87t-41 69.5t-64 46t-83.5 16.5t-83.5 -16.5t-63.5 -46t-40.5 -69.5t-14.5 -87t14.5 -87t40.5 -69t63.5 -46t83.5 -17z" />
    <glyph glyph-name="uni1ED1" unicode="&#x1ed1;" horiz-adv-x="574" 
d="M359 556l-73 89l-71 -89h-78l92 144h114l94 -144h-78zM486 626h-89l134 144h117zM287 -12q-60 0 -107 20.5t-80 55t-50.5 80.5t-17.5 98q0 51 17.5 97t50.5 80.5t80 55t107 20.5t107.5 -20.5t80.5 -55t50.5 -80.5t17.5 -97q0 -52 -17.5 -98t-50.5 -80.5t-80.5 -55
t-107.5 -20.5zM287 101q30 0 53 11.5t38.5 30.5t24 44.5t8.5 54.5q0 28 -8.5 53.5t-24 44.5t-38.5 30.5t-53 11.5t-52.5 -11.5t-38.5 -30.5t-24 -44.5t-8 -53.5q0 -29 8 -54.5t24 -44.5t38.5 -30.5t52.5 -11.5z" />
    <glyph glyph-name="uni1ED2" unicode="&#x1ed2;" horiz-adv-x="765" 
d="M450 682l-73 66.75l-71 -66.75h-78l92 108h114l94 -108h-78zM382 -12q-75 0 -139 25.5t-110.5 71.5t-72.5 109.5t-26 138.5t26 138.5t72.5 109.5t110.5 71.5t139 25.5q76 0 140 -25.5t110.5 -71.5t72.5 -109.5t26 -138.5t-26 -138.5t-72.5 -109.5t-110.5 -71.5
t-140 -25.5zM382 114q46 0 83.5 17t64 46t41 69t14.5 87t-14.5 87t-41 69.5t-64 46t-83.5 16.5t-83.5 -16.5t-63.5 -46t-40.5 -69.5t-14.5 -87t14.5 -87t40.5 -69t63.5 -46t83.5 -17zM173 736l-162 108h116l135 -108h-89z" />
    <glyph glyph-name="uni1ED3" unicode="&#x1ed3;" horiz-adv-x="574" 
d="M359 556l-73 89l-71 -89h-78l92 144h114l94 -144h-78zM287 -12q-60 0 -107 20.5t-80 55t-50.5 80.5t-17.5 98q0 51 17.5 97t50.5 80.5t80 55t107 20.5t107.5 -20.5t80.5 -55t50.5 -80.5t17.5 -97q0 -52 -17.5 -98t-50.5 -80.5t-80.5 -55t-107.5 -20.5zM287 101
q30 0 53 11.5t38.5 30.5t24 44.5t8.5 54.5q0 28 -8.5 53.5t-24 44.5t-38.5 30.5t-53 11.5t-52.5 -11.5t-38.5 -30.5t-24 -44.5t-8 -53.5q0 -29 8 -54.5t24 -44.5t38.5 -30.5t52.5 -11.5zM86 626l-162 144h116l135 -144h-89z" />
    <glyph glyph-name="uni1ED4" unicode="&#x1ed4;" horiz-adv-x="765" 
d="M450 682l-73 66.75l-71 -66.75h-78l92 108h114l94 -108h-78zM382 -12q-75 0 -139 25.5t-110.5 71.5t-72.5 109.5t-26 138.5t26 138.5t72.5 109.5t110.5 71.5t139 25.5q76 0 140 -25.5t110.5 -71.5t72.5 -109.5t26 -138.5t-26 -138.5t-72.5 -109.5t-110.5 -71.5
t-140 -25.5zM382 114q46 0 83.5 17t64 46t41 69t14.5 87t-14.5 87t-41 69.5t-64 46t-83.5 16.5t-83.5 -16.5t-63.5 -46t-40.5 -69.5t-14.5 -87t14.5 -87t40.5 -69t63.5 -46t83.5 -17zM457 793.75q9 21 30 31.875t50 10.875q32 0 55.5 -12.75t23.5 -41.25q0 -12 -3.5 -20.625
t-11.5 -17.625h-55q11 8.25 15.5 17.625t4.5 18.375q0 12.75 -9 18.375t-20 5.625q-25 0 -35 -21z" />
    <glyph glyph-name="uni1ED5" unicode="&#x1ed5;" horiz-adv-x="574" 
d="M359 556l-73 89l-71 -89h-78l92 144h114l94 -144h-78zM287 -12q-60 0 -107 20.5t-80 55t-50.5 80.5t-17.5 98q0 51 17.5 97t50.5 80.5t80 55t107 20.5t107.5 -20.5t80.5 -55t50.5 -80.5t17.5 -97q0 -52 -17.5 -98t-50.5 -80.5t-80.5 -55t-107.5 -20.5zM287 101
q30 0 53 11.5t38.5 30.5t24 44.5t8.5 54.5q0 28 -8.5 53.5t-24 44.5t-38.5 30.5t-53 11.5t-52.5 -11.5t-38.5 -30.5t-24 -44.5t-8 -53.5q0 -29 8 -54.5t24 -44.5t38.5 -30.5t52.5 -11.5zM311 733q9 28 30 42.5t50 14.5q32 0 55.5 -17t23.5 -55q0 -16 -3.5 -27.5t-11.5 -23.5
h-55q11 11 15.5 23.5t4.5 24.5q0 17 -9 24.5t-20 7.5q-25 0 -35 -28z" />
    <glyph glyph-name="uni1ED6" unicode="&#x1ed6;" horiz-adv-x="765" 
d="M453 678l-73 44.5l-71 -44.5h-78l92 72h114l94 -72h-78zM382 -12q-75 0 -139 25.5t-110.5 71.5t-72.5 109.5t-26 138.5t26 138.5t72.5 109.5t110.5 71.5t139 25.5q76 0 140 -25.5t110.5 -71.5t72.5 -109.5t26 -138.5t-26 -138.5t-72.5 -109.5t-110.5 -71.5t-140 -25.5z
M382 114q46 0 83.5 17t64 46t41 69t14.5 87t-14.5 87t-41 69.5t-64 46t-83.5 16.5t-83.5 -16.5t-63.5 -46t-40.5 -69.5t-14.5 -87t14.5 -87t40.5 -69t63.5 -46t83.5 -17zM436 757q-26 0 -42 5.25t-28 11.75t-22.5 11.75t-24.5 5.25q-15 0 -25.5 -7.5t-10.5 -23.5h-67
q0 32 27.5 49.5t80.5 17.5q25 0 40.5 -5.25t27.5 -11.5t23 -11.5t25 -5.25q15 0 25.5 7.25t10.5 23.25h67q0 -32 -27 -49.5t-80 -17.5z" />
    <glyph glyph-name="uni1ED7" unicode="&#x1ed7;" horiz-adv-x="574" 
d="M359 524l-73 89l-71 -89h-78l92 144h114l94 -144h-78zM287 -12q-60 0 -107 20.5t-80 55t-50.5 80.5t-17.5 98q0 51 17.5 97t50.5 80.5t80 55t107 20.5t107.5 -20.5t80.5 -55t50.5 -80.5t17.5 -97q0 -52 -17.5 -98t-50.5 -80.5t-80.5 -55t-107.5 -20.5zM287 101
q30 0 53 11.5t38.5 30.5t24 44.5t8.5 54.5q0 28 -8.5 53.5t-24 44.5t-38.5 30.5t-53 11.5t-52.5 -11.5t-38.5 -30.5t-24 -44.5t-8 -53.5q0 -29 8 -54.5t24 -44.5t38.5 -30.5t52.5 -11.5zM344 682q-26 0 -42 10.5t-28 23.5t-22.5 23.5t-24.5 10.5q-15 0 -25.5 -15t-10.5 -47
h-67q0 64 27.5 99t80.5 35q25 0 40.5 -10.5t27.5 -23t23 -23t25 -10.5q15 0 25.5 14.5t10.5 46.5h67q0 -64 -27 -99t-80 -35z" />
    <glyph glyph-name="uni1ED8" unicode="&#x1ed8;" horiz-adv-x="765" 
d="M457 723l-73 89l-71 -89h-78l92 144h114l94 -144h-78zM382 -12q-75 0 -139 25.5t-110.5 71.5t-72.5 109.5t-26 138.5t26 138.5t72.5 109.5t110.5 71.5t139 25.5q76 0 140 -25.5t110.5 -71.5t72.5 -109.5t26 -138.5t-26 -138.5t-72.5 -109.5t-110.5 -71.5t-140 -25.5z
M382 114q46 0 83.5 17t64 46t41 69t14.5 87t-14.5 87t-41 69.5t-64 46t-83.5 16.5t-83.5 -16.5t-63.5 -46t-40.5 -69.5t-14.5 -87t14.5 -87t40.5 -69t63.5 -46t83.5 -17zM386 -195q-29 0 -48.5 19.5t-19.5 48.5q0 28 19.5 48t48.5 20q27 0 47 -20t20 -48q0 -29 -20 -48.5
t-47 -19.5z" />
    <glyph glyph-name="uni1ED9" unicode="&#x1ed9;" horiz-adv-x="574" 
d="M359 556l-73 89l-71 -89h-78l92 144h114l94 -144h-78zM287 -12q-60 0 -107 20.5t-80 55t-50.5 80.5t-17.5 98q0 51 17.5 97t50.5 80.5t80 55t107 20.5t107.5 -20.5t80.5 -55t50.5 -80.5t17.5 -97q0 -52 -17.5 -98t-50.5 -80.5t-80.5 -55t-107.5 -20.5zM287 101
q30 0 53 11.5t38.5 30.5t24 44.5t8.5 54.5q0 28 -8.5 53.5t-24 44.5t-38.5 30.5t-53 11.5t-52.5 -11.5t-38.5 -30.5t-24 -44.5t-8 -53.5q0 -29 8 -54.5t24 -44.5t38.5 -30.5t52.5 -11.5zM288 -195q-29 0 -48.5 19.5t-19.5 48.5q0 28 19.5 48t48.5 20q27 0 47 -20t20 -48
q0 -29 -20 -48.5t-47 -19.5z" />
    <glyph glyph-name="uni1EDA" unicode="&#x1eda;" horiz-adv-x="765" 
d="M408 723h-89l134 144h117zM382 -12q-75 0 -139 25.5t-110.5 71.5t-72.5 109.5t-26 138.5t26 138.5t72.5 109.5t110.5 71.5t139 25.5q80 0 146 -28.5t114 -79.5q15 13 27.5 30.5t16.5 33.5q-4 -2 -14 -2q-20 0 -34 14t-14 37t16 39.5t39 16.5q25 0 44 -19t19 -54
q0 -40 -19 -74.5t-51 -58.5q29 -42 44 -92.5t15 -107.5q0 -75 -26 -138.5t-72.5 -109.5t-110.5 -71.5t-140 -25.5zM382 114q46 0 83.5 17t64 46t41 69t14.5 87t-14.5 87t-41 69.5t-64 46t-83.5 16.5t-83.5 -16.5t-63.5 -46t-40.5 -69.5t-14.5 -87t14.5 -87t40.5 -69
t63.5 -46t83.5 -17z" />
    </font>
</defs>
</svg>
